M48
;DRILL file {KiCad (5.0.2)-1} date 2019/1/28 11:27:27
;FORMAT={-:-/ absolute / metric / decimal}
FMAT,2
METRIC,TZ
T1C1.699
T2C3.048
T3C3.980
T4C3.980
%
G90
G05
T1
X73.503Y-111.92
X83.663Y-111.92
X161.607Y-73.82
X171.767Y-73.82
X194.945Y-111.92
X205.105Y-111.92
X330.676Y-111.919
X340.836Y-111.919
X213.995Y-111.92
X224.155Y-111.92
X325.914Y-130.969
X336.074Y-130.969
X261.62Y-150.019
X271.78Y-150.019
X285.433Y-150.019
X295.592Y-150.019
X199.707Y-73.82
X209.867Y-73.82
X187.801Y-150.019
X197.961Y-150.019
X321.151Y-111.919
X331.311Y-111.919
X92.551Y-150.019
X102.711Y-150.019
X228.282Y-92.87
X238.442Y-92.87
X71.12Y-149.987
X81.28Y-149.987
X137.795Y-111.92
X147.955Y-111.92
X66.358Y-73.819
X76.517Y-73.819
X271.145Y-111.92
X281.305Y-111.92
X116.364Y-150.019
X126.524Y-150.019
X180.657Y-73.82
X190.817Y-73.82
X133.032Y-92.87
X143.192Y-92.87
X204.47Y-130.97
X214.63Y-130.97
X280.67Y-130.97
X290.83Y-130.97
X242.57Y-130.97
X252.73Y-130.97
X333.058Y-73.819
X343.217Y-73.819
X123.507Y-73.82
X133.667Y-73.82
X99.695Y-149.987
X109.855Y-149.987
X156.845Y-111.92
X167.005Y-111.92
X68.74Y-111.92
X78.9Y-111.92
X85.407Y-73.819
X95.567Y-73.819
X280.67Y-150.019
X290.83Y-150.019
X323.532Y-73.82
X333.692Y-73.82
X94.932Y-92.87
X105.093Y-92.87
X113.983Y-92.87
X124.142Y-92.87
X147.32Y-130.97
X157.48Y-130.97
X223.52Y-130.97
X233.68Y-130.97
X109.22Y-130.97
X119.38Y-130.97
X328.295Y-150.019
X338.455Y-150.019
X175.895Y-111.92
X186.055Y-111.92
X190.183Y-92.87
X200.343Y-92.87
X99.695Y-111.92
X109.855Y-111.92
X309.245Y-111.92
X319.405Y-111.92
X142.558Y-73.82
X152.718Y-73.82
X314.007Y-73.819
X324.167Y-73.819
X68.739Y-150.019
X78.899Y-150.019
X330.676Y-150.019
X340.836Y-150.019
X218.757Y-73.82
X228.917Y-73.82
X290.195Y-111.92
X300.355Y-111.92
X128.27Y-130.97
X138.43Y-130.97
X233.045Y-111.92
X243.205Y-111.92
X171.132Y-92.87
X181.292Y-92.87
X94.996Y-149.987
X105.156Y-149.987
X118.745Y-111.92
X128.905Y-111.92
X285.433Y-92.87
X295.592Y-92.87
X304.482Y-150.019
X314.642Y-150.019
X256.858Y-73.82
X267.017Y-73.82
X68.74Y-130.97
X78.9Y-130.97
X275.907Y-73.82
X286.067Y-73.82
X294.957Y-73.82
X305.118Y-73.82
X283.051Y-150.019
X293.211Y-150.019
X252.095Y-111.92
X262.255Y-111.92
X166.37Y-130.97
X176.53Y-130.97
X78.264Y-130.969
X88.424Y-130.969
X152.082Y-92.87
X162.243Y-92.87
X180.657Y-150.019
X190.817Y-150.019
X209.232Y-92.87
X219.392Y-92.87
X328.295Y-92.869
X338.455Y-92.869
X299.72Y-130.969
X309.88Y-130.969
X199.707Y-150.02
X209.867Y-150.02
X316.39Y-130.97
X326.55Y-130.97
X306.864Y-150.019
X317.024Y-150.019
X304.482Y-92.87
X314.642Y-92.87
X185.42Y-130.97
X195.58Y-130.97
X247.332Y-92.87
X257.493Y-92.87
X104.457Y-73.82
X114.617Y-73.82
X333.058Y-130.969
X343.217Y-130.969
X266.382Y-92.87
X276.542Y-92.87
X90.17Y-130.97
X100.33Y-130.97
X306.864Y-130.969
X317.024Y-130.969
X118.745Y-149.987
X128.905Y-149.987
X71.12Y-92.87
X81.28Y-92.87
X259.239Y-150.019
X269.399Y-150.019
X261.62Y-130.97
X271.78Y-130.97
X237.807Y-73.82
X247.968Y-73.82
T2
X147.637Y-157.005
X309.562Y-123.985
X333.375Y-123.984
X316.708Y-66.835
X71.438Y-123.985
X95.25Y-123.985
X338.137Y-104.934
X142.875Y-157.005
X340.52Y-66.835
X128.588Y-157.005
X261.938Y-157.005
X242.887Y-157.005
X314.325Y-104.935
T3
X78.583Y-111.92
X166.688Y-73.82
X200.025Y-111.92
X335.756Y-111.919
X219.075Y-111.92
X330.994Y-130.969
X266.7Y-150.019
X290.512Y-150.019
X204.787Y-73.82
X192.881Y-150.019
X326.231Y-111.919
X97.631Y-150.019
X233.362Y-92.87
X76.2Y-149.987
X142.875Y-111.92
X71.438Y-73.819
X276.225Y-111.92
X121.444Y-150.019
X185.737Y-73.82
X138.112Y-92.87
X209.55Y-130.97
X285.75Y-130.97
X247.65Y-130.97
X338.137Y-73.819
X128.588Y-73.82
X104.775Y-149.987
X161.925Y-111.92
X73.82Y-111.92
X90.487Y-73.819
X285.75Y-150.019
X328.613Y-73.82
X100.012Y-92.87
X119.062Y-92.87
X152.4Y-130.97
X228.6Y-130.97
X114.3Y-130.97
X333.375Y-150.019
X180.975Y-111.92
X195.262Y-92.87
X104.775Y-111.92
X314.325Y-111.92
X147.637Y-73.82
X319.087Y-73.819
X73.819Y-150.019
X335.756Y-150.019
X223.837Y-73.82
X295.275Y-111.92
X133.35Y-130.97
X238.125Y-111.92
X176.213Y-92.87
X100.076Y-149.987
X123.825Y-111.92
X290.512Y-92.87
X309.562Y-150.019
X261.938Y-73.82
X73.82Y-130.97
X280.988Y-73.82
X300.037Y-73.82
X288.131Y-150.019
X257.175Y-111.92
X171.45Y-130.97
X83.344Y-130.969
X157.162Y-92.87
X185.737Y-150.019
X214.312Y-92.87
X333.375Y-92.869
X304.8Y-130.969
X204.787Y-150.02
X321.47Y-130.97
X311.944Y-150.019
X309.562Y-92.87
X190.5Y-130.97
X252.412Y-92.87
X109.537Y-73.82
X338.137Y-130.969
X271.462Y-92.87
X95.25Y-130.97
X311.944Y-130.969
X123.825Y-149.987
X76.2Y-92.87
X264.319Y-150.019
X266.7Y-130.97
X242.887Y-73.82
T4
X261.938Y-141.765
X242.887Y-141.765
X314.325Y-120.175
X147.637Y-141.765
X309.562Y-139.225
X333.375Y-139.224
X316.708Y-82.075
X71.438Y-139.225
X95.25Y-139.225
X338.137Y-120.174
X142.875Y-141.765
X340.52Y-82.075
X128.588Y-141.765
T0
M30
