M48
;DRILL file {KiCad (5.0.2)-1} date 2019/1/28 11:27:27
;FORMAT={-:-/ absolute / metric / decimal}
FMAT,2
METRIC,TZ
T1C0.400
T2C1.501
T3C2.499
T4C2.499
%
G90
G05
T1
X65.329Y-83.007
X65.481Y-67.208
X68.224Y-104.851
X68.783Y-141.275
X74.676Y-66.091
X75.235Y-121.26
X79.35Y-122.479
X81.788Y-123.8
X82.347Y-143.053
X82.956Y-122.58
X83.414Y-82.804
X84.938Y-150.165
X85.75Y-83.464
X85.75Y-84.734
X86.512Y-66.497
X86.868Y-123.292
X88.798Y-152.705
X89.357Y-83.109
X91.796Y-112.319
X94.183Y-152.705
X98.247Y-75.286
X98.806Y-67.92
X100.084Y-128.43
X100.228Y-140.767
X100.33Y-138.735
X100.482Y-136.957
X105.664Y-123.495
X106.375Y-137.425
X106.578Y-139.09
X106.586Y-128.43
X111.404Y-106.731
X113.132Y-149.962
X118.466Y-143.358
X119.278Y-144.17
X121.107Y-125.12
X123.495Y-130.404
X123.901Y-123.698
X128.422Y-133.96
X134.01Y-143.002
X135.23Y-149.2
X136.144Y-150.114
X136.855Y-83.16
X136.957Y-66.904
X137.262Y-139.598
X140.868Y-124.358
X141.783Y-133.452
X142.088Y-107.239
X142.392Y-129.642
X142.951Y-83.21
X143.866Y-122.174
X143.916Y-84.684
X143.916Y-135.23
X144.475Y-148.946
X145.237Y-130.099
X145.542Y-124.358
X148.742Y-146.253
X149.098Y-151.587
X152.044Y-141.224
X152.857Y-146.253
X153.01Y-148.438
X155.55Y-143.612
X156.921Y-155.753
X157.175Y-143.256
X157.328Y-141.529
X159.766Y-124.003
X159.817Y-125.527
X161.747Y-154.788
X163.449Y-152.197
X163.678Y-155.804
X165.659Y-144.932
X165.887Y-153.086
X167.284Y-141.376
X167.5Y-143.942
X168.554Y-106.629
X169.075Y-143.002
X170.129Y-154.534
X171.704Y-154.432
X174.193Y-133.858
X174.447Y-155.448
X175.26Y-66.802
X175.768Y-144.628
X175.768Y-145.847
X176.835Y-134.417
X181.407Y-131.775
X181.458Y-129.997
X181.465Y-128.43
X181.966Y-143.002
X183.185Y-152.806
X189.128Y-152.654
X197.917Y-124.765
X198.984Y-143.408
X213.411Y-66.751
X213.665Y-152.146
X213.919Y-143.866
X226.72Y-152.044
X236.474Y-124.562
X241.656Y-150.673
X244.043Y-106.629
X246.278Y-140.665
X249.174Y-158.14
X252.324Y-84.074
X255.626Y-158.14
X258.42Y-140.716
X260.756Y-153.975
X266.649Y-158.039
X270.002Y-141.935
X270.713Y-137.516
X270.967Y-66.904
X272.339Y-156.972
X273.964Y-137.516
X274.168Y-124.511
X274.396Y-144.018
X292.862Y-141.597
X300.126Y-151.028
X301.066Y-146.723
X302.768Y-105.816
X309.982Y-67.412
X325.882Y-82.855
X336.55Y-67.513
X337.363Y-126.187
X341.071Y-88.595
X343.256Y-156.007
T2
X93.821Y-147.479
X100.171Y-144.939
X229.552Y-90.33
X235.903Y-87.79
X72.39Y-147.447
X78.74Y-144.907
X139.065Y-109.38
X145.415Y-106.84
X67.627Y-71.279
X73.977Y-68.739
X272.415Y-109.38
X278.765Y-106.84
X117.634Y-147.479
X123.984Y-144.939
X181.927Y-71.28
X188.278Y-68.74
X134.302Y-90.33
X140.653Y-87.79
X205.74Y-128.43
X212.09Y-125.89
X281.94Y-128.43
X288.29Y-125.89
X243.84Y-128.43
X250.19Y-125.89
X334.327Y-71.279
X340.678Y-68.739
X124.777Y-71.28
X131.127Y-68.74
X100.965Y-147.447
X107.315Y-144.907
X158.115Y-109.38
X164.465Y-106.84
X70.01Y-109.38
X76.36Y-106.84
X86.677Y-71.279
X93.027Y-68.739
X281.94Y-147.479
X288.29Y-144.939
X324.803Y-71.28
X331.152Y-68.74
X96.203Y-90.33
X102.552Y-87.79
X115.252Y-90.33
X121.602Y-87.79
X148.59Y-128.43
X154.94Y-125.89
X224.79Y-128.43
X231.14Y-125.89
X110.49Y-128.43
X116.84Y-125.89
X329.565Y-147.479
X335.915Y-144.939
X177.165Y-109.38
X183.515Y-106.84
X191.452Y-90.33
X197.802Y-87.79
X100.965Y-109.38
X107.315Y-106.84
X310.515Y-109.38
X316.865Y-106.84
X143.827Y-71.28
X150.177Y-68.74
X315.277Y-71.279
X321.627Y-68.739
X70.009Y-147.479
X76.359Y-144.939
X331.946Y-147.479
X338.296Y-144.939
X220.028Y-71.28
X226.377Y-68.74
X291.465Y-109.38
X297.815Y-106.84
X129.54Y-128.43
X135.89Y-125.89
X234.315Y-109.38
X240.665Y-106.84
X172.403Y-90.33
X178.752Y-87.79
X96.266Y-147.447
X102.616Y-144.907
X120.015Y-109.38
X126.365Y-106.84
X286.702Y-90.33
X293.053Y-87.79
X305.752Y-147.479
X312.102Y-144.939
X258.127Y-71.28
X264.477Y-68.74
X70.01Y-128.43
X76.36Y-125.89
X277.178Y-71.28
X283.527Y-68.74
X296.227Y-71.28
X302.577Y-68.74
X284.321Y-147.479
X290.671Y-144.939
X253.365Y-109.38
X259.715Y-106.84
X167.64Y-128.43
X173.99Y-125.89
X79.534Y-128.429
X85.884Y-125.889
X153.352Y-90.33
X159.702Y-87.79
X181.927Y-147.479
X188.278Y-144.939
X210.502Y-90.33
X216.852Y-87.79
X329.565Y-90.329
X335.915Y-87.789
X300.99Y-128.429
X307.34Y-125.889
X200.977Y-147.48
X207.327Y-144.94
X317.66Y-128.43
X324.01Y-125.89
X308.134Y-147.479
X314.484Y-144.939
X305.752Y-90.33
X312.102Y-87.79
X186.69Y-128.43
X193.04Y-125.89
X248.602Y-90.33
X254.952Y-87.79
X105.727Y-71.28
X112.078Y-68.74
X334.327Y-128.429
X340.678Y-125.889
X267.652Y-90.33
X274.002Y-87.79
X91.44Y-128.43
X97.79Y-125.89
X308.134Y-128.429
X314.484Y-125.889
X120.015Y-147.447
X126.365Y-144.907
X72.39Y-90.33
X78.74Y-87.79
X260.509Y-147.479
X266.859Y-144.939
X262.89Y-128.43
X269.24Y-125.89
X239.077Y-71.28
X245.427Y-68.74
X74.773Y-109.38
X81.123Y-106.84
X162.877Y-71.28
X169.227Y-68.74
X196.215Y-109.38
X202.565Y-106.84
X331.946Y-109.379
X338.296Y-106.839
X215.265Y-109.38
X221.615Y-106.84
X327.184Y-128.429
X333.534Y-125.889
X262.89Y-147.479
X269.24Y-144.939
X286.702Y-147.479
X293.053Y-144.939
X200.977Y-71.28
X207.327Y-68.74
X189.071Y-147.479
X195.421Y-144.939
X322.421Y-109.379
X328.771Y-106.839
T4
X87.489Y-92.521
T3
X61.498Y-121.121G85X65.999Y-121.121
G05
X251.538Y-149.821G85X254.04Y-149.821
G05
X343.581Y-121.121G85X348.082Y-121.121
G05
X321.089Y-92.521G85X323.591Y-92.521
G05
X189.239Y-111.62G85X191.741Y-111.62
G05
T0
M30
