M48
; DRILL file {KiCad (5.1.0)-1} date 2019/4/14 3:09:03
; FORMAT={-:-/ absolute / inch / decimal}
; #@! TF.CreationDate,2019-04-14T03:09:03+08:00
; #@! TF.GenerationSoftware,Kicad,Pcbnew,(5.1.0)-1
; #@! TF.FileFunction,Plated,1,2,PTH
FMAT,2
INCH
T1C0.0157
T2C0.0236
T3C0.0590
T4C0.0984
T5C0.0984
%
G90
G05
T1
X2.5118Y-4.1897
X2.553Y-2.7965
X2.5568Y-4.5368
X2.562Y-3.697
X2.5759Y-5.0794
X2.5759Y-5.6779
X2.5774Y-2.6605
X2.5889Y-5.3538
X2.643Y-3.242
X2.663Y-3.356
X2.6976Y-3.9924
X2.707Y-3.689
X2.7599Y-5.307
X2.794Y-4.017
X2.8022Y-4.4717
X2.8135Y-5.1572
X2.823Y-3.235
X2.8719Y-4.1692
X2.885Y-4.075
X2.94Y-3.338
X3.0268Y-5.2429
X3.062Y-4.7899
X3.064Y-3.942
X3.0652Y-4.9182
X3.1334Y-3.5808
X3.1506Y-5.7391
X3.1844Y-2.5974
X3.19Y-4.075
X3.1909Y-4.7809
X3.198Y-4.693
X3.2273Y-3.4883
X3.2561Y-5.5004
X3.287Y-4.116
X3.2956Y-6.1265
X3.3007Y-5.5709
X3.313Y-3.002
X3.3185Y-3.4631
X3.322Y-5.4257
X3.3816Y-5.9368
X3.407Y-2.978
X3.4094Y-6.0759
X3.413Y-5.792
X3.4492Y-4.6288
X3.4567Y-5.0572
X3.466Y-4.1455
X3.5038Y-4.9133
X3.5072Y-5.7245
X3.5185Y-4.066
X3.5197Y-5.8602
X3.5998Y-4.1921
X3.603Y-4.413
X3.6339Y-3.1224
X3.6574Y-5.0071
X3.695Y-4.017
X3.7313Y-3.4626
X3.749Y-3.299
X3.769Y-4.671
X3.773Y-5.136
X3.8059Y-2.6731
X3.8214Y-4.292
X3.84Y-4.111
X3.8706Y-4.292
X3.8728Y-5.556
X3.889Y-3.305
X3.8975Y-4.066
X3.9409Y-2.8785
X3.96Y-4.8345
X3.9616Y-2.6719
X3.9665Y-4.0665
X3.9723Y-5.5436
X3.9995Y-5.302
X4.0013Y-5.605
X4.0036Y-2.8203
X4.0198Y-4.9677
X4.0255Y-5.36
X4.06Y-5.753
X4.0795Y-4.8355
X4.08Y-5.289
X4.1126Y-5.4272
X4.1287Y-3.3543
X4.129Y-4.935
X4.1336Y-3.5338
X4.1752Y-5.7304
X4.179Y-5.113
X4.184Y-3.442
X4.2024Y-5.6135
X4.2051Y-5.4734
X4.215Y-4.712
X4.2241Y-6.0213
X4.2666Y-6.1697
X4.2759Y-5.6083
X4.283Y-4.071
X4.296Y-4.9369
X4.2997Y-4.8002
X4.312Y-4.287
X4.3185Y-4.017
X4.34Y-3.6574
X4.352Y-3.245
X4.3533Y-5.7333
X4.3755Y-5.2142
X4.3878Y-3.9744
X4.388Y-3.342
X4.3968Y-5.4785
X4.4019Y-5.6132
X4.41Y-4.096
X4.4256Y-4.3181
X4.438Y-5.7795
X4.455Y-3.373
X4.4836Y-5.871
X4.4892Y-4.3293
X4.4975Y-5.4741
X4.5088Y-3.9617
X4.5092Y-3.4843
X4.5363Y-4.5268
X4.5645Y-5.4355
X4.575Y-4.458
X4.5809Y-5.7333
X4.5819Y-2.6731
X4.5989Y-4.3087
X4.6545Y-5.9646
X4.6757Y-4.2349
X4.678Y-4.959
X4.6996Y-2.8717
X4.7035Y-4.083
X4.7244Y-4.7976
X4.7473Y-4.3426
X4.796Y-3.913
X4.8073Y-2.7742
X4.815Y-3.247
X4.8275Y-4.7995
X4.828Y-4.964
X4.8375Y-5.119
X4.8778Y-5.3294
X4.9164Y-4.9535
X4.9173Y-5.1297
X4.945Y-3.305
X4.9475Y-4.715
X4.9705Y-3.4694
X4.9915Y-5.4761
X5.0289Y-4.6511
X5.0307Y-5.6721
X5.0449Y-5.7563
X5.0519Y-5.4248
X5.0635Y-6.0537
X5.0658Y-3.8873
X5.0673Y-4.8145
X5.069Y-4.232
X5.0815Y-3.3985
X5.1053Y-5.2432
X5.1116Y-5.7201
X5.1165Y-3.5086
X5.1266Y-6.0414
X5.139Y-4.102
X5.1458Y-6.1559
X5.1565Y-3.405
X5.2032Y-5.5421
X5.2183Y-4.3483
X5.2639Y-3.4349
X5.2703Y-5.8173
X5.2742Y-5.3176
X5.2812Y-5.675
X5.2816Y-4.5013
X5.2902Y-5.9435
X5.3063Y-6.0887
X5.3329Y-5.3778
X5.3528Y-5.9655
X5.3606Y-2.6693
X5.3716Y-4.3158
X5.3773Y-5.1041
X5.38Y-3.302
X5.3862Y-5.8322
X5.3966Y-4.4947
X5.4094Y-5.9586
X5.4258Y-3.9466
X5.4302Y-4.208
X5.45Y-4.7284
X5.455Y-4.956
X5.4714Y-5.6054
X5.4726Y-5.9644
X5.5071Y-2.7694
X5.508Y-4.017
X5.5125Y-6.0635
X5.544Y-3.9175
X5.5604Y-5.2314
X5.565Y-3.247
X5.569Y-5.081
X5.6149Y-6.0381
X5.6273Y-3.5075
X5.6285Y-4.812
X5.633Y-4.063
X5.639Y-3.35
X5.6435Y-5.7137
X5.6518Y-5.9074
X5.663Y-5.2794
X5.7095Y-4.6945
X5.711Y-5.095
X5.7377Y-3.6381
X5.7468Y-5.8886
X5.76Y-5.973
X5.7623Y-5.7812
X5.7635Y-4.8089
X5.7768Y-5.8405
X5.7967Y-5.7383
X5.7967Y-5.5667
X5.8045Y-5.8871
X5.8067Y-5.5089
X5.8082Y-4.232
X5.809Y-3.3365
X5.8124Y-6.0937
X5.8504Y-5.9835
X5.8692Y-4.827
X5.8699Y-5.8952
X5.879Y-5.21
X5.9291Y-3.5862
X5.9307Y-4.3985
X5.9508Y-5.7485
X5.968Y-3.366
X5.979Y-4.0912
X5.9901Y-5.4864
X6.007Y-3.4702
X6.0249Y-5.4516
X6.0259Y-5.762
X6.0276Y-4.017
X6.034Y-5.8939
X6.0568Y-5.3049
X6.0867Y-6.1088
X6.0993Y-5.3985
X6.1165Y-2.6704
X6.1242Y-5.4732
X6.1271Y-5.6118
X6.1784Y-4.2935
X6.1916Y-4.9833
X6.1943Y-5.4251
X6.2315Y-3.8965
X6.25Y-6.1745
X6.2574Y-4.9119
X6.2601Y-2.7634
X6.2703Y-2.8513
X6.2812Y-5.9074
X6.308Y-3.247
X6.3108Y-5.5537
X6.3137Y-5.8331
X6.3327Y-5.2039
X6.3526Y-5.9286
X6.372Y-5.7972
X6.3731Y-6.1685
X6.3976Y-5.5452
X6.3992Y-5.9422
X6.4042Y-5.2048
X6.4194Y-5.7994
X6.42Y-4.915
X6.446Y-6.151
X6.4556Y-5.2949
X6.465Y-3.302
X6.4754Y-5.4782
X6.4759Y-3.5008
X6.4785Y-4.977
X6.5252Y-5.558
X6.5646Y-6.0872
X6.5721Y-3.4239
X6.5776Y-6.1961
X6.5881Y-3.6223
X6.5983Y-5.5505
X6.6073Y-5.6081
X6.6165Y-4.129
X6.654Y-3.4095
X6.6675Y-4.304
X6.681Y-4.017
X6.7475Y-3.5068
X6.7498Y-4.1267
X6.813Y-5.3855
X6.8382Y-4.8112
X6.843Y-4.121
X6.8525Y-2.6592
X6.8855Y-5.0969
X6.8896Y-5.7599
X6.8955Y-5.5472
X6.9044Y-4.7903
X6.907Y-3.302
X6.9101Y-5.4328
X6.9221Y-6.0645
X6.9292Y-5.6754
X6.968Y-4.928
X6.9831Y-5.7802
X6.9852Y-4.7484
X6.9987Y-5.6697
X7.0399Y-2.7335
X7.0425Y-3.938
X7.044Y-6.191
X7.049Y-4.794
X7.068Y-3.247
X7.079Y-5.085
X7.0936Y-6.1399
X7.1037Y-2.7715
X7.1197Y-5.4141
X7.1313Y-6.1023
X7.14Y-5.3414
X7.1677Y-5.6763
X7.1698Y-5.8386
X7.1744Y-5.2755
X7.1792Y-3.5173
X7.1872Y-5.9426
X7.1896Y-5.1751
X7.208Y-4.724
X7.209Y-3.374
X7.212Y-5.094
X7.2253Y-6.1945
X7.2535Y-6.1244
X7.2662Y-5.741
X7.2793Y-5.9372
X7.2816Y-5.4688
X7.2917Y-4.7946
X7.308Y-3.3515
X7.3103Y-5.2938
X7.3778Y-5.7243
X7.4228Y-5.6732
X7.4301Y-5.4827
X7.439Y-4.017
X7.473Y-3.367
X7.5223Y-3.4886
X7.5485Y-5.4475
X7.5621Y-4.7484
X7.6019Y-2.6667
X7.6553Y-6.1078
X7.6774Y-4.2334
X7.7144Y-5.0034
X7.7268Y-5.853
X7.7395Y-3.9535
X7.751Y-4.921
X7.7842Y-4.7445
X7.8002Y-5.1297
X7.807Y-2.8166
X7.815Y-3.247
X7.8183Y-2.7493
X7.8515Y-5.363
X7.8707Y-5.2728
X7.901Y-3.302
X7.9017Y-5.493
X7.9167Y-5.7652
X7.932Y-5.0035
X7.9465Y-3.5051
X7.9535Y-4.9035
X7.958Y-4.725
X7.97Y-6.035
X7.988Y-5.4828
X8.0007Y-5.4075
X8.0108Y-5.9275
X8.0187Y-6.1943
X8.0316Y-4.7903
X8.0682Y-5.6074
X8.1264Y-5.2163
X8.1294Y-4.2895
X8.1298Y-3.4013
X8.1357Y-6.1881
X8.1589Y-5.6117
X8.1895Y-4.1525
X8.1959Y-5.7162
X8.198Y-4.017
X8.2169Y-5.8369
X8.2201Y-5.5713
X8.2307Y-3.5045
X8.2895Y-5.9314
X8.3235Y-5.4837
X8.3423Y-5.3919
X8.3682Y-2.6689
X8.3955Y-3.3095
X8.396Y-4.7908
X8.4294Y-5.7419
X8.45Y-5.049
X8.4534Y-3.961
X8.4686Y-4.9264
X8.4994Y-5.7781
X8.5082Y-5.8398
X8.5083Y-5.7075
X8.5195Y-5.4942
X8.5453Y-5.5906
X8.5686Y-4.7869
X8.573Y-3.247
X8.5841Y-5.81
X8.5944Y-5.8853
X8.5982Y-5.5483
X8.6151Y-5.6122
X8.636Y-3.355
X8.6453Y-5.76
X8.6501Y-3.5165
X8.6818Y-5.2154
X8.7202Y-5.7475
X8.722Y-5.061
X8.7419Y-5.4538
X8.8319Y-4.155
X8.8325Y-4.7915
X8.8516Y-4.2986
X8.8528Y-5.6056
X8.8586Y-5.669
X8.8637Y-5.9746
X8.8948Y-5.9182
X8.9089Y-3.3541
X8.9401Y-5.8328
X8.95Y-4.017
X8.9626Y-5.7501
X8.9827Y-5.5407
X9.0005Y-6.0977
X9.0098Y-5.9892
X9.0118Y-3.353
X9.012Y-5.8873
X9.0326Y-5.6516
X9.0452Y-2.7843
X9.0476Y-5.4653
X9.0693Y-5.5545
X9.0849Y-6.0384
X9.0954Y-2.6689
X9.1151Y-5.4063
X9.1241Y-5.6539
X9.1341Y-6.1356
X9.1485Y-4.7476
X9.223Y-5.643
X9.227Y-3.247
X9.233Y-4.925
X9.2931Y-4.9969
X9.3025Y-2.7833
X9.3036Y-5.9412
X9.3102Y-3.935
X9.347Y-5.834
X9.372Y-4.7787
X9.3744Y-6.1307
X9.3815Y-6.0604
X9.4097Y-5.6171
X9.4116Y-3.4966
X9.426Y-3.303
X9.4286Y-5.1895
X9.44Y-5.7675
X9.45Y-5.848
X9.4613Y-4.9294
X9.4925Y-4.7217
X9.5211Y-6.0267
X9.5395Y-4.9761
X9.548Y-3.413
X9.5664Y-3.63
X9.5848Y-5.8059
X9.5909Y-3.7621
X9.606Y-4.1534
X9.635Y-3.412
X9.6458Y-6.0298
X9.6664Y-5.763
X9.6667Y-4.3022
X9.705Y-4.017
X9.7388Y-5.5202
X9.7542Y-5.8401
X9.7811Y-5.4079
X9.7965Y-2.7909
X9.7971Y-5.5361
X9.7985Y-4.7448
X9.8253Y-5.6551
X9.8533Y-5.4633
X9.8574Y-2.6823
X9.887Y-3.304
X9.92Y-4.983
X9.931Y-4.795
X9.994Y-4.82
X10.0095Y-6.1492
X10.023Y-5.6598
X10.0353Y-2.7854
X10.06Y-3.943
X10.065Y-3.247
X10.1226Y-5.0584
X10.1659Y-5.7914
X10.1877Y-5.5693
X10.191Y-3.421
X10.1988Y-5.2404
X10.2031Y-4.8219
X10.2072Y-5.4813
X10.2082Y-4.6971
X10.32Y-3.349
X10.331Y-4.8452
X10.3361Y-3.8045
X10.3733Y-4.1299
X10.3733Y-4.2895
X10.3961Y-5.5447
X10.437Y-4.017
X10.4475Y-3.373
X10.465Y-5.4908
X10.5Y-3.341
X10.524Y-2.7735
X10.5399Y-5.8429
X10.546Y-5.335
X10.5656Y-5.4904
X10.5948Y-2.6655
X10.628Y-5.677
X10.6887Y-5.738
X10.6895Y-4.7696
X10.691Y-4.959
X10.7365Y-6.1569
X10.7964Y-2.7854
X10.804Y-3.94
X10.814Y-3.247
X10.825Y-5.678
X10.8284Y-5.0997
X10.839Y-4.7604
X10.859Y-6.0163
X10.922Y-5.9291
X10.9354Y-5.5781
X10.936Y-4.949
X10.9496Y-3.5007
X10.95Y-3.306
X10.9508Y-6.0475
X10.9662Y-5.7789
X10.9704Y-5.2118
X11.031Y-5.4644
X11.0399Y-5.9238
X11.0538Y-4.8862
X11.097Y-4.1201
X11.127Y-3.434
X11.1283Y-3.1364
X11.1371Y-5.738
X11.1863Y-4.3129
X11.194Y-4.017
X11.2601Y-3.481
X11.285Y-5.5664
X11.3675Y-5.4515
X11.381Y-3.314
X11.3819Y-5.0932
X11.4125Y-4.7596
X11.4468Y-4.99
X11.4706Y-2.6699
X11.5Y-4.939
X11.517Y-3.891
X11.556Y-5.718
X11.565Y-3.247
X11.5982Y-2.8061
X11.606Y-5.084
X11.6518Y-5.7273
X11.6557Y-5.8846
X11.6738Y-5.2616
X11.674Y-5.5319
X11.675Y-3.421
X11.7941Y-3.3883
X11.806Y-5.3145
X11.8193Y-6.0362
X11.823Y-5.709
X11.8258Y-5.9435
X11.8533Y-3.1315
X11.8715Y-5.5133
X11.876Y-3.316
X11.9186Y-5.8911
X11.943Y-4.017
X12.008Y-3.362
X12.0155Y-5.5709
X12.0254Y-5.7351
X12.0443Y-5.4047
X12.0537Y-4.1601
X12.0537Y-4.3433
X12.0631Y-2.6383
X12.0693Y-4.6775
X12.128Y-5.197
X12.136Y-5.088
X12.1798Y-4.3204
X12.183Y-2.671
X12.245Y-3.949
X12.2505Y-4.7823
X12.2633Y-4.5562
X12.297Y-3.304
X12.3238Y-2.6349
X12.3323Y-5.1338
X12.3521Y-2.8915
X12.362Y-4.944
X12.3731Y-5.2316
X12.3938Y-4.4363
X12.444Y-2.8581
X12.521Y-4.12
X12.562Y-2.978
X12.6068Y-2.8534
X12.6124Y-3.273
X12.6444Y-2.6293
X12.646Y-3.9053
X12.6549Y-4.7251
X12.6593Y-4.2346
X12.681Y-5.504
X12.7176Y-4.3369
X12.803Y-4.763
X12.81Y-5.772
X12.813Y-3.303
X12.85Y-4.9063
X12.859Y-4.016
X12.8658Y-3.4695
X12.926Y-3.2644
X12.9312Y-4.8722
X12.9994Y-3.1207
X13.0193Y-4.3023
X13.023Y-3.276
X13.1055Y-4.1185
X13.132Y-5.064
X13.1429Y-2.7704
X13.2054Y-2.6315
X13.2258Y-4.2669
X13.2322Y-3.9902
X13.2467Y-3.8809
X13.2695Y-4.4083
X13.286Y-4.991
X13.3388Y-5.3215
X13.382Y-3.54
X13.3885Y-4.2734
X13.4284Y-4.9577
X13.443Y-5.316
X13.4512Y-4.5802
X13.4854Y-3.3953
X13.4929Y-2.8214
X13.504Y-5.475
X13.567Y-3.127
X13.6043Y-4.0874
T3
X4.775Y-4.6063
X5.025Y-4.5063
X11.7125Y-3.1063
X11.9625Y-3.0063
X12.7438Y-4.6063
X12.9938Y-4.5062
X3.1812Y-5.3563
X3.4312Y-5.2562
X7.9625Y-3.1063
X8.2125Y-3.0063
X8.525Y-4.6063
X8.775Y-4.5063
X3.7437Y-6.1063
X3.9937Y-6.0062
X4.9625Y-3.1063
X5.2125Y-3.0063
X9.65Y-5.3563
X9.9Y-5.2563
X7.5875Y-3.8563
X7.8375Y-3.7563
X10.2125Y-3.1063
X10.4625Y-3.0063
X12.5563Y-5.3563
X12.8063Y-5.2563
X9.8375Y-3.8563
X10.0875Y-3.7563
X12.1813Y-6.1063
X12.4313Y-6.0062
X8.15Y-5.3563
X8.4Y-5.2563
X8.3375Y-3.8563
X8.5875Y-3.7563
X11.2438Y-6.1063
X11.4938Y-6.0062
X8.9Y-5.3563
X9.15Y-5.2563
X12.0875Y-3.8563
X12.3375Y-3.7563
X3.8375Y-3.8563
X4.0875Y-3.7563
X3.4625Y-3.1062
X3.7125Y-3.0063
X4.025Y-4.6063
X4.275Y-4.5063
X12.8375Y-3.1063
X13.0875Y-3.0063
X5.9Y-5.3563
X6.15Y-5.2563
X4.6812Y-6.1063
X4.9312Y-6.0062
X6.4625Y-3.1063
X6.7125Y-3.0063
X10.775Y-4.6063
X11.025Y-4.5063
X4.4Y-5.3563
X4.65Y-5.2563
X7.2125Y-3.1063
X7.4625Y-3.0063
X7.775Y-4.6063
X8.025Y-4.5063
X10.9625Y-3.1063
X11.2125Y-3.0063
X7.025Y-4.6063
X7.275Y-4.5063
X9.0875Y-3.8563
X9.3375Y-3.7563
X13.1188Y-6.1063
X13.3688Y-6.0062
X11.15Y-5.3563
X11.4Y-5.2563
X2.9Y-3.8563
X3.15Y-3.7563
X11.525Y-4.6063
X11.775Y-4.5063
X5.3375Y-3.8563
X5.5875Y-3.7563
X7.4937Y-6.1063
X7.7437Y-6.0062
X11.3375Y-3.8563
X11.5875Y-3.7563
X4.5875Y-3.8563
X4.8375Y-3.7563
X2.7125Y-3.1062
X2.9625Y-3.0063
X6.8375Y-3.8563
X7.0875Y-3.7563
X9.4625Y-3.1063
X9.7125Y-3.0063
X7.4Y-5.3563
X7.65Y-5.2563
X2.8062Y-6.1063
X3.0562Y-6.0062
X8.7125Y-3.1063
X8.9625Y-3.0063
X9.275Y-4.6063
X9.525Y-4.5063
X5.15Y-5.3563
X5.4Y-5.2563
X4.2125Y-3.1063
X4.4625Y-3.0063
X6.275Y-4.6063
X6.525Y-4.5063
X10.3063Y-6.1063
X10.5563Y-6.0062
X5.7125Y-3.1063
X5.9625Y-3.0063
X10.4Y-5.3563
X10.65Y-5.2563
X6.0875Y-3.8563
X6.3375Y-3.7563
X6.65Y-5.3563
X6.9Y-5.2563
X2.9938Y-4.6063
X3.2438Y-4.5063
X10.025Y-4.6063
X10.275Y-4.5063
X10.5875Y-3.8563
X10.8375Y-3.7563
X13.025Y-3.8562
X13.275Y-3.7563
X5.525Y-4.6063
X5.775Y-4.5063
T5
X3.4445Y-3.6426
T2
G00X3.0204Y-2.5716
M15
G01X3.0204Y-2.5952
M16
G05
G00X3.0204Y-2.7263
M15
G01X3.0204Y-2.7696
M16
G05
G00X3.3606Y-2.5716
M15
G01X3.3606Y-2.5952
M16
G05
G00X3.3606Y-2.7263
M15
G01X3.3606Y-2.7696
M16
G05
T4
G00X2.4212Y-4.7686
M15
G01X2.5984Y-4.7686
M16
G05
G00X12.6413Y-3.6426
M15
G01X12.7398Y-3.6426
M16
G05
G00X7.4504Y-4.3945
M15
G01X7.5489Y-4.3945
M16
G05
G00X13.5268Y-4.7686
M15
G01X13.704Y-4.7686
M16
G05
G00X9.9031Y-5.8985
M15
G01X10.0016Y-5.8985
M16
G05
T0
M30
