G04 #@! TF.GenerationSoftware,KiCad,Pcbnew,(5.0.2)-1*
G04 #@! TF.CreationDate,2019-02-06T17:14:16+08:00*
G04 #@! TF.ProjectId,keyboard,6b657962-6f61-4726-942e-6b696361645f,B*
G04 #@! TF.SameCoordinates,Original*
G04 #@! TF.FileFunction,Legend,Top*
G04 #@! TF.FilePolarity,Positive*
%FSLAX45Y45*%
G04 Gerber Fmt 4.5, Leading zero omitted, Abs format (unit mm)*
G04 Created by KiCad (PCBNEW (5.0.2)-1) date 2019/2/6 17:14:16*
%MOMM*%
%LPD*%
G01*
G04 APERTURE LIST*
%ADD10C,0.381000*%
%ADD11C,0.120000*%
%ADD12C,0.150000*%
%ADD13C,4.183380*%
%ADD14C,2.702560*%
%ADD15C,1.902460*%
%ADD16R,1.803200X1.053200*%
%ADD17C,3.251200*%
%ADD18C,4.183400*%
%ADD19O,10.203180X5.204460*%
%ADD20C,7.203440*%
%ADD21C,7.204500*%
G04 APERTURE END LIST*
D10*
G04 #@! TO.C,S031*
X6620002Y-10430002D02*
X8144002Y-10430002D01*
X8144002Y-10430002D02*
X8144002Y-11954002D01*
X8144002Y-11954002D02*
X6620002Y-11954002D01*
X6620002Y-11954002D02*
X6620002Y-10430002D01*
D11*
G04 #@! TO.C,*
X18872560Y-15765200D02*
X18872560Y-15657700D01*
X18282560Y-15765200D02*
X18872560Y-15765200D01*
X18282560Y-15375200D02*
X18872560Y-15375200D01*
D10*
G04 #@! TO.C,S21*
X14001750Y-6620002D02*
X15525750Y-6620002D01*
X15525750Y-6620002D02*
X15525750Y-8144002D01*
X15525750Y-8144002D02*
X14001750Y-8144002D01*
X14001750Y-8144002D02*
X14001750Y-6620002D01*
G04 #@! TO.C,S51*
X25431750Y-6620002D02*
X26955750Y-6620002D01*
X26955750Y-6620002D02*
X26955750Y-8144002D01*
X26955750Y-8144002D02*
X25431750Y-8144002D01*
X25431750Y-8144002D02*
X25431750Y-6620002D01*
G04 #@! TO.C,MXST*
X34394902Y-8448802D02*
X34394902Y-6581902D01*
X34394902Y-6581902D02*
X33709102Y-6581902D01*
X33709102Y-6581902D02*
X33709102Y-8448802D01*
X33709102Y-8448802D02*
X34394902Y-8448802D01*
X7486650Y-14163802D02*
X7486650Y-12296902D01*
X7486650Y-12296902D02*
X6800850Y-12296902D01*
X6800850Y-12296902D02*
X6800850Y-14163802D01*
X6800850Y-14163802D02*
X7486650Y-14163802D01*
X9867900Y-14163802D02*
X9867900Y-12296902D01*
X9867900Y-12296902D02*
X9182100Y-12296902D01*
X9182100Y-12296902D02*
X9182100Y-14163802D01*
X9182100Y-14163802D02*
X9867900Y-14163802D01*
X31299150Y-14163802D02*
X31299150Y-12296902D01*
X31299150Y-12296902D02*
X30613350Y-12296902D01*
X30613350Y-12296902D02*
X30613350Y-14163802D01*
X30613350Y-14163802D02*
X31299150Y-14163802D01*
X34156650Y-12258675D02*
X34156650Y-10391775D01*
X34156650Y-10391775D02*
X33470850Y-10391775D01*
X33470850Y-10391775D02*
X33470850Y-12258675D01*
X33470850Y-12258675D02*
X34156650Y-12258675D01*
X31775400Y-12258802D02*
X31775400Y-10391902D01*
X31775400Y-10391902D02*
X31089600Y-10391902D01*
X31089600Y-10391902D02*
X31089600Y-12258802D01*
X31089600Y-12258802D02*
X31775400Y-12258802D01*
X32013652Y-8448802D02*
X32013652Y-6581902D01*
X32013652Y-6581902D02*
X31327852Y-6581902D01*
X31327852Y-6581902D02*
X31327852Y-8448802D01*
X31327852Y-8448802D02*
X32013652Y-8448802D01*
X23945850Y-13935202D02*
X23945850Y-15802102D01*
X23945850Y-15802102D02*
X24631650Y-15802102D01*
X24631650Y-15802102D02*
X24631650Y-13935202D01*
X24631650Y-13935202D02*
X23945850Y-13935202D01*
X13944600Y-13935202D02*
X13944600Y-15802102D01*
X13944600Y-15802102D02*
X14630400Y-15802102D01*
X14630400Y-15802102D02*
X14630400Y-13935202D01*
X14630400Y-13935202D02*
X13944600Y-13935202D01*
X12515850Y-13935202D02*
X12515850Y-15802102D01*
X12515850Y-15802102D02*
X13201650Y-15802102D01*
X13201650Y-15802102D02*
X13201650Y-13935202D01*
X13201650Y-13935202D02*
X12515850Y-13935202D01*
X14420850Y-13935202D02*
X14420850Y-15802102D01*
X14420850Y-15802102D02*
X15106650Y-15802102D01*
X15106650Y-15802102D02*
X15106650Y-13935202D01*
X15106650Y-13935202D02*
X14420850Y-13935202D01*
X25850850Y-13935202D02*
X25850850Y-15802102D01*
X25850850Y-15802102D02*
X26536650Y-15802102D01*
X26536650Y-15802102D02*
X26536650Y-13935202D01*
X26536650Y-13935202D02*
X25850850Y-13935202D01*
X33680400Y-14163675D02*
X33680400Y-12296775D01*
X33680400Y-12296775D02*
X32994600Y-12296775D01*
X32994600Y-12296775D02*
X32994600Y-14163675D01*
X32994600Y-14163675D02*
X33680400Y-14163675D01*
G04 #@! TO.C,S03*
X7096252Y-10430002D02*
X8620252Y-10430002D01*
X8620252Y-10430002D02*
X8620252Y-11954002D01*
X8620252Y-11954002D02*
X7096252Y-11954002D01*
X7096252Y-11954002D02*
X7096252Y-10430002D01*
G04 #@! TO.C,S22*
X14954250Y-8525002D02*
X16478250Y-8525002D01*
X16478250Y-8525002D02*
X16478250Y-10049002D01*
X16478250Y-10049002D02*
X14954250Y-10049002D01*
X14954250Y-10049002D02*
X14954250Y-8525002D01*
G04 #@! TO.C,S27*
X16859250Y-8525002D02*
X18383250Y-8525002D01*
X18383250Y-8525002D02*
X18383250Y-10049002D01*
X18383250Y-10049002D02*
X16859250Y-10049002D01*
X16859250Y-10049002D02*
X16859250Y-8525002D01*
G04 #@! TO.C,S37*
X20669250Y-8525002D02*
X22193250Y-8525002D01*
X22193250Y-8525002D02*
X22193250Y-10049002D01*
X22193250Y-10049002D02*
X20669250Y-10049002D01*
X20669250Y-10049002D02*
X20669250Y-8525002D01*
G04 #@! TO.C,S42*
X22574250Y-8525002D02*
X24098250Y-8525002D01*
X24098250Y-8525002D02*
X24098250Y-10049002D01*
X24098250Y-10049002D02*
X22574250Y-10049002D01*
X22574250Y-10049002D02*
X22574250Y-8525002D01*
G04 #@! TO.C,S47*
X24479250Y-8525002D02*
X26003250Y-8525002D01*
X26003250Y-8525002D02*
X26003250Y-10049002D01*
X26003250Y-10049002D02*
X24479250Y-10049002D01*
X24479250Y-10049002D02*
X24479250Y-8525002D01*
G04 #@! TO.C,S52*
X26384250Y-8525002D02*
X27908250Y-8525002D01*
X27908250Y-8525002D02*
X27908250Y-10049002D01*
X27908250Y-10049002D02*
X26384250Y-10049002D01*
X26384250Y-10049002D02*
X26384250Y-8525002D01*
G04 #@! TO.C,S57*
X28289250Y-8525002D02*
X29813250Y-8525002D01*
X29813250Y-8525002D02*
X29813250Y-10049002D01*
X29813250Y-10049002D02*
X28289250Y-10049002D01*
X28289250Y-10049002D02*
X28289250Y-8525002D01*
G04 #@! TO.C,S67*
X32575500Y-8524875D02*
X34099500Y-8524875D01*
X34099500Y-8524875D02*
X34099500Y-10048875D01*
X34099500Y-10048875D02*
X32575500Y-10048875D01*
X32575500Y-10048875D02*
X32575500Y-8524875D01*
G04 #@! TO.C,S08*
X9715500Y-10430002D02*
X11239500Y-10430002D01*
X11239500Y-10430002D02*
X11239500Y-11954002D01*
X11239500Y-11954002D02*
X9715500Y-11954002D01*
X9715500Y-11954002D02*
X9715500Y-10430002D01*
G04 #@! TO.C,S13*
X11620500Y-10430002D02*
X13144500Y-10430002D01*
X13144500Y-10430002D02*
X13144500Y-11954002D01*
X13144500Y-11954002D02*
X11620500Y-11954002D01*
X11620500Y-11954002D02*
X11620500Y-10430002D01*
G04 #@! TO.C,S18*
X13525500Y-10430002D02*
X15049500Y-10430002D01*
X15049500Y-10430002D02*
X15049500Y-11954002D01*
X15049500Y-11954002D02*
X13525500Y-11954002D01*
X13525500Y-11954002D02*
X13525500Y-10430002D01*
G04 #@! TO.C,S23*
X15430500Y-10430002D02*
X16954500Y-10430002D01*
X16954500Y-10430002D02*
X16954500Y-11954002D01*
X16954500Y-11954002D02*
X15430500Y-11954002D01*
X15430500Y-11954002D02*
X15430500Y-10430002D01*
G04 #@! TO.C,S28*
X17335500Y-10430002D02*
X18859500Y-10430002D01*
X18859500Y-10430002D02*
X18859500Y-11954002D01*
X18859500Y-11954002D02*
X17335500Y-11954002D01*
X17335500Y-11954002D02*
X17335500Y-10430002D01*
G04 #@! TO.C,S33*
X19240500Y-10430002D02*
X20764500Y-10430002D01*
X20764500Y-10430002D02*
X20764500Y-11954002D01*
X20764500Y-11954002D02*
X19240500Y-11954002D01*
X19240500Y-11954002D02*
X19240500Y-10430002D01*
G04 #@! TO.C,S38*
X21145500Y-10430002D02*
X22669500Y-10430002D01*
X22669500Y-10430002D02*
X22669500Y-11954002D01*
X22669500Y-11954002D02*
X21145500Y-11954002D01*
X21145500Y-11954002D02*
X21145500Y-10430002D01*
G04 #@! TO.C,S11*
X10191750Y-6620002D02*
X11715750Y-6620002D01*
X11715750Y-6620002D02*
X11715750Y-8144002D01*
X11715750Y-8144002D02*
X10191750Y-8144002D01*
X10191750Y-8144002D02*
X10191750Y-6620002D01*
G04 #@! TO.C,S16*
X12096750Y-6620002D02*
X13620750Y-6620002D01*
X13620750Y-6620002D02*
X13620750Y-8144002D01*
X13620750Y-8144002D02*
X12096750Y-8144002D01*
X12096750Y-8144002D02*
X12096750Y-6620002D01*
G04 #@! TO.C,S26*
X15906750Y-6620002D02*
X17430750Y-6620002D01*
X17430750Y-6620002D02*
X17430750Y-8144002D01*
X17430750Y-8144002D02*
X15906750Y-8144002D01*
X15906750Y-8144002D02*
X15906750Y-6620002D01*
G04 #@! TO.C,S31*
X17811750Y-6620002D02*
X19335750Y-6620002D01*
X19335750Y-6620002D02*
X19335750Y-8144002D01*
X19335750Y-8144002D02*
X17811750Y-8144002D01*
X17811750Y-8144002D02*
X17811750Y-6620002D01*
G04 #@! TO.C,S36*
X19716750Y-6620002D02*
X21240750Y-6620002D01*
X21240750Y-6620002D02*
X21240750Y-8144002D01*
X21240750Y-8144002D02*
X19716750Y-8144002D01*
X19716750Y-8144002D02*
X19716750Y-6620002D01*
G04 #@! TO.C,S41*
X21621750Y-6620002D02*
X23145750Y-6620002D01*
X23145750Y-6620002D02*
X23145750Y-8144002D01*
X23145750Y-8144002D02*
X21621750Y-8144002D01*
X21621750Y-8144002D02*
X21621750Y-6620002D01*
G04 #@! TO.C,S56*
X27336750Y-6620002D02*
X28860750Y-6620002D01*
X28860750Y-6620002D02*
X28860750Y-8144002D01*
X28860750Y-8144002D02*
X27336750Y-8144002D01*
X27336750Y-8144002D02*
X27336750Y-6620002D01*
G04 #@! TO.C,S61*
X29241750Y-6620002D02*
X30765750Y-6620002D01*
X30765750Y-6620002D02*
X30765750Y-8144002D01*
X30765750Y-8144002D02*
X29241750Y-8144002D01*
X29241750Y-8144002D02*
X29241750Y-6620002D01*
G04 #@! TO.C,S66*
X32099250Y-6620002D02*
X33623250Y-6620002D01*
X33623250Y-6620002D02*
X33623250Y-8144002D01*
X33623250Y-8144002D02*
X32099250Y-8144002D01*
X32099250Y-8144002D02*
X32099250Y-6620002D01*
G04 #@! TO.C,S02*
X6858000Y-8525002D02*
X8382000Y-8525002D01*
X8382000Y-8525002D02*
X8382000Y-10049002D01*
X8382000Y-10049002D02*
X6858000Y-10049002D01*
X6858000Y-10049002D02*
X6858000Y-8525002D01*
G04 #@! TO.C,S07*
X9239250Y-8525002D02*
X10763250Y-8525002D01*
X10763250Y-8525002D02*
X10763250Y-10049002D01*
X10763250Y-10049002D02*
X9239250Y-10049002D01*
X9239250Y-10049002D02*
X9239250Y-8525002D01*
G04 #@! TO.C,S12*
X11144250Y-8525002D02*
X12668250Y-8525002D01*
X12668250Y-8525002D02*
X12668250Y-10049002D01*
X12668250Y-10049002D02*
X11144250Y-10049002D01*
X11144250Y-10049002D02*
X11144250Y-8525002D01*
G04 #@! TO.C,S17*
X13049250Y-8525002D02*
X14573250Y-8525002D01*
X14573250Y-8525002D02*
X14573250Y-10049002D01*
X14573250Y-10049002D02*
X13049250Y-10049002D01*
X13049250Y-10049002D02*
X13049250Y-8525002D01*
G04 #@! TO.C,S69*
X31385002Y-12335002D02*
X32909002Y-12335002D01*
X32909002Y-12335002D02*
X32909002Y-13859002D01*
X32909002Y-13859002D02*
X31385002Y-13859002D01*
X31385002Y-13859002D02*
X31385002Y-12335002D01*
G04 #@! TO.C,S05*
X6619875Y-14239875D02*
X8143875Y-14239875D01*
X8143875Y-14239875D02*
X8143875Y-15763875D01*
X8143875Y-15763875D02*
X6619875Y-15763875D01*
X6619875Y-15763875D02*
X6619875Y-14239875D01*
G04 #@! TO.C,S15*
X11382375Y-14239875D02*
X12906375Y-14239875D01*
X12906375Y-14239875D02*
X12906375Y-15763875D01*
X12906375Y-15763875D02*
X11382375Y-15763875D01*
X11382375Y-15763875D02*
X11382375Y-14239875D01*
G04 #@! TO.C,S30*
X18526125Y-14239875D02*
X20050125Y-14239875D01*
X20050125Y-14239875D02*
X20050125Y-15763875D01*
X20050125Y-15763875D02*
X18526125Y-15763875D01*
X18526125Y-15763875D02*
X18526125Y-14239875D01*
G04 #@! TO.C,S55*
X25669875Y-14239875D02*
X27193875Y-14239875D01*
X27193875Y-14239875D02*
X27193875Y-15763875D01*
X27193875Y-15763875D02*
X25669875Y-15763875D01*
X25669875Y-15763875D02*
X25669875Y-14239875D01*
G04 #@! TO.C,S60*
X28051125Y-14239875D02*
X29575125Y-14239875D01*
X29575125Y-14239875D02*
X29575125Y-15763875D01*
X29575125Y-15763875D02*
X28051125Y-15763875D01*
X28051125Y-15763875D02*
X28051125Y-14239875D01*
G04 #@! TO.C,S65*
X30432375Y-14239875D02*
X31956375Y-14239875D01*
X31956375Y-14239875D02*
X31956375Y-15763875D01*
X31956375Y-15763875D02*
X30432375Y-15763875D01*
X30432375Y-15763875D02*
X30432375Y-14239875D01*
G04 #@! TO.C,S70*
X32813625Y-14239875D02*
X34337625Y-14239875D01*
X34337625Y-14239875D02*
X34337625Y-15763875D01*
X34337625Y-15763875D02*
X32813625Y-15763875D01*
X32813625Y-15763875D02*
X32813625Y-14239875D01*
G04 #@! TO.C,S43*
X23050500Y-10430002D02*
X24574500Y-10430002D01*
X24574500Y-10430002D02*
X24574500Y-11954002D01*
X24574500Y-11954002D02*
X23050500Y-11954002D01*
X23050500Y-11954002D02*
X23050500Y-10430002D01*
G04 #@! TO.C,S48*
X24955500Y-10430002D02*
X26479500Y-10430002D01*
X26479500Y-10430002D02*
X26479500Y-11954002D01*
X26479500Y-11954002D02*
X24955500Y-11954002D01*
X24955500Y-11954002D02*
X24955500Y-10430002D01*
G04 #@! TO.C,S58*
X28765500Y-10430002D02*
X30289500Y-10430002D01*
X30289500Y-10430002D02*
X30289500Y-11954002D01*
X30289500Y-11954002D02*
X28765500Y-11954002D01*
X28765500Y-11954002D02*
X28765500Y-10430002D01*
G04 #@! TO.C,S68*
X31861125Y-10429875D02*
X33385125Y-10429875D01*
X33385125Y-10429875D02*
X33385125Y-11953875D01*
X33385125Y-11953875D02*
X31861125Y-11953875D01*
X31861125Y-11953875D02*
X31861125Y-10429875D01*
G04 #@! TO.C,S04*
X7572375Y-12334875D02*
X9096375Y-12334875D01*
X9096375Y-12334875D02*
X9096375Y-13858875D01*
X9096375Y-13858875D02*
X7572375Y-13858875D01*
X7572375Y-13858875D02*
X7572375Y-12334875D01*
G04 #@! TO.C,S14*
X10668000Y-12335002D02*
X12192000Y-12335002D01*
X12192000Y-12335002D02*
X12192000Y-13859002D01*
X12192000Y-13859002D02*
X10668000Y-13859002D01*
X10668000Y-13859002D02*
X10668000Y-12335002D01*
G04 #@! TO.C,S19*
X12573000Y-12335002D02*
X14097000Y-12335002D01*
X14097000Y-12335002D02*
X14097000Y-13859002D01*
X14097000Y-13859002D02*
X12573000Y-13859002D01*
X12573000Y-13859002D02*
X12573000Y-12335002D01*
G04 #@! TO.C,S29*
X16383000Y-12335002D02*
X17907000Y-12335002D01*
X17907000Y-12335002D02*
X17907000Y-13859002D01*
X17907000Y-13859002D02*
X16383000Y-13859002D01*
X16383000Y-13859002D02*
X16383000Y-12335002D01*
G04 #@! TO.C,S34*
X18288000Y-12335002D02*
X19812000Y-12335002D01*
X19812000Y-12335002D02*
X19812000Y-13859002D01*
X19812000Y-13859002D02*
X18288000Y-13859002D01*
X18288000Y-13859002D02*
X18288000Y-12335002D01*
G04 #@! TO.C,S39*
X20193000Y-12335002D02*
X21717000Y-12335002D01*
X21717000Y-12335002D02*
X21717000Y-13859002D01*
X21717000Y-13859002D02*
X20193000Y-13859002D01*
X20193000Y-13859002D02*
X20193000Y-12335002D01*
G04 #@! TO.C,S44*
X22098000Y-12335002D02*
X23622000Y-12335002D01*
X23622000Y-12335002D02*
X23622000Y-13859002D01*
X23622000Y-13859002D02*
X22098000Y-13859002D01*
X22098000Y-13859002D02*
X22098000Y-12335002D01*
G04 #@! TO.C,S49*
X24003000Y-12335002D02*
X25527000Y-12335002D01*
X25527000Y-12335002D02*
X25527000Y-13859002D01*
X25527000Y-13859002D02*
X24003000Y-13859002D01*
X24003000Y-13859002D02*
X24003000Y-12335002D01*
G04 #@! TO.C,S54*
X25908000Y-12335002D02*
X27432000Y-12335002D01*
X27432000Y-12335002D02*
X27432000Y-13859002D01*
X27432000Y-13859002D02*
X25908000Y-13859002D01*
X25908000Y-13859002D02*
X25908000Y-12335002D01*
G04 #@! TO.C,S59*
X27813000Y-12335002D02*
X29337000Y-12335002D01*
X29337000Y-12335002D02*
X29337000Y-13859002D01*
X29337000Y-13859002D02*
X27813000Y-13859002D01*
X27813000Y-13859002D02*
X27813000Y-12335002D01*
G04 #@! TO.C,S10*
X9001125Y-14239875D02*
X10525125Y-14239875D01*
X10525125Y-14239875D02*
X10525125Y-15763875D01*
X10525125Y-15763875D02*
X9001125Y-15763875D01*
X9001125Y-15763875D02*
X9001125Y-14239875D01*
G04 #@! TO.C,S24*
X14478000Y-12335002D02*
X16002000Y-12335002D01*
X16002000Y-12335002D02*
X16002000Y-13859002D01*
X16002000Y-13859002D02*
X14478000Y-13859002D01*
X14478000Y-13859002D02*
X14478000Y-12335002D01*
G04 #@! TO.C,S46*
X23526750Y-6620002D02*
X25050750Y-6620002D01*
X25050750Y-6620002D02*
X25050750Y-8144002D01*
X25050750Y-8144002D02*
X23526750Y-8144002D01*
X23526750Y-8144002D02*
X23526750Y-6620002D01*
G04 #@! TO.C,S62*
X30194250Y-8525002D02*
X31718250Y-8525002D01*
X31718250Y-8525002D02*
X31718250Y-10049002D01*
X31718250Y-10049002D02*
X30194250Y-10049002D01*
X30194250Y-10049002D02*
X30194250Y-8525002D01*
G04 #@! TO.C,S32*
X18764250Y-8525002D02*
X20288250Y-8525002D01*
X20288250Y-8525002D02*
X20288250Y-10049002D01*
X20288250Y-10049002D02*
X18764250Y-10049002D01*
X18764250Y-10049002D02*
X18764250Y-8525002D01*
G04 #@! TO.C,S53*
X26860500Y-10430002D02*
X28384500Y-10430002D01*
X28384500Y-10430002D02*
X28384500Y-11954002D01*
X28384500Y-11954002D02*
X26860500Y-11954002D01*
X26860500Y-11954002D02*
X26860500Y-10430002D01*
G04 #@! TO.C,S682*
X32813625Y-10429875D02*
X34337625Y-10429875D01*
X34337625Y-10429875D02*
X34337625Y-11953875D01*
X34337625Y-11953875D02*
X32813625Y-11953875D01*
X32813625Y-11953875D02*
X32813625Y-10429875D01*
G04 #@! TO.C,S601*
X27813000Y-14239875D02*
X29337000Y-14239875D01*
X29337000Y-14239875D02*
X29337000Y-15763875D01*
X29337000Y-15763875D02*
X27813000Y-15763875D01*
X27813000Y-15763875D02*
X27813000Y-14239875D01*
G04 #@! TO.C,S09*
X8763000Y-12335002D02*
X10287000Y-12335002D01*
X10287000Y-12335002D02*
X10287000Y-13859002D01*
X10287000Y-13859002D02*
X8763000Y-13859002D01*
X8763000Y-13859002D02*
X8763000Y-12335002D01*
G04 #@! TO.C,S641*
X33051750Y-12334875D02*
X34575750Y-12334875D01*
X34575750Y-12334875D02*
X34575750Y-13858875D01*
X34575750Y-13858875D02*
X33051750Y-13858875D01*
X33051750Y-13858875D02*
X33051750Y-12334875D01*
G04 #@! TO.C,S0512*
X6858000Y-14236700D02*
X8382000Y-14236700D01*
X8382000Y-14236700D02*
X8382000Y-15760700D01*
X8382000Y-15760700D02*
X6858000Y-15760700D01*
X6858000Y-15760700D02*
X6858000Y-14236700D01*
G04 #@! TO.C,S102*
X9715500Y-14236700D02*
X11239500Y-14236700D01*
X11239500Y-14236700D02*
X11239500Y-15760700D01*
X11239500Y-15760700D02*
X9715500Y-15760700D01*
X9715500Y-15760700D02*
X9715500Y-14236700D01*
G04 #@! TO.C,S101*
X9245600Y-14236700D02*
X10769600Y-14236700D01*
X10769600Y-14236700D02*
X10769600Y-15760700D01*
X10769600Y-15760700D02*
X9245600Y-15760700D01*
X9245600Y-15760700D02*
X9245600Y-14236700D01*
G04 #@! TO.C,S552*
X25908000Y-14239875D02*
X27432000Y-14239875D01*
X27432000Y-14239875D02*
X27432000Y-15763875D01*
X27432000Y-15763875D02*
X25908000Y-15763875D01*
X25908000Y-15763875D02*
X25908000Y-14239875D01*
G04 #@! TO.C,S602*
X28289250Y-14239875D02*
X29813250Y-14239875D01*
X29813250Y-14239875D02*
X29813250Y-15763875D01*
X29813250Y-15763875D02*
X28289250Y-15763875D01*
X28289250Y-15763875D02*
X28289250Y-14239875D01*
G04 #@! TO.C,S151*
X11620500Y-14236700D02*
X13144500Y-14236700D01*
X13144500Y-14236700D02*
X13144500Y-15760700D01*
X13144500Y-15760700D02*
X11620500Y-15760700D01*
X11620500Y-15760700D02*
X11620500Y-14236700D01*
G04 #@! TO.C,S6512*
X30194250Y-14239875D02*
X31718250Y-14239875D01*
X31718250Y-14239875D02*
X31718250Y-15763875D01*
X31718250Y-15763875D02*
X30194250Y-15763875D01*
X30194250Y-15763875D02*
X30194250Y-14239875D01*
G04 #@! TO.C,S7012*
X32575500Y-14239875D02*
X34099500Y-14239875D01*
X34099500Y-14239875D02*
X34099500Y-15763875D01*
X34099500Y-15763875D02*
X32575500Y-15763875D01*
X32575500Y-15763875D02*
X32575500Y-14239875D01*
G04 #@! TO.C,S301*
X19716750Y-14240002D02*
X21240750Y-14240002D01*
X21240750Y-14240002D02*
X21240750Y-15764002D01*
X21240750Y-15764002D02*
X19716750Y-15764002D01*
X19716750Y-15764002D02*
X19716750Y-14240002D01*
G04 #@! TO.C,S302*
X17811750Y-14239875D02*
X19335750Y-14239875D01*
X19335750Y-14239875D02*
X19335750Y-15763875D01*
X19335750Y-15763875D02*
X17811750Y-15763875D01*
X17811750Y-15763875D02*
X17811750Y-14239875D01*
G04 #@! TO.C,S041*
X6620002Y-12335002D02*
X8144002Y-12335002D01*
X8144002Y-12335002D02*
X8144002Y-13859002D01*
X8144002Y-13859002D02*
X6620002Y-13859002D01*
X6620002Y-13859002D02*
X6620002Y-12335002D01*
G04 #@! TO.C,S691*
X32337375Y-12334875D02*
X33861375Y-12334875D01*
X33861375Y-12334875D02*
X33861375Y-13858875D01*
X33861375Y-13858875D02*
X32337375Y-13858875D01*
X32337375Y-13858875D02*
X32337375Y-12334875D01*
G04 #@! TO.C,S661*
X31146750Y-6619875D02*
X32670750Y-6619875D01*
X32670750Y-6619875D02*
X32670750Y-8143875D01*
X32670750Y-8143875D02*
X31146750Y-8143875D01*
X31146750Y-8143875D02*
X31146750Y-6619875D01*
G04 #@! TO.C,S50*
X33051750Y-6619875D02*
X34575750Y-6619875D01*
X34575750Y-6619875D02*
X34575750Y-8143875D01*
X34575750Y-8143875D02*
X33051750Y-8143875D01*
X33051750Y-8143875D02*
X33051750Y-6619875D01*
G04 #@! TO.C,S06*
X8286750Y-6619875D02*
X9810750Y-6619875D01*
X9810750Y-6619875D02*
X9810750Y-8143875D01*
X9810750Y-8143875D02*
X8286750Y-8143875D01*
X8286750Y-8143875D02*
X8286750Y-6619875D01*
G04 #@! TO.C,S01*
X6381750Y-6619875D02*
X7905750Y-6619875D01*
X7905750Y-6619875D02*
X7905750Y-8143875D01*
X7905750Y-8143875D02*
X6381750Y-8143875D01*
X6381750Y-8143875D02*
X6381750Y-6619875D01*
G04 #@! TO.C,S692*
X30432375Y-12334875D02*
X31956375Y-12334875D01*
X31956375Y-12334875D02*
X31956375Y-13858875D01*
X31956375Y-13858875D02*
X30432375Y-13858875D01*
X30432375Y-13858875D02*
X30432375Y-12334875D01*
G04 #@! TO.C,S64*
X29718000Y-12334875D02*
X31242000Y-12334875D01*
X31242000Y-12334875D02*
X31242000Y-13858875D01*
X31242000Y-13858875D02*
X29718000Y-13858875D01*
X29718000Y-13858875D02*
X29718000Y-12334875D01*
G04 #@! TO.C,S63*
X30670500Y-10430002D02*
X32194500Y-10430002D01*
X32194500Y-10430002D02*
X32194500Y-11954002D01*
X32194500Y-11954002D02*
X30670500Y-11954002D01*
X30670500Y-11954002D02*
X30670500Y-10430002D01*
D11*
G04 #@! TO.C,*
X7447640Y-8140120D02*
X7447640Y-8032620D01*
X6857640Y-8140120D02*
X7447640Y-8140120D01*
X6857640Y-7750120D02*
X7447640Y-7750120D01*
X9350100Y-8135040D02*
X9350100Y-8027540D01*
X8760100Y-8135040D02*
X9350100Y-8135040D01*
X8760100Y-7745040D02*
X9350100Y-7745040D01*
X11255100Y-8135040D02*
X11255100Y-8027540D01*
X10665100Y-8135040D02*
X11255100Y-8135040D01*
X10665100Y-7745040D02*
X11255100Y-7745040D01*
X13160100Y-8140120D02*
X13160100Y-8032620D01*
X12570100Y-8140120D02*
X13160100Y-8140120D01*
X12570100Y-7750120D02*
X13160100Y-7750120D01*
X15067640Y-8140120D02*
X15067640Y-8032620D01*
X14477640Y-8140120D02*
X15067640Y-8140120D01*
X14477640Y-7750120D02*
X15067640Y-7750120D01*
X16977720Y-8140120D02*
X16977720Y-8032620D01*
X16387720Y-8140120D02*
X16977720Y-8140120D01*
X16387720Y-7750120D02*
X16977720Y-7750120D01*
X18887800Y-8140120D02*
X18887800Y-8032620D01*
X18297800Y-8140120D02*
X18887800Y-8140120D01*
X18297800Y-7750120D02*
X18887800Y-7750120D01*
X20782640Y-8140120D02*
X20782640Y-8032620D01*
X20192640Y-8140120D02*
X20782640Y-8140120D01*
X20192640Y-7750120D02*
X20782640Y-7750120D01*
X22692720Y-8140120D02*
X22692720Y-8032620D01*
X22102720Y-8140120D02*
X22692720Y-8140120D01*
X22102720Y-7750120D02*
X22692720Y-7750120D01*
X24592640Y-8140120D02*
X24592640Y-8032620D01*
X24002640Y-8140120D02*
X24592640Y-8140120D01*
X24002640Y-7750120D02*
X24592640Y-7750120D01*
X26492560Y-8140120D02*
X26492560Y-8032620D01*
X25902560Y-8140120D02*
X26492560Y-8140120D01*
X25902560Y-7750120D02*
X26492560Y-7750120D01*
X28392480Y-8140120D02*
X28392480Y-8032620D01*
X27802480Y-8140120D02*
X28392480Y-8140120D01*
X27802480Y-7750120D02*
X28392480Y-7750120D01*
X30302560Y-8140120D02*
X30302560Y-8032620D01*
X29712560Y-8140120D02*
X30302560Y-8140120D01*
X29712560Y-7750120D02*
X30302560Y-7750120D01*
X33167680Y-8140120D02*
X33167680Y-8032620D01*
X32577680Y-8140120D02*
X33167680Y-8140120D01*
X32577680Y-7750120D02*
X33167680Y-7750120D01*
X7915000Y-10045120D02*
X7915000Y-9937620D01*
X7325000Y-10045120D02*
X7915000Y-10045120D01*
X7325000Y-9655120D02*
X7915000Y-9655120D01*
X10775040Y-11945040D02*
X10775040Y-11837540D01*
X10185040Y-11945040D02*
X10775040Y-11945040D01*
X10185040Y-11555040D02*
X10775040Y-11555040D01*
X8651600Y-13799240D02*
X8651600Y-13691740D01*
X8061600Y-13799240D02*
X8651600Y-13799240D01*
X8061600Y-13409240D02*
X8651600Y-13409240D01*
X7793080Y-15755040D02*
X7793080Y-15647540D01*
X7203080Y-15755040D02*
X7793080Y-15755040D01*
X7203080Y-15365040D02*
X7793080Y-15365040D01*
X10317840Y-15755040D02*
X10317840Y-15647540D01*
X9727840Y-15755040D02*
X10317840Y-15755040D01*
X9727840Y-15365040D02*
X10317840Y-15365040D01*
X12537800Y-15760120D02*
X12537800Y-15652620D01*
X11947800Y-15760120D02*
X12537800Y-15760120D01*
X11947800Y-15370120D02*
X12537800Y-15370120D01*
X19604080Y-15765200D02*
X19604080Y-15657700D01*
X19014080Y-15765200D02*
X19604080Y-15765200D01*
X19014080Y-15375200D02*
X19604080Y-15375200D01*
X20802960Y-15760120D02*
X20802960Y-15652620D01*
X20212960Y-15760120D02*
X20802960Y-15760120D01*
X20212960Y-15370120D02*
X20802960Y-15370120D01*
X26975160Y-15760120D02*
X26975160Y-15652620D01*
X26385160Y-15760120D02*
X26975160Y-15760120D01*
X26385160Y-15370120D02*
X26975160Y-15370120D01*
X29098600Y-15765200D02*
X29098600Y-15657700D01*
X28508600Y-15765200D02*
X29098600Y-15765200D01*
X28508600Y-15375200D02*
X29098600Y-15375200D01*
X31374440Y-15760120D02*
X31374440Y-15652620D01*
X30784440Y-15760120D02*
X31374440Y-15760120D01*
X30784440Y-15370120D02*
X31374440Y-15370120D01*
X33751880Y-15775360D02*
X33751880Y-15667860D01*
X33161880Y-15775360D02*
X33751880Y-15775360D01*
X33161880Y-15385360D02*
X33751880Y-15385360D01*
X10302600Y-10045120D02*
X10302600Y-9937620D01*
X9712600Y-10045120D02*
X10302600Y-10045120D01*
X9712600Y-9655120D02*
X10302600Y-9655120D01*
X12202520Y-10050200D02*
X12202520Y-9942700D01*
X11612520Y-10050200D02*
X12202520Y-10050200D01*
X11612520Y-9660200D02*
X12202520Y-9660200D01*
X14117680Y-10050200D02*
X14117680Y-9942700D01*
X13527680Y-10050200D02*
X14117680Y-10050200D01*
X13527680Y-9660200D02*
X14117680Y-9660200D01*
X16022680Y-10034960D02*
X16022680Y-9927460D01*
X15432680Y-10034960D02*
X16022680Y-10034960D01*
X15432680Y-9644960D02*
X16022680Y-9644960D01*
X17927680Y-10045120D02*
X17927680Y-9937620D01*
X17337680Y-10045120D02*
X17927680Y-10045120D01*
X17337680Y-9655120D02*
X17927680Y-9655120D01*
X19842840Y-10045120D02*
X19842840Y-9937620D01*
X19252840Y-10045120D02*
X19842840Y-10045120D01*
X19252840Y-9655120D02*
X19842840Y-9655120D01*
X21732600Y-10040040D02*
X21732600Y-9932540D01*
X21142600Y-10040040D02*
X21732600Y-10040040D01*
X21142600Y-9650040D02*
X21732600Y-9650040D01*
X23642680Y-10050200D02*
X23642680Y-9942700D01*
X23052680Y-10050200D02*
X23642680Y-10050200D01*
X23052680Y-9660200D02*
X23642680Y-9660200D01*
X25542600Y-10045120D02*
X25542600Y-9937620D01*
X24952600Y-10045120D02*
X25542600Y-10045120D01*
X24952600Y-9655120D02*
X25542600Y-9655120D01*
X27447600Y-10040040D02*
X27447600Y-9932540D01*
X26857600Y-10040040D02*
X27447600Y-10040040D01*
X26857600Y-9650040D02*
X27447600Y-9650040D01*
X29362760Y-10050200D02*
X29362760Y-9942700D01*
X28772760Y-10050200D02*
X29362760Y-10050200D01*
X28772760Y-9660200D02*
X29362760Y-9660200D01*
X31257600Y-10050200D02*
X31257600Y-9942700D01*
X30667600Y-10050200D02*
X31257600Y-10050200D01*
X30667600Y-9660200D02*
X31257600Y-9660200D01*
X32461560Y-13865280D02*
X32461560Y-13757780D01*
X31871560Y-13865280D02*
X32461560Y-13865280D01*
X31871560Y-13475280D02*
X32461560Y-13475280D01*
X30754680Y-13860200D02*
X30754680Y-13752700D01*
X30164680Y-13860200D02*
X30754680Y-13860200D01*
X30164680Y-13470200D02*
X30754680Y-13470200D01*
X34127800Y-13860200D02*
X34127800Y-13752700D01*
X33537800Y-13860200D02*
X34127800Y-13860200D01*
X33537800Y-13470200D02*
X34127800Y-13470200D01*
X7920080Y-11945040D02*
X7920080Y-11837540D01*
X7330080Y-11945040D02*
X7920080Y-11945040D01*
X7330080Y-11555040D02*
X7920080Y-11555040D01*
X12685120Y-11950120D02*
X12685120Y-11842620D01*
X12095120Y-11950120D02*
X12685120Y-11950120D01*
X12095120Y-11560120D02*
X12685120Y-11560120D01*
X14579960Y-11950120D02*
X14579960Y-11842620D01*
X13989960Y-11950120D02*
X14579960Y-11950120D01*
X13989960Y-11560120D02*
X14579960Y-11560120D01*
X16495120Y-11950120D02*
X16495120Y-11842620D01*
X15905120Y-11950120D02*
X16495120Y-11950120D01*
X15905120Y-11560120D02*
X16495120Y-11560120D01*
X18410280Y-11950120D02*
X18410280Y-11842620D01*
X17820280Y-11950120D02*
X18410280Y-11950120D01*
X17820280Y-11560120D02*
X18410280Y-11560120D01*
X20305120Y-11950120D02*
X20305120Y-11842620D01*
X19715120Y-11950120D02*
X20305120Y-11950120D01*
X19715120Y-11560120D02*
X20305120Y-11560120D01*
X22215200Y-11950120D02*
X22215200Y-11842620D01*
X21625200Y-11950120D02*
X22215200Y-11950120D01*
X21625200Y-11560120D02*
X22215200Y-11560120D01*
X24115120Y-11945040D02*
X24115120Y-11837540D01*
X23525120Y-11945040D02*
X24115120Y-11945040D01*
X23525120Y-11555040D02*
X24115120Y-11555040D01*
X26015040Y-11950120D02*
X26015040Y-11842620D01*
X25425040Y-11950120D02*
X26015040Y-11950120D01*
X25425040Y-11560120D02*
X26015040Y-11560120D01*
X27925120Y-11950120D02*
X27925120Y-11842620D01*
X27335120Y-11950120D02*
X27925120Y-11950120D01*
X27335120Y-11560120D02*
X27925120Y-11560120D01*
X29835200Y-11945040D02*
X29835200Y-11837540D01*
X29245200Y-11945040D02*
X29835200Y-11945040D01*
X29245200Y-11555040D02*
X29835200Y-11555040D01*
X32908600Y-11965360D02*
X32908600Y-11857860D01*
X32318600Y-11965360D02*
X32908600Y-11965360D01*
X32318600Y-11575360D02*
X32908600Y-11575360D01*
X33645200Y-10040040D02*
X33645200Y-9932540D01*
X33055200Y-10040040D02*
X33645200Y-10040040D01*
X33055200Y-9650040D02*
X33645200Y-9650040D01*
X11725000Y-13850040D02*
X11725000Y-13742540D01*
X11135000Y-13850040D02*
X11725000Y-13850040D01*
X11135000Y-13460040D02*
X11725000Y-13460040D01*
X13640160Y-13860200D02*
X13640160Y-13752700D01*
X13050160Y-13860200D02*
X13640160Y-13860200D01*
X13050160Y-13470200D02*
X13640160Y-13470200D01*
X15535000Y-13855120D02*
X15535000Y-13747620D01*
X14945000Y-13855120D02*
X15535000Y-13855120D01*
X14945000Y-13465120D02*
X15535000Y-13465120D01*
X17445080Y-13855120D02*
X17445080Y-13747620D01*
X16855080Y-13855120D02*
X17445080Y-13855120D01*
X16855080Y-13465120D02*
X17445080Y-13465120D01*
X19350080Y-13850040D02*
X19350080Y-13742540D01*
X18760080Y-13850040D02*
X19350080Y-13850040D01*
X18760080Y-13460040D02*
X19350080Y-13460040D01*
X21255080Y-13855120D02*
X21255080Y-13747620D01*
X20665080Y-13855120D02*
X21255080Y-13855120D01*
X20665080Y-13465120D02*
X21255080Y-13465120D01*
X23155000Y-13855120D02*
X23155000Y-13747620D01*
X22565000Y-13855120D02*
X23155000Y-13855120D01*
X22565000Y-13465120D02*
X23155000Y-13465120D01*
X25060000Y-13855120D02*
X25060000Y-13747620D01*
X24470000Y-13855120D02*
X25060000Y-13855120D01*
X24470000Y-13465120D02*
X25060000Y-13465120D01*
X26970080Y-13855120D02*
X26970080Y-13747620D01*
X26380080Y-13855120D02*
X26970080Y-13855120D01*
X26380080Y-13465120D02*
X26970080Y-13465120D01*
X28875080Y-13855120D02*
X28875080Y-13747620D01*
X28285080Y-13855120D02*
X28875080Y-13855120D01*
X28285080Y-13465120D02*
X28875080Y-13465120D01*
D12*
X18256131Y-15527938D02*
X18198989Y-15527938D01*
X18227560Y-15527938D02*
X18227560Y-15427938D01*
X18218036Y-15442224D01*
X18208512Y-15451748D01*
X18198989Y-15456509D01*
X7143111Y-7901458D02*
X7085968Y-7901458D01*
X7114540Y-7901458D02*
X7114540Y-7801458D01*
X7105016Y-7815744D01*
X7095492Y-7825268D01*
X7085968Y-7830029D01*
X8733671Y-7897778D02*
X8676529Y-7897778D01*
X8705100Y-7897778D02*
X8705100Y-7797778D01*
X8695576Y-7812064D01*
X8686052Y-7821588D01*
X8676529Y-7826349D01*
X10638671Y-7897778D02*
X10581529Y-7897778D01*
X10610100Y-7897778D02*
X10610100Y-7797778D01*
X10600576Y-7812064D01*
X10591052Y-7821588D01*
X10581529Y-7826349D01*
X12543671Y-7902858D02*
X12486528Y-7902858D01*
X12515100Y-7902858D02*
X12515100Y-7802858D01*
X12505576Y-7817144D01*
X12496052Y-7826668D01*
X12486528Y-7831429D01*
X14451211Y-7902858D02*
X14394068Y-7902858D01*
X14422640Y-7902858D02*
X14422640Y-7802858D01*
X14413116Y-7817144D01*
X14403592Y-7826668D01*
X14394068Y-7831429D01*
X16361291Y-7902858D02*
X16304148Y-7902858D01*
X16332720Y-7902858D02*
X16332720Y-7802858D01*
X16323196Y-7817144D01*
X16313672Y-7826668D01*
X16304148Y-7831429D01*
X18271371Y-7902858D02*
X18214229Y-7902858D01*
X18242800Y-7902858D02*
X18242800Y-7802858D01*
X18233276Y-7817144D01*
X18223752Y-7826668D01*
X18214229Y-7831429D01*
X20166211Y-7902858D02*
X20109069Y-7902858D01*
X20137640Y-7902858D02*
X20137640Y-7802858D01*
X20128116Y-7817144D01*
X20118592Y-7826668D01*
X20109069Y-7831429D01*
X22076291Y-7902858D02*
X22019149Y-7902858D01*
X22047720Y-7902858D02*
X22047720Y-7802858D01*
X22038196Y-7817144D01*
X22028672Y-7826668D01*
X22019149Y-7831429D01*
X23976211Y-7902858D02*
X23919068Y-7902858D01*
X23947640Y-7902858D02*
X23947640Y-7802858D01*
X23938116Y-7817144D01*
X23928592Y-7826668D01*
X23919068Y-7831429D01*
X25876131Y-7902858D02*
X25818988Y-7902858D01*
X25847560Y-7902858D02*
X25847560Y-7802858D01*
X25838036Y-7817144D01*
X25828512Y-7826668D01*
X25818988Y-7831429D01*
X27776051Y-7902858D02*
X27718908Y-7902858D01*
X27747480Y-7902858D02*
X27747480Y-7802858D01*
X27737956Y-7817144D01*
X27728432Y-7826668D01*
X27718908Y-7831429D01*
X29686131Y-7902858D02*
X29628988Y-7902858D01*
X29657560Y-7902858D02*
X29657560Y-7802858D01*
X29648036Y-7817144D01*
X29638512Y-7826668D01*
X29628988Y-7831429D01*
X32551251Y-7902858D02*
X32494108Y-7902858D01*
X32522680Y-7902858D02*
X32522680Y-7802858D01*
X32513156Y-7817144D01*
X32503632Y-7826668D01*
X32494108Y-7831429D01*
X7298571Y-9807858D02*
X7241428Y-9807858D01*
X7270000Y-9807858D02*
X7270000Y-9707858D01*
X7260476Y-9722144D01*
X7250952Y-9731668D01*
X7241428Y-9736430D01*
X10158611Y-11707778D02*
X10101469Y-11707778D01*
X10130040Y-11707778D02*
X10130040Y-11607778D01*
X10120516Y-11622064D01*
X10110992Y-11631588D01*
X10101469Y-11636349D01*
X8035171Y-13561978D02*
X7978028Y-13561978D01*
X8006600Y-13561978D02*
X8006600Y-13461978D01*
X7997076Y-13476264D01*
X7987552Y-13485788D01*
X7978028Y-13490549D01*
X7176651Y-15517778D02*
X7119508Y-15517778D01*
X7148080Y-15517778D02*
X7148080Y-15417778D01*
X7138556Y-15432064D01*
X7129032Y-15441588D01*
X7119508Y-15446349D01*
X9701411Y-15517778D02*
X9644269Y-15517778D01*
X9672840Y-15517778D02*
X9672840Y-15417778D01*
X9663316Y-15432064D01*
X9653792Y-15441588D01*
X9644269Y-15446349D01*
X11921371Y-15522858D02*
X11864228Y-15522858D01*
X11892800Y-15522858D02*
X11892800Y-15422858D01*
X11883276Y-15437144D01*
X11873752Y-15446668D01*
X11864228Y-15451429D01*
X18987651Y-15527938D02*
X18930509Y-15527938D01*
X18959080Y-15527938D02*
X18959080Y-15427938D01*
X18949556Y-15442224D01*
X18940032Y-15451748D01*
X18930509Y-15456509D01*
X20186531Y-15522858D02*
X20129389Y-15522858D01*
X20157960Y-15522858D02*
X20157960Y-15422858D01*
X20148436Y-15437144D01*
X20138912Y-15446668D01*
X20129389Y-15451429D01*
X26358731Y-15522858D02*
X26301588Y-15522858D01*
X26330160Y-15522858D02*
X26330160Y-15422858D01*
X26320636Y-15437144D01*
X26311112Y-15446668D01*
X26301588Y-15451429D01*
X28482171Y-15527938D02*
X28425028Y-15527938D01*
X28453600Y-15527938D02*
X28453600Y-15427938D01*
X28444076Y-15442224D01*
X28434552Y-15451748D01*
X28425028Y-15456509D01*
X30758011Y-15522858D02*
X30700868Y-15522858D01*
X30729440Y-15522858D02*
X30729440Y-15422858D01*
X30719916Y-15437144D01*
X30710392Y-15446668D01*
X30700868Y-15451429D01*
X33135451Y-15538098D02*
X33078308Y-15538098D01*
X33106880Y-15538098D02*
X33106880Y-15438098D01*
X33097356Y-15452384D01*
X33087832Y-15461908D01*
X33078308Y-15466669D01*
X9686171Y-9807858D02*
X9629029Y-9807858D01*
X9657600Y-9807858D02*
X9657600Y-9707858D01*
X9648076Y-9722144D01*
X9638552Y-9731668D01*
X9629029Y-9736430D01*
X11586091Y-9812938D02*
X11528948Y-9812938D01*
X11557520Y-9812938D02*
X11557520Y-9712938D01*
X11547996Y-9727224D01*
X11538472Y-9736748D01*
X11528948Y-9741510D01*
X13501251Y-9812938D02*
X13444108Y-9812938D01*
X13472680Y-9812938D02*
X13472680Y-9712938D01*
X13463156Y-9727224D01*
X13453632Y-9736748D01*
X13444108Y-9741510D01*
X15406251Y-9797698D02*
X15349108Y-9797698D01*
X15377680Y-9797698D02*
X15377680Y-9697698D01*
X15368156Y-9711984D01*
X15358632Y-9721508D01*
X15349108Y-9726270D01*
X17311251Y-9807858D02*
X17254109Y-9807858D01*
X17282680Y-9807858D02*
X17282680Y-9707858D01*
X17273156Y-9722144D01*
X17263632Y-9731668D01*
X17254109Y-9736430D01*
X19226411Y-9807858D02*
X19169269Y-9807858D01*
X19197840Y-9807858D02*
X19197840Y-9707858D01*
X19188316Y-9722144D01*
X19178792Y-9731668D01*
X19169269Y-9736430D01*
X21116171Y-9802778D02*
X21059029Y-9802778D01*
X21087600Y-9802778D02*
X21087600Y-9702778D01*
X21078076Y-9717064D01*
X21068552Y-9726588D01*
X21059029Y-9731350D01*
X23026251Y-9812938D02*
X22969108Y-9812938D01*
X22997680Y-9812938D02*
X22997680Y-9712938D01*
X22988156Y-9727224D01*
X22978632Y-9736748D01*
X22969108Y-9741510D01*
X24926171Y-9807858D02*
X24869028Y-9807858D01*
X24897600Y-9807858D02*
X24897600Y-9707858D01*
X24888076Y-9722144D01*
X24878552Y-9731668D01*
X24869028Y-9736430D01*
X26831171Y-9802778D02*
X26774028Y-9802778D01*
X26802600Y-9802778D02*
X26802600Y-9702778D01*
X26793076Y-9717064D01*
X26783552Y-9726588D01*
X26774028Y-9731350D01*
X28746331Y-9812938D02*
X28689188Y-9812938D01*
X28717760Y-9812938D02*
X28717760Y-9712938D01*
X28708236Y-9727224D01*
X28698712Y-9736748D01*
X28689188Y-9741510D01*
X30641171Y-9812938D02*
X30584028Y-9812938D01*
X30612600Y-9812938D02*
X30612600Y-9712938D01*
X30603076Y-9727224D01*
X30593552Y-9736748D01*
X30584028Y-9741510D01*
X31845131Y-13628018D02*
X31787988Y-13628018D01*
X31816560Y-13628018D02*
X31816560Y-13528018D01*
X31807036Y-13542304D01*
X31797512Y-13551828D01*
X31787988Y-13556589D01*
X30138251Y-13622938D02*
X30081108Y-13622938D01*
X30109680Y-13622938D02*
X30109680Y-13522938D01*
X30100156Y-13537224D01*
X30090632Y-13546748D01*
X30081108Y-13551509D01*
X33511371Y-13622938D02*
X33454228Y-13622938D01*
X33482800Y-13622938D02*
X33482800Y-13522938D01*
X33473276Y-13537224D01*
X33463752Y-13546748D01*
X33454228Y-13551509D01*
X7303651Y-11707778D02*
X7246508Y-11707778D01*
X7275080Y-11707778D02*
X7275080Y-11607778D01*
X7265556Y-11622064D01*
X7256032Y-11631588D01*
X7246508Y-11636349D01*
X12068691Y-11712858D02*
X12011548Y-11712858D01*
X12040120Y-11712858D02*
X12040120Y-11612858D01*
X12030596Y-11627144D01*
X12021072Y-11636668D01*
X12011548Y-11641429D01*
X13963531Y-11712858D02*
X13906388Y-11712858D01*
X13934960Y-11712858D02*
X13934960Y-11612858D01*
X13925436Y-11627144D01*
X13915912Y-11636668D01*
X13906388Y-11641429D01*
X15878691Y-11712858D02*
X15821548Y-11712858D01*
X15850120Y-11712858D02*
X15850120Y-11612858D01*
X15840596Y-11627144D01*
X15831072Y-11636668D01*
X15821548Y-11641429D01*
X17793851Y-11712858D02*
X17736709Y-11712858D01*
X17765280Y-11712858D02*
X17765280Y-11612858D01*
X17755756Y-11627144D01*
X17746232Y-11636668D01*
X17736709Y-11641429D01*
X19688691Y-11712858D02*
X19631549Y-11712858D01*
X19660120Y-11712858D02*
X19660120Y-11612858D01*
X19650596Y-11627144D01*
X19641072Y-11636668D01*
X19631549Y-11641429D01*
X21598771Y-11712858D02*
X21541629Y-11712858D01*
X21570200Y-11712858D02*
X21570200Y-11612858D01*
X21560676Y-11627144D01*
X21551152Y-11636668D01*
X21541629Y-11641429D01*
X23498691Y-11707778D02*
X23441548Y-11707778D01*
X23470120Y-11707778D02*
X23470120Y-11607778D01*
X23460596Y-11622064D01*
X23451072Y-11631588D01*
X23441548Y-11636349D01*
X25398611Y-11712858D02*
X25341468Y-11712858D01*
X25370040Y-11712858D02*
X25370040Y-11612858D01*
X25360516Y-11627144D01*
X25350992Y-11636668D01*
X25341468Y-11641429D01*
X27308691Y-11712858D02*
X27251548Y-11712858D01*
X27280120Y-11712858D02*
X27280120Y-11612858D01*
X27270596Y-11627144D01*
X27261072Y-11636668D01*
X27251548Y-11641429D01*
X29218771Y-11707778D02*
X29161628Y-11707778D01*
X29190200Y-11707778D02*
X29190200Y-11607778D01*
X29180676Y-11622064D01*
X29171152Y-11631588D01*
X29161628Y-11636349D01*
X32292171Y-11728098D02*
X32235028Y-11728098D01*
X32263600Y-11728098D02*
X32263600Y-11628098D01*
X32254076Y-11642384D01*
X32244552Y-11651908D01*
X32235028Y-11656669D01*
X33028771Y-9802778D02*
X32971628Y-9802778D01*
X33000200Y-9802778D02*
X33000200Y-9702778D01*
X32990676Y-9717064D01*
X32981152Y-9726588D01*
X32971628Y-9731350D01*
X11108571Y-13612778D02*
X11051429Y-13612778D01*
X11080000Y-13612778D02*
X11080000Y-13512778D01*
X11070476Y-13527064D01*
X11060952Y-13536588D01*
X11051429Y-13541349D01*
X13023731Y-13622938D02*
X12966588Y-13622938D01*
X12995160Y-13622938D02*
X12995160Y-13522938D01*
X12985636Y-13537224D01*
X12976112Y-13546748D01*
X12966588Y-13551509D01*
X14918571Y-13617858D02*
X14861428Y-13617858D01*
X14890000Y-13617858D02*
X14890000Y-13517858D01*
X14880476Y-13532144D01*
X14870952Y-13541668D01*
X14861428Y-13546429D01*
X16828651Y-13617858D02*
X16771508Y-13617858D01*
X16800080Y-13617858D02*
X16800080Y-13517858D01*
X16790556Y-13532144D01*
X16781032Y-13541668D01*
X16771508Y-13546429D01*
X18733651Y-13612778D02*
X18676509Y-13612778D01*
X18705080Y-13612778D02*
X18705080Y-13512778D01*
X18695556Y-13527064D01*
X18686032Y-13536588D01*
X18676509Y-13541349D01*
X20638651Y-13617858D02*
X20581509Y-13617858D01*
X20610080Y-13617858D02*
X20610080Y-13517858D01*
X20600556Y-13532144D01*
X20591032Y-13541668D01*
X20581509Y-13546429D01*
X22538571Y-13617858D02*
X22481428Y-13617858D01*
X22510000Y-13617858D02*
X22510000Y-13517858D01*
X22500476Y-13532144D01*
X22490952Y-13541668D01*
X22481428Y-13546429D01*
X24443571Y-13617858D02*
X24386428Y-13617858D01*
X24415000Y-13617858D02*
X24415000Y-13517858D01*
X24405476Y-13532144D01*
X24395952Y-13541668D01*
X24386428Y-13546429D01*
X26353651Y-13617858D02*
X26296508Y-13617858D01*
X26325080Y-13617858D02*
X26325080Y-13517858D01*
X26315556Y-13532144D01*
X26306032Y-13541668D01*
X26296508Y-13546429D01*
X28258651Y-13617858D02*
X28201508Y-13617858D01*
X28230080Y-13617858D02*
X28230080Y-13517858D01*
X28220556Y-13532144D01*
X28211032Y-13541668D01*
X28201508Y-13546429D01*
G04 #@! TD*
%LPC*%
D13*
G04 #@! TO.C,S031*
X7382002Y-11192002D03*
D14*
X7636002Y-10684002D03*
X7001002Y-10938002D03*
D15*
X6874002Y-11192002D03*
X7890002Y-11192002D03*
G04 #@! TD*
D16*
G04 #@! TO.C,*
X18402560Y-15482700D03*
X18402560Y-15657700D03*
X18752560Y-15482700D03*
X18752560Y-15657700D03*
G04 #@! TD*
D13*
G04 #@! TO.C,S21*
X14763750Y-7382002D03*
D14*
X15017750Y-6874002D03*
X14382750Y-7128002D03*
D15*
X14255750Y-7382002D03*
X15271750Y-7382002D03*
G04 #@! TD*
D13*
G04 #@! TO.C,S51*
X26193750Y-7382002D03*
D14*
X26447750Y-6874002D03*
X25812750Y-7128002D03*
D15*
X25685750Y-7382002D03*
X26701750Y-7382002D03*
G04 #@! TD*
D17*
G04 #@! TO.C,MXST*
X34052002Y-6683502D03*
D18*
X34052002Y-8207502D03*
G04 #@! TD*
D17*
G04 #@! TO.C,MXST*
X7143750Y-12398502D03*
D18*
X7143750Y-13922502D03*
G04 #@! TD*
D17*
G04 #@! TO.C,MXST*
X9525000Y-12398502D03*
D18*
X9525000Y-13922502D03*
G04 #@! TD*
D17*
G04 #@! TO.C,MXST*
X30956250Y-12398502D03*
D18*
X30956250Y-13922502D03*
G04 #@! TD*
D17*
G04 #@! TO.C,MXST*
X33813750Y-10493375D03*
D18*
X33813750Y-12017375D03*
G04 #@! TD*
D17*
G04 #@! TO.C,MXST*
X31432500Y-10493502D03*
D18*
X31432500Y-12017502D03*
G04 #@! TD*
D17*
G04 #@! TO.C,MXST*
X31670752Y-6683502D03*
D18*
X31670752Y-8207502D03*
G04 #@! TD*
D17*
G04 #@! TO.C,MXST*
X24288750Y-15700502D03*
D18*
X24288750Y-14176502D03*
G04 #@! TD*
D17*
G04 #@! TO.C,MXST*
X14287500Y-15700502D03*
D18*
X14287500Y-14176502D03*
G04 #@! TD*
D17*
G04 #@! TO.C,MXST*
X12858750Y-15700502D03*
D18*
X12858750Y-14176502D03*
G04 #@! TD*
D17*
G04 #@! TO.C,MXST*
X14763750Y-15700502D03*
D18*
X14763750Y-14176502D03*
G04 #@! TD*
D17*
G04 #@! TO.C,MXST*
X26193750Y-15700502D03*
D18*
X26193750Y-14176502D03*
G04 #@! TD*
D17*
G04 #@! TO.C,MXST*
X33337500Y-12398375D03*
D18*
X33337500Y-13922375D03*
G04 #@! TD*
D13*
G04 #@! TO.C,S03*
X7858252Y-11192002D03*
D14*
X8112252Y-10684002D03*
X7477252Y-10938002D03*
D15*
X7350252Y-11192002D03*
X8366252Y-11192002D03*
G04 #@! TD*
D13*
G04 #@! TO.C,S22*
X15716250Y-9287002D03*
D14*
X15970250Y-8779002D03*
X15335250Y-9033002D03*
D15*
X15208250Y-9287002D03*
X16224250Y-9287002D03*
G04 #@! TD*
D13*
G04 #@! TO.C,S27*
X17621250Y-9287002D03*
D14*
X17875250Y-8779002D03*
X17240250Y-9033002D03*
D15*
X17113250Y-9287002D03*
X18129250Y-9287002D03*
G04 #@! TD*
D13*
G04 #@! TO.C,S37*
X21431250Y-9287002D03*
D14*
X21685250Y-8779002D03*
X21050250Y-9033002D03*
D15*
X20923250Y-9287002D03*
X21939250Y-9287002D03*
G04 #@! TD*
D13*
G04 #@! TO.C,S42*
X23336250Y-9287002D03*
D14*
X23590250Y-8779002D03*
X22955250Y-9033002D03*
D15*
X22828250Y-9287002D03*
X23844250Y-9287002D03*
G04 #@! TD*
D13*
G04 #@! TO.C,S47*
X25241250Y-9287002D03*
D14*
X25495250Y-8779002D03*
X24860250Y-9033002D03*
D15*
X24733250Y-9287002D03*
X25749250Y-9287002D03*
G04 #@! TD*
D13*
G04 #@! TO.C,S52*
X27146250Y-9287002D03*
D14*
X27400250Y-8779002D03*
X26765250Y-9033002D03*
D15*
X26638250Y-9287002D03*
X27654250Y-9287002D03*
G04 #@! TD*
D13*
G04 #@! TO.C,S57*
X29051250Y-9287002D03*
D14*
X29305250Y-8779002D03*
X28670250Y-9033002D03*
D15*
X28543250Y-9287002D03*
X29559250Y-9287002D03*
G04 #@! TD*
D13*
G04 #@! TO.C,S67*
X33337500Y-9286875D03*
D14*
X33591500Y-8778875D03*
X32956500Y-9032875D03*
D15*
X32829500Y-9286875D03*
X33845500Y-9286875D03*
G04 #@! TD*
D13*
G04 #@! TO.C,S08*
X10477500Y-11192002D03*
D14*
X10731500Y-10684002D03*
X10096500Y-10938002D03*
D15*
X9969500Y-11192002D03*
X10985500Y-11192002D03*
G04 #@! TD*
D13*
G04 #@! TO.C,S13*
X12382500Y-11192002D03*
D14*
X12636500Y-10684002D03*
X12001500Y-10938002D03*
D15*
X11874500Y-11192002D03*
X12890500Y-11192002D03*
G04 #@! TD*
D13*
G04 #@! TO.C,S18*
X14287500Y-11192002D03*
D14*
X14541500Y-10684002D03*
X13906500Y-10938002D03*
D15*
X13779500Y-11192002D03*
X14795500Y-11192002D03*
G04 #@! TD*
D13*
G04 #@! TO.C,S23*
X16192500Y-11192002D03*
D14*
X16446500Y-10684002D03*
X15811500Y-10938002D03*
D15*
X15684500Y-11192002D03*
X16700500Y-11192002D03*
G04 #@! TD*
D13*
G04 #@! TO.C,S28*
X18097500Y-11192002D03*
D14*
X18351500Y-10684002D03*
X17716500Y-10938002D03*
D15*
X17589500Y-11192002D03*
X18605500Y-11192002D03*
G04 #@! TD*
D13*
G04 #@! TO.C,S33*
X20002500Y-11192002D03*
D14*
X20256500Y-10684002D03*
X19621500Y-10938002D03*
D15*
X19494500Y-11192002D03*
X20510500Y-11192002D03*
G04 #@! TD*
D13*
G04 #@! TO.C,S38*
X21907500Y-11192002D03*
D14*
X22161500Y-10684002D03*
X21526500Y-10938002D03*
D15*
X21399500Y-11192002D03*
X22415500Y-11192002D03*
G04 #@! TD*
D13*
G04 #@! TO.C,S11*
X10953750Y-7382002D03*
D14*
X11207750Y-6874002D03*
X10572750Y-7128002D03*
D15*
X10445750Y-7382002D03*
X11461750Y-7382002D03*
G04 #@! TD*
D13*
G04 #@! TO.C,S16*
X12858750Y-7382002D03*
D14*
X13112750Y-6874002D03*
X12477750Y-7128002D03*
D15*
X12350750Y-7382002D03*
X13366750Y-7382002D03*
G04 #@! TD*
D13*
G04 #@! TO.C,S26*
X16668750Y-7382002D03*
D14*
X16922750Y-6874002D03*
X16287750Y-7128002D03*
D15*
X16160750Y-7382002D03*
X17176750Y-7382002D03*
G04 #@! TD*
D13*
G04 #@! TO.C,S31*
X18573750Y-7382002D03*
D14*
X18827750Y-6874002D03*
X18192750Y-7128002D03*
D15*
X18065750Y-7382002D03*
X19081750Y-7382002D03*
G04 #@! TD*
D13*
G04 #@! TO.C,S36*
X20478750Y-7382002D03*
D14*
X20732750Y-6874002D03*
X20097750Y-7128002D03*
D15*
X19970750Y-7382002D03*
X20986750Y-7382002D03*
G04 #@! TD*
D13*
G04 #@! TO.C,S41*
X22383750Y-7382002D03*
D14*
X22637750Y-6874002D03*
X22002750Y-7128002D03*
D15*
X21875750Y-7382002D03*
X22891750Y-7382002D03*
G04 #@! TD*
D13*
G04 #@! TO.C,S56*
X28098750Y-7382002D03*
D14*
X28352750Y-6874002D03*
X27717750Y-7128002D03*
D15*
X27590750Y-7382002D03*
X28606750Y-7382002D03*
G04 #@! TD*
D13*
G04 #@! TO.C,S61*
X30003750Y-7382002D03*
D14*
X30257750Y-6874002D03*
X29622750Y-7128002D03*
D15*
X29495750Y-7382002D03*
X30511750Y-7382002D03*
G04 #@! TD*
D13*
G04 #@! TO.C,S66*
X32861250Y-7382002D03*
D14*
X33115250Y-6874002D03*
X32480250Y-7128002D03*
D15*
X32353250Y-7382002D03*
X33369250Y-7382002D03*
G04 #@! TD*
D13*
G04 #@! TO.C,S02*
X7620000Y-9287002D03*
D14*
X7874000Y-8779002D03*
X7239000Y-9033002D03*
D15*
X7112000Y-9287002D03*
X8128000Y-9287002D03*
G04 #@! TD*
D13*
G04 #@! TO.C,S07*
X10001250Y-9287002D03*
D14*
X10255250Y-8779002D03*
X9620250Y-9033002D03*
D15*
X9493250Y-9287002D03*
X10509250Y-9287002D03*
G04 #@! TD*
D13*
G04 #@! TO.C,S12*
X11906250Y-9287002D03*
D14*
X12160250Y-8779002D03*
X11525250Y-9033002D03*
D15*
X11398250Y-9287002D03*
X12414250Y-9287002D03*
G04 #@! TD*
D13*
G04 #@! TO.C,S17*
X13811250Y-9287002D03*
D14*
X14065250Y-8779002D03*
X13430250Y-9033002D03*
D15*
X13303250Y-9287002D03*
X14319250Y-9287002D03*
G04 #@! TD*
D13*
G04 #@! TO.C,S69*
X32147002Y-13097002D03*
D14*
X32401002Y-12589002D03*
X31766002Y-12843002D03*
D15*
X31639002Y-13097002D03*
X32655002Y-13097002D03*
G04 #@! TD*
D13*
G04 #@! TO.C,S05*
X7381875Y-15001875D03*
D14*
X7635875Y-14493875D03*
X7000875Y-14747875D03*
D15*
X6873875Y-15001875D03*
X7889875Y-15001875D03*
G04 #@! TD*
D13*
G04 #@! TO.C,S15*
X12144375Y-15001875D03*
D14*
X12398375Y-14493875D03*
X11763375Y-14747875D03*
D15*
X11636375Y-15001875D03*
X12652375Y-15001875D03*
G04 #@! TD*
D13*
G04 #@! TO.C,S30*
X19288125Y-15001875D03*
D14*
X19542125Y-14493875D03*
X18907125Y-14747875D03*
D15*
X18780125Y-15001875D03*
X19796125Y-15001875D03*
G04 #@! TD*
D13*
G04 #@! TO.C,S55*
X26431875Y-15001875D03*
D14*
X26685875Y-14493875D03*
X26050875Y-14747875D03*
D15*
X25923875Y-15001875D03*
X26939875Y-15001875D03*
G04 #@! TD*
D13*
G04 #@! TO.C,S60*
X28813125Y-15001875D03*
D14*
X29067125Y-14493875D03*
X28432125Y-14747875D03*
D15*
X28305125Y-15001875D03*
X29321125Y-15001875D03*
G04 #@! TD*
D13*
G04 #@! TO.C,S65*
X31194375Y-15001875D03*
D14*
X31448375Y-14493875D03*
X30813375Y-14747875D03*
D15*
X30686375Y-15001875D03*
X31702375Y-15001875D03*
G04 #@! TD*
D13*
G04 #@! TO.C,S70*
X33575625Y-15001875D03*
D14*
X33829625Y-14493875D03*
X33194625Y-14747875D03*
D15*
X33067625Y-15001875D03*
X34083625Y-15001875D03*
G04 #@! TD*
D13*
G04 #@! TO.C,S43*
X23812500Y-11192002D03*
D14*
X24066500Y-10684002D03*
X23431500Y-10938002D03*
D15*
X23304500Y-11192002D03*
X24320500Y-11192002D03*
G04 #@! TD*
D13*
G04 #@! TO.C,S48*
X25717500Y-11192002D03*
D14*
X25971500Y-10684002D03*
X25336500Y-10938002D03*
D15*
X25209500Y-11192002D03*
X26225500Y-11192002D03*
G04 #@! TD*
D13*
G04 #@! TO.C,S58*
X29527500Y-11192002D03*
D14*
X29781500Y-10684002D03*
X29146500Y-10938002D03*
D15*
X29019500Y-11192002D03*
X30035500Y-11192002D03*
G04 #@! TD*
D13*
G04 #@! TO.C,S68*
X32623125Y-11191875D03*
D14*
X32877125Y-10683875D03*
X32242125Y-10937875D03*
D15*
X32115125Y-11191875D03*
X33131125Y-11191875D03*
G04 #@! TD*
D13*
G04 #@! TO.C,S04*
X8334375Y-13096875D03*
D14*
X8588375Y-12588875D03*
X7953375Y-12842875D03*
D15*
X7826375Y-13096875D03*
X8842375Y-13096875D03*
G04 #@! TD*
D13*
G04 #@! TO.C,S14*
X11430000Y-13097002D03*
D14*
X11684000Y-12589002D03*
X11049000Y-12843002D03*
D15*
X10922000Y-13097002D03*
X11938000Y-13097002D03*
G04 #@! TD*
D13*
G04 #@! TO.C,S19*
X13335000Y-13097002D03*
D14*
X13589000Y-12589002D03*
X12954000Y-12843002D03*
D15*
X12827000Y-13097002D03*
X13843000Y-13097002D03*
G04 #@! TD*
D13*
G04 #@! TO.C,S29*
X17145000Y-13097002D03*
D14*
X17399000Y-12589002D03*
X16764000Y-12843002D03*
D15*
X16637000Y-13097002D03*
X17653000Y-13097002D03*
G04 #@! TD*
D13*
G04 #@! TO.C,S34*
X19050000Y-13097002D03*
D14*
X19304000Y-12589002D03*
X18669000Y-12843002D03*
D15*
X18542000Y-13097002D03*
X19558000Y-13097002D03*
G04 #@! TD*
D13*
G04 #@! TO.C,S39*
X20955000Y-13097002D03*
D14*
X21209000Y-12589002D03*
X20574000Y-12843002D03*
D15*
X20447000Y-13097002D03*
X21463000Y-13097002D03*
G04 #@! TD*
D13*
G04 #@! TO.C,S44*
X22860000Y-13097002D03*
D14*
X23114000Y-12589002D03*
X22479000Y-12843002D03*
D15*
X22352000Y-13097002D03*
X23368000Y-13097002D03*
G04 #@! TD*
D13*
G04 #@! TO.C,S49*
X24765000Y-13097002D03*
D14*
X25019000Y-12589002D03*
X24384000Y-12843002D03*
D15*
X24257000Y-13097002D03*
X25273000Y-13097002D03*
G04 #@! TD*
D13*
G04 #@! TO.C,S54*
X26670000Y-13097002D03*
D14*
X26924000Y-12589002D03*
X26289000Y-12843002D03*
D15*
X26162000Y-13097002D03*
X27178000Y-13097002D03*
G04 #@! TD*
D13*
G04 #@! TO.C,S59*
X28575000Y-13097002D03*
D14*
X28829000Y-12589002D03*
X28194000Y-12843002D03*
D15*
X28067000Y-13097002D03*
X29083000Y-13097002D03*
G04 #@! TD*
D13*
G04 #@! TO.C,S10*
X9763125Y-15001875D03*
D14*
X10017125Y-14493875D03*
X9382125Y-14747875D03*
D15*
X9255125Y-15001875D03*
X10271125Y-15001875D03*
G04 #@! TD*
D13*
G04 #@! TO.C,S24*
X15240000Y-13097002D03*
D14*
X15494000Y-12589002D03*
X14859000Y-12843002D03*
D15*
X14732000Y-13097002D03*
X15748000Y-13097002D03*
G04 #@! TD*
D13*
G04 #@! TO.C,S46*
X24288750Y-7382002D03*
D14*
X24542750Y-6874002D03*
X23907750Y-7128002D03*
D15*
X23780750Y-7382002D03*
X24796750Y-7382002D03*
G04 #@! TD*
D13*
G04 #@! TO.C,S62*
X30956250Y-9287002D03*
D14*
X31210250Y-8779002D03*
X30575250Y-9033002D03*
D15*
X30448250Y-9287002D03*
X31464250Y-9287002D03*
G04 #@! TD*
D13*
G04 #@! TO.C,S32*
X19526250Y-9287002D03*
D14*
X19780250Y-8779002D03*
X19145250Y-9033002D03*
D15*
X19018250Y-9287002D03*
X20034250Y-9287002D03*
G04 #@! TD*
D13*
G04 #@! TO.C,S53*
X27622500Y-11192002D03*
D14*
X27876500Y-10684002D03*
X27241500Y-10938002D03*
D15*
X27114500Y-11192002D03*
X28130500Y-11192002D03*
G04 #@! TD*
D13*
G04 #@! TO.C,S682*
X33575625Y-11191875D03*
D14*
X33829625Y-10683875D03*
X33194625Y-10937875D03*
D15*
X33067625Y-11191875D03*
X34083625Y-11191875D03*
G04 #@! TD*
D13*
G04 #@! TO.C,S601*
X28575000Y-15001875D03*
D14*
X28829000Y-14493875D03*
X28194000Y-14747875D03*
D15*
X28067000Y-15001875D03*
X29083000Y-15001875D03*
G04 #@! TD*
D13*
G04 #@! TO.C,S09*
X9525000Y-13097002D03*
D14*
X9779000Y-12589002D03*
X9144000Y-12843002D03*
D15*
X9017000Y-13097002D03*
X10033000Y-13097002D03*
G04 #@! TD*
D13*
G04 #@! TO.C,S641*
X33813750Y-13096875D03*
D14*
X34067750Y-12588875D03*
X33432750Y-12842875D03*
D15*
X33305750Y-13096875D03*
X34321750Y-13096875D03*
G04 #@! TD*
D13*
G04 #@! TO.C,S0512*
X7620000Y-14998700D03*
D14*
X7874000Y-14490700D03*
X7239000Y-14744700D03*
D15*
X7112000Y-14998700D03*
X8128000Y-14998700D03*
G04 #@! TD*
D13*
G04 #@! TO.C,S102*
X10477500Y-14998700D03*
D14*
X10731500Y-14490700D03*
X10096500Y-14744700D03*
D15*
X9969500Y-14998700D03*
X10985500Y-14998700D03*
G04 #@! TD*
D13*
G04 #@! TO.C,S101*
X10007600Y-14998700D03*
D14*
X10261600Y-14490700D03*
X9626600Y-14744700D03*
D15*
X9499600Y-14998700D03*
X10515600Y-14998700D03*
G04 #@! TD*
D13*
G04 #@! TO.C,S552*
X26670000Y-15001875D03*
D14*
X26924000Y-14493875D03*
X26289000Y-14747875D03*
D15*
X26162000Y-15001875D03*
X27178000Y-15001875D03*
G04 #@! TD*
D13*
G04 #@! TO.C,S602*
X29051250Y-15001875D03*
D14*
X29305250Y-14493875D03*
X28670250Y-14747875D03*
D15*
X28543250Y-15001875D03*
X29559250Y-15001875D03*
G04 #@! TD*
D13*
G04 #@! TO.C,S151*
X12382500Y-14998700D03*
D14*
X12636500Y-14490700D03*
X12001500Y-14744700D03*
D15*
X11874500Y-14998700D03*
X12890500Y-14998700D03*
G04 #@! TD*
D13*
G04 #@! TO.C,S6512*
X30956250Y-15001875D03*
D14*
X31210250Y-14493875D03*
X30575250Y-14747875D03*
D15*
X30448250Y-15001875D03*
X31464250Y-15001875D03*
G04 #@! TD*
D13*
G04 #@! TO.C,S7012*
X33337500Y-15001875D03*
D14*
X33591500Y-14493875D03*
X32956500Y-14747875D03*
D15*
X32829500Y-15001875D03*
X33845500Y-15001875D03*
G04 #@! TD*
D13*
G04 #@! TO.C,S301*
X20478750Y-15002002D03*
D14*
X20732750Y-14494002D03*
X20097750Y-14748002D03*
D15*
X19970750Y-15002002D03*
X20986750Y-15002002D03*
G04 #@! TD*
D13*
G04 #@! TO.C,S302*
X18573750Y-15001875D03*
D14*
X18827750Y-14493875D03*
X18192750Y-14747875D03*
D15*
X18065750Y-15001875D03*
X19081750Y-15001875D03*
G04 #@! TD*
D13*
G04 #@! TO.C,S041*
X7382002Y-13097002D03*
D14*
X7636002Y-12589002D03*
X7001002Y-12843002D03*
D15*
X6874002Y-13097002D03*
X7890002Y-13097002D03*
G04 #@! TD*
D13*
G04 #@! TO.C,S691*
X33099375Y-13096875D03*
D14*
X33353375Y-12588875D03*
X32718375Y-12842875D03*
D15*
X32591375Y-13096875D03*
X33607375Y-13096875D03*
G04 #@! TD*
D13*
G04 #@! TO.C,S661*
X31908750Y-7381875D03*
D14*
X32162750Y-6873875D03*
X31527750Y-7127875D03*
D15*
X31400750Y-7381875D03*
X32416750Y-7381875D03*
G04 #@! TD*
D13*
G04 #@! TO.C,S50*
X33813750Y-7381875D03*
D14*
X34067750Y-6873875D03*
X33432750Y-7127875D03*
D15*
X33305750Y-7381875D03*
X34321750Y-7381875D03*
G04 #@! TD*
D13*
G04 #@! TO.C,S06*
X9048750Y-7381875D03*
D14*
X9302750Y-6873875D03*
X8667750Y-7127875D03*
D15*
X8540750Y-7381875D03*
X9556750Y-7381875D03*
G04 #@! TD*
D13*
G04 #@! TO.C,S01*
X7143750Y-7381875D03*
D14*
X7397750Y-6873875D03*
X6762750Y-7127875D03*
D15*
X6635750Y-7381875D03*
X7651750Y-7381875D03*
G04 #@! TD*
D13*
G04 #@! TO.C,S692*
X31194375Y-13096875D03*
D14*
X31448375Y-12588875D03*
X30813375Y-12842875D03*
D15*
X30686375Y-13096875D03*
X31702375Y-13096875D03*
G04 #@! TD*
D13*
G04 #@! TO.C,S64*
X30480000Y-13096875D03*
D14*
X30734000Y-12588875D03*
X30099000Y-12842875D03*
D15*
X29972000Y-13096875D03*
X30988000Y-13096875D03*
G04 #@! TD*
D13*
G04 #@! TO.C,S63*
X31432500Y-11192002D03*
D14*
X31686500Y-10684002D03*
X31051500Y-10938002D03*
D15*
X30924500Y-11192002D03*
X31940500Y-11192002D03*
G04 #@! TD*
D19*
G04 #@! TO.C,HOLE*
X34583120Y-12112120D03*
G04 #@! TD*
G04 #@! TO.C,HOLE*
X6374890Y-12112120D03*
G04 #@! TD*
D20*
G04 #@! TO.C,HOLE*
X32233990Y-9252080D03*
G04 #@! TD*
G04 #@! TO.C,HOLE*
X25278940Y-14982070D03*
G04 #@! TD*
G04 #@! TO.C,HOLE*
X19049000Y-11162000D03*
G04 #@! TD*
D21*
G04 #@! TO.C,HOLE*
X8748930Y-9252080D03*
G04 #@! TD*
D16*
G04 #@! TO.C,*
X6977640Y-7857620D03*
X6977640Y-8032620D03*
X7327640Y-7857620D03*
X7327640Y-8032620D03*
G04 #@! TD*
G04 #@! TO.C,*
X8880100Y-7852540D03*
X8880100Y-8027540D03*
X9230100Y-7852540D03*
X9230100Y-8027540D03*
G04 #@! TD*
G04 #@! TO.C,*
X10785100Y-7852540D03*
X10785100Y-8027540D03*
X11135100Y-7852540D03*
X11135100Y-8027540D03*
G04 #@! TD*
G04 #@! TO.C,*
X12690100Y-7857620D03*
X12690100Y-8032620D03*
X13040100Y-7857620D03*
X13040100Y-8032620D03*
G04 #@! TD*
G04 #@! TO.C,*
X14597640Y-7857620D03*
X14597640Y-8032620D03*
X14947640Y-7857620D03*
X14947640Y-8032620D03*
G04 #@! TD*
G04 #@! TO.C,*
X16507720Y-7857620D03*
X16507720Y-8032620D03*
X16857720Y-7857620D03*
X16857720Y-8032620D03*
G04 #@! TD*
G04 #@! TO.C,*
X18417800Y-7857620D03*
X18417800Y-8032620D03*
X18767800Y-7857620D03*
X18767800Y-8032620D03*
G04 #@! TD*
G04 #@! TO.C,*
X20312640Y-7857620D03*
X20312640Y-8032620D03*
X20662640Y-7857620D03*
X20662640Y-8032620D03*
G04 #@! TD*
G04 #@! TO.C,*
X22222720Y-7857620D03*
X22222720Y-8032620D03*
X22572720Y-7857620D03*
X22572720Y-8032620D03*
G04 #@! TD*
G04 #@! TO.C,*
X24122640Y-7857620D03*
X24122640Y-8032620D03*
X24472640Y-7857620D03*
X24472640Y-8032620D03*
G04 #@! TD*
G04 #@! TO.C,*
X26022560Y-7857620D03*
X26022560Y-8032620D03*
X26372560Y-7857620D03*
X26372560Y-8032620D03*
G04 #@! TD*
G04 #@! TO.C,*
X27922480Y-7857620D03*
X27922480Y-8032620D03*
X28272480Y-7857620D03*
X28272480Y-8032620D03*
G04 #@! TD*
G04 #@! TO.C,*
X29832560Y-7857620D03*
X29832560Y-8032620D03*
X30182560Y-7857620D03*
X30182560Y-8032620D03*
G04 #@! TD*
G04 #@! TO.C,*
X32697680Y-7857620D03*
X32697680Y-8032620D03*
X33047680Y-7857620D03*
X33047680Y-8032620D03*
G04 #@! TD*
G04 #@! TO.C,*
X7445000Y-9762620D03*
X7445000Y-9937620D03*
X7795000Y-9762620D03*
X7795000Y-9937620D03*
G04 #@! TD*
G04 #@! TO.C,*
X10305040Y-11662540D03*
X10305040Y-11837540D03*
X10655040Y-11662540D03*
X10655040Y-11837540D03*
G04 #@! TD*
G04 #@! TO.C,*
X8181600Y-13516740D03*
X8181600Y-13691740D03*
X8531600Y-13516740D03*
X8531600Y-13691740D03*
G04 #@! TD*
G04 #@! TO.C,*
X7323080Y-15472540D03*
X7323080Y-15647540D03*
X7673080Y-15472540D03*
X7673080Y-15647540D03*
G04 #@! TD*
G04 #@! TO.C,*
X9847840Y-15472540D03*
X9847840Y-15647540D03*
X10197840Y-15472540D03*
X10197840Y-15647540D03*
G04 #@! TD*
G04 #@! TO.C,*
X12067800Y-15477620D03*
X12067800Y-15652620D03*
X12417800Y-15477620D03*
X12417800Y-15652620D03*
G04 #@! TD*
G04 #@! TO.C,*
X19134080Y-15482700D03*
X19134080Y-15657700D03*
X19484080Y-15482700D03*
X19484080Y-15657700D03*
G04 #@! TD*
G04 #@! TO.C,*
X20332960Y-15477620D03*
X20332960Y-15652620D03*
X20682960Y-15477620D03*
X20682960Y-15652620D03*
G04 #@! TD*
G04 #@! TO.C,*
X26505160Y-15477620D03*
X26505160Y-15652620D03*
X26855160Y-15477620D03*
X26855160Y-15652620D03*
G04 #@! TD*
G04 #@! TO.C,*
X28628600Y-15482700D03*
X28628600Y-15657700D03*
X28978600Y-15482700D03*
X28978600Y-15657700D03*
G04 #@! TD*
G04 #@! TO.C,*
X30904440Y-15477620D03*
X30904440Y-15652620D03*
X31254440Y-15477620D03*
X31254440Y-15652620D03*
G04 #@! TD*
G04 #@! TO.C,*
X33281880Y-15492860D03*
X33281880Y-15667860D03*
X33631880Y-15492860D03*
X33631880Y-15667860D03*
G04 #@! TD*
G04 #@! TO.C,*
X9832600Y-9762620D03*
X9832600Y-9937620D03*
X10182600Y-9762620D03*
X10182600Y-9937620D03*
G04 #@! TD*
G04 #@! TO.C,*
X11732520Y-9767700D03*
X11732520Y-9942700D03*
X12082520Y-9767700D03*
X12082520Y-9942700D03*
G04 #@! TD*
G04 #@! TO.C,*
X13647680Y-9767700D03*
X13647680Y-9942700D03*
X13997680Y-9767700D03*
X13997680Y-9942700D03*
G04 #@! TD*
G04 #@! TO.C,*
X15552680Y-9752460D03*
X15552680Y-9927460D03*
X15902680Y-9752460D03*
X15902680Y-9927460D03*
G04 #@! TD*
G04 #@! TO.C,*
X17457680Y-9762620D03*
X17457680Y-9937620D03*
X17807680Y-9762620D03*
X17807680Y-9937620D03*
G04 #@! TD*
G04 #@! TO.C,*
X19372840Y-9762620D03*
X19372840Y-9937620D03*
X19722840Y-9762620D03*
X19722840Y-9937620D03*
G04 #@! TD*
G04 #@! TO.C,*
X21262600Y-9757540D03*
X21262600Y-9932540D03*
X21612600Y-9757540D03*
X21612600Y-9932540D03*
G04 #@! TD*
G04 #@! TO.C,*
X23172680Y-9767700D03*
X23172680Y-9942700D03*
X23522680Y-9767700D03*
X23522680Y-9942700D03*
G04 #@! TD*
G04 #@! TO.C,*
X25072600Y-9762620D03*
X25072600Y-9937620D03*
X25422600Y-9762620D03*
X25422600Y-9937620D03*
G04 #@! TD*
G04 #@! TO.C,*
X26977600Y-9757540D03*
X26977600Y-9932540D03*
X27327600Y-9757540D03*
X27327600Y-9932540D03*
G04 #@! TD*
G04 #@! TO.C,*
X28892760Y-9767700D03*
X28892760Y-9942700D03*
X29242760Y-9767700D03*
X29242760Y-9942700D03*
G04 #@! TD*
G04 #@! TO.C,*
X30787600Y-9767700D03*
X30787600Y-9942700D03*
X31137600Y-9767700D03*
X31137600Y-9942700D03*
G04 #@! TD*
G04 #@! TO.C,*
X31991560Y-13582780D03*
X31991560Y-13757780D03*
X32341560Y-13582780D03*
X32341560Y-13757780D03*
G04 #@! TD*
G04 #@! TO.C,*
X30284680Y-13577700D03*
X30284680Y-13752700D03*
X30634680Y-13577700D03*
X30634680Y-13752700D03*
G04 #@! TD*
G04 #@! TO.C,*
X33657800Y-13577700D03*
X33657800Y-13752700D03*
X34007800Y-13577700D03*
X34007800Y-13752700D03*
G04 #@! TD*
G04 #@! TO.C,*
X7450080Y-11662540D03*
X7450080Y-11837540D03*
X7800080Y-11662540D03*
X7800080Y-11837540D03*
G04 #@! TD*
G04 #@! TO.C,*
X12215120Y-11667620D03*
X12215120Y-11842620D03*
X12565120Y-11667620D03*
X12565120Y-11842620D03*
G04 #@! TD*
G04 #@! TO.C,*
X14109960Y-11667620D03*
X14109960Y-11842620D03*
X14459960Y-11667620D03*
X14459960Y-11842620D03*
G04 #@! TD*
G04 #@! TO.C,*
X16025120Y-11667620D03*
X16025120Y-11842620D03*
X16375120Y-11667620D03*
X16375120Y-11842620D03*
G04 #@! TD*
G04 #@! TO.C,*
X17940280Y-11667620D03*
X17940280Y-11842620D03*
X18290280Y-11667620D03*
X18290280Y-11842620D03*
G04 #@! TD*
G04 #@! TO.C,*
X19835120Y-11667620D03*
X19835120Y-11842620D03*
X20185120Y-11667620D03*
X20185120Y-11842620D03*
G04 #@! TD*
G04 #@! TO.C,*
X21745200Y-11667620D03*
X21745200Y-11842620D03*
X22095200Y-11667620D03*
X22095200Y-11842620D03*
G04 #@! TD*
G04 #@! TO.C,*
X23645120Y-11662540D03*
X23645120Y-11837540D03*
X23995120Y-11662540D03*
X23995120Y-11837540D03*
G04 #@! TD*
G04 #@! TO.C,*
X25545040Y-11667620D03*
X25545040Y-11842620D03*
X25895040Y-11667620D03*
X25895040Y-11842620D03*
G04 #@! TD*
G04 #@! TO.C,*
X27455120Y-11667620D03*
X27455120Y-11842620D03*
X27805120Y-11667620D03*
X27805120Y-11842620D03*
G04 #@! TD*
G04 #@! TO.C,*
X29365200Y-11662540D03*
X29365200Y-11837540D03*
X29715200Y-11662540D03*
X29715200Y-11837540D03*
G04 #@! TD*
G04 #@! TO.C,*
X32438600Y-11682860D03*
X32438600Y-11857860D03*
X32788600Y-11682860D03*
X32788600Y-11857860D03*
G04 #@! TD*
G04 #@! TO.C,*
X33175200Y-9757540D03*
X33175200Y-9932540D03*
X33525200Y-9757540D03*
X33525200Y-9932540D03*
G04 #@! TD*
G04 #@! TO.C,*
X11255000Y-13567540D03*
X11255000Y-13742540D03*
X11605000Y-13567540D03*
X11605000Y-13742540D03*
G04 #@! TD*
G04 #@! TO.C,*
X13170160Y-13577700D03*
X13170160Y-13752700D03*
X13520160Y-13577700D03*
X13520160Y-13752700D03*
G04 #@! TD*
G04 #@! TO.C,*
X15065000Y-13572620D03*
X15065000Y-13747620D03*
X15415000Y-13572620D03*
X15415000Y-13747620D03*
G04 #@! TD*
G04 #@! TO.C,*
X16975080Y-13572620D03*
X16975080Y-13747620D03*
X17325080Y-13572620D03*
X17325080Y-13747620D03*
G04 #@! TD*
G04 #@! TO.C,*
X18880080Y-13567540D03*
X18880080Y-13742540D03*
X19230080Y-13567540D03*
X19230080Y-13742540D03*
G04 #@! TD*
G04 #@! TO.C,*
X20785080Y-13572620D03*
X20785080Y-13747620D03*
X21135080Y-13572620D03*
X21135080Y-13747620D03*
G04 #@! TD*
G04 #@! TO.C,*
X22685000Y-13572620D03*
X22685000Y-13747620D03*
X23035000Y-13572620D03*
X23035000Y-13747620D03*
G04 #@! TD*
G04 #@! TO.C,*
X24590000Y-13572620D03*
X24590000Y-13747620D03*
X24940000Y-13572620D03*
X24940000Y-13747620D03*
G04 #@! TD*
G04 #@! TO.C,*
X26500080Y-13572620D03*
X26500080Y-13747620D03*
X26850080Y-13572620D03*
X26850080Y-13747620D03*
G04 #@! TD*
G04 #@! TO.C,*
X28405080Y-13572620D03*
X28405080Y-13747620D03*
X28755080Y-13572620D03*
X28755080Y-13747620D03*
G04 #@! TD*
M02*
