M48
; DRILL file {KiCad (5.1.0)-1} date 2019/12/5 19:46:06
; FORMAT={-:-/ absolute / inch / decimal}
; #@! TF.CreationDate,2019-12-05T19:46:06+08:00
; #@! TF.GenerationSoftware,Kicad,Pcbnew,(5.1.0)-1
; #@! TF.FileFunction,Plated,1,2,PTH
FMAT,2
INCH
T1C0.0157
T2C0.0236
T3C0.0315
T4C0.0394
T5C0.0590
T6C0.0591
T7C0.0984
T8C0.0984
%
G90
G05
T1
X2.5002Y-4.0256
X2.5002Y-4.2861
X2.5013Y-3.8302
X2.5335Y-2.6217
X2.5351Y-6.1292
X2.5429Y-5.6993
X2.5599Y-4.5629
X2.5807Y-5.2864
X2.5836Y-2.9897
X2.5885Y-4.9764
X2.68Y-5.791
X2.6807Y-4.3743
X2.6845Y-4.0165
X2.688Y-2.805
X2.744Y-5.614
X2.7737Y-3.5129
X2.7844Y-3.2376
X2.808Y-5.159
X2.8328Y-5.3337
X2.869Y-4.2768
X2.894Y-5.244
X2.904Y-3.551
X2.9052Y-4.0904
X2.9174Y-2.731
X2.936Y-5.19
X2.9392Y-5.5487
X2.9428Y-2.8486
X2.983Y-3.802
X2.9886Y-4.234
X2.995Y-4.514
X3.0149Y-3.2376
X3.0436Y-5.2416
X3.0446Y-5.0065
X3.0586Y-3.9581
X3.0898Y-2.5896
X3.094Y-2.904
X3.094Y-2.96
X3.105Y-5.472
X3.124Y-3.358
X3.1368Y-4.7524
X3.176Y-4.923
X3.18Y-5.051
X3.19Y-3.324
X3.195Y-4.109
X3.2047Y-5.7397
X3.212Y-5.64
X3.282Y-4.0763
X3.287Y-2.905
X3.287Y-2.958
X3.2897Y-2.5872
X3.2932Y-5.9481
X3.296Y-5.4179
X3.3172Y-4.8531
X3.326Y-3.4083
X3.3336Y-5.8296
X3.3492Y-3.9455
X3.37Y-4.027
X3.378Y-4.828
X3.3887Y-5.5397
X3.447Y-2.805
X3.456Y-4.009
X3.4613Y-5.6837
X3.4703Y-5.4183
X3.4739Y-4.183
X3.4795Y-5.9181
X3.4815Y-4.4196
X3.491Y-5.772
X3.536Y-4.046
X3.5673Y-5.717
X3.5907Y-3.2018
X3.5976Y-4.2611
X3.6566Y-5.2904
X3.705Y-2.608
X3.7203Y-4.9994
X3.7386Y-5.667
X3.7386Y-5.732
X3.7426Y-3.417
X3.759Y-2.5753
X3.775Y-3.933
X3.7784Y-3.2048
X3.7882Y-5.1186
X3.809Y-3.55
X3.84Y-4.345
X3.8549Y-5.0003
X3.8553Y-5.2139
X3.8596Y-4.1963
X3.8645Y-5.3985
X3.899Y-5.424
X3.9073Y-2.7013
X3.922Y-4.75
X3.9321Y-3.9283
X3.944Y-5.553
X3.9476Y-4.0413
X3.9477Y-3.2325
X3.951Y-5.735
X3.9555Y-5.0961
X3.9655Y-4.1435
X3.979Y-5.425
X4.005Y-4.297
X4.0145Y-5.8153
X4.043Y-2.7028
X4.056Y-3.3597
X4.0593Y-5.5235
X4.0742Y-5.0987
X4.0927Y-3.9271
X4.1012Y-5.6703
X4.121Y-3.3253
X4.1408Y-3.4906
X4.1612Y-4.9221
X4.1692Y-4.8073
X4.17Y-5.106
X4.1734Y-4.7175
X4.186Y-2.805
X4.202Y-3.92
X4.202Y-4.043
X4.2042Y-6.0262
X4.2128Y-5.7908
X4.235Y-4.1094
X4.2679Y-5.5315
X4.2765Y-3.4916
X4.295Y-4.0763
X4.2952Y-4.9656
X4.3Y-4.7173
X4.3251Y-5.8369
X4.3268Y-4.3268
X4.328Y-4.2317
X4.3552Y-5.6896
X4.362Y-3.928
X4.3787Y-5.2232
X4.387Y-5.051
X4.401Y-5.9779
X4.42Y-4.044
X4.424Y-4.7173
X4.4473Y-3.4921
X4.45Y-2.608
X4.4576Y-5.5021
X4.4812Y-4.3855
X4.4933Y-5.557
X4.4947Y-4.1959
X4.497Y-2.5753
X4.5198Y-5.847
X4.5198Y-5.9907
X4.5264Y-4.6002
X4.5409Y-5.7454
X4.571Y-3.55
X4.5775Y-4.3849
X4.615Y-4.8817
X4.6251Y-5.5002
X4.6433Y-4.1959
X4.6544Y-5.8342
X4.672Y-4.849
X4.6766Y-5.671
X4.6783Y-3.216
X4.71Y-4.787
X4.7233Y-2.7112
X4.7276Y-5.556
X4.7277Y-2.9019
X4.754Y-4.296
X4.7797Y-4.7857
X4.7827Y-3.9318
X4.803Y-3.3597
X4.8126Y-5.5872
X4.8172Y-5.4947
X4.8303Y-4.9703
X4.8596Y-4.776
X4.868Y-3.3253
X4.8749Y-6.1224
X4.9026Y-3.4662
X4.945Y-4.039
X4.951Y-2.805
X4.954Y-3.937
X4.9764Y-5.5103
X4.9773Y-5.6384
X4.9943Y-4.3387
X5.0Y-4.1094
X5.018Y-5.741
X5.021Y-4.7857
X5.0439Y-3.4674
X5.0453Y-3.7048
X5.06Y-4.0763
X5.0688Y-5.5085
X5.092Y-4.25
X5.0963Y-5.8516
X5.0999Y-4.5426
X5.1018Y-5.729
X5.1018Y-6.0126
X5.1116Y-4.7488
X5.127Y-4.038
X5.127Y-3.921
X5.128Y-5.051
X5.142Y-5.61
X5.156Y-4.7857
X5.1585Y-5.9083
X5.1832Y-6.1407
X5.2Y-2.608
X5.2142Y-4.1944
X5.2145Y-4.2595
X5.2165Y-3.4674
X5.2207Y-5.5743
X5.2231Y-4.3512
X5.2233Y-4.4231
X5.2298Y-3.2171
X5.257Y-5.976
X5.261Y-2.5753
X5.2793Y-5.4828
X5.285Y-5.843
X5.286Y-3.937
X5.2863Y-4.2595
X5.2936Y-5.9399
X5.2953Y-4.3519
X5.2954Y-4.4237
X5.3067Y-5.7326
X5.311Y-5.988
X5.317Y-3.55
X5.3298Y-4.1638
X5.358Y-6.016
X5.3708Y-5.5926
X5.375Y-5.97
X5.379Y-6.1407
X5.38Y-4.041
X5.3808Y-4.7477
X5.383Y-4.8817
X5.3886Y-4.3365
X5.393Y-4.511
X5.416Y-4.202
X5.4307Y-2.7027
X5.435Y-4.8481
X5.437Y-5.49
X5.462Y-4.041
X5.4777Y-4.995
X5.478Y-3.2606
X5.4786Y-4.7735
X5.4815Y-2.9549
X5.497Y-4.296
X5.504Y-5.477
X5.5042Y-5.2505
X5.506Y-5.527
X5.5061Y-6.0174
X5.5415Y-3.9453
X5.5468Y-5.7191
X5.56Y-3.3597
X5.613Y-3.3253
X5.6491Y-3.4662
X5.661Y-4.768
X5.664Y-5.088
X5.6675Y-6.0171
X5.6703Y-4.9981
X5.6837Y-5.7907
X5.687Y-4.044
X5.698Y-2.805
X5.715Y-3.945
X5.732Y-4.1094
X5.7647Y-5.5826
X5.77Y-4.076
X5.7888Y-3.9115
X5.7905Y-3.6337
X5.7942Y-3.4637
X5.7945Y-5.7903
X5.806Y-4.9613
X5.819Y-6.1763
X5.8234Y-4.2017
X5.8393Y-5.7377
X5.8575Y-6.0075
X5.8669Y-5.5896
X5.889Y-5.051
X5.897Y-6.1726
X5.9029Y-6.1049
X5.9158Y-3.6032
X5.9366Y-3.2277
X5.9457Y-6.1726
X5.9463Y-6.0794
X5.962Y-2.608
X5.9667Y-3.4624
X5.986Y-5.5287
X5.987Y-5.815
X5.9878Y-5.9377
X6.011Y-2.5753
X6.0222Y-4.3674
X6.0222Y-4.5401
X6.023Y-5.495
X6.0231Y-4.1605
X6.0231Y-4.2466
X6.031Y-5.426
X6.0311Y-5.6091
X6.0421Y-2.7147
X6.063Y-3.55
X6.0655Y-5.873
X6.0836Y-2.608
X6.084Y-5.427
X6.1057Y-6.1138
X6.13Y-4.769
X6.14Y-4.8817
X6.1546Y-6.1211
X6.1551Y-6.0163
X6.156Y-5.599
X6.1682Y-4.1629
X6.1682Y-4.2437
X6.1699Y-2.8026
X6.179Y-5.6706
X6.184Y-5.734
X6.1843Y-2.7151
X6.191Y-4.8481
X6.193Y-5.56
X6.2122Y-3.9944
X6.235Y-5.686
X6.241Y-5.798
X6.2491Y-2.5753
X6.2538Y-6.045
X6.254Y-4.296
X6.2643Y-4.9946
X6.2676Y-2.9553
X6.273Y-5.538
X6.2902Y-5.1037
X6.305Y-3.3597
X6.3185Y-2.7166
X6.327Y-6.096
X6.336Y-5.433
X6.336Y-5.5294
X6.362Y-3.3253
X6.368Y-5.705
X6.3738Y-4.9409
X6.376Y-4.709
X6.381Y-6.0736
X6.3822Y-3.5022
X6.3851Y-5.1867
X6.3921Y-5.3143
X6.4052Y-6.1143
X6.4197Y-4.965
X6.4407Y-4.7162
X6.446Y-2.805
X6.4493Y-3.9944
X6.469Y-6.0944
X6.471Y-4.9026
X6.4869Y-3.6854
X6.5094Y-4.9713
X6.5143Y-5.2647
X6.5166Y-4.3408
X6.5175Y-5.4
X6.519Y-4.1094
X6.5271Y-6.1385
X6.5547Y-5.8085
X6.5693Y-4.9247
X6.5757Y-5.0078
X6.577Y-4.076
X6.6109Y-3.6529
X6.6272Y-5.9198
X6.6324Y-5.6487
X6.633Y-5.051
X6.6514Y-3.1967
X6.6693Y-6.0545
X6.691Y-2.608
X6.6962Y-3.7403
X6.7298Y-3.4584
X6.7455Y-5.6013
X6.7464Y-5.5413
X6.75Y-2.5753
X6.7555Y-4.3447
X6.7575Y-4.1911
X6.7604Y-4.4706
X6.767Y-4.714
X6.789Y-4.8191
X6.795Y-5.836
X6.8013Y-5.5411
X6.816Y-3.55
X6.8326Y-4.1475
X6.8338Y-6.1438
X6.8351Y-6.0531
X6.849Y-5.8364
X6.85Y-5.936
X6.85Y-5.977
X6.8689Y-3.978
X6.873Y-4.8032
X6.882Y-4.734
X6.8831Y-4.1424
X6.8858Y-4.5148
X6.8908Y-5.0972
X6.9034Y-4.2533
X6.9065Y-6.1044
X6.9083Y-5.6884
X6.916Y-4.893
X6.9298Y-2.9342
X6.9332Y-2.6889
X6.9434Y-4.2233
X6.9552Y-3.2576
X6.9593Y-6.1058
X6.964Y-4.854
X6.9678Y-5.9129
X6.9696Y-5.7952
X6.972Y-4.747
X6.984Y-4.965
X6.985Y-5.2788
X7.0025Y-5.2246
X7.005Y-4.296
X7.0123Y-6.1078
X7.0223Y-5.0927
X7.0309Y-5.8544
X7.069Y-5.597
X7.083Y-3.3597
X7.0848Y-5.7952
X7.09Y-5.9141
X7.094Y-6.066
X7.1045Y-5.05
X7.134Y-3.3253
X7.135Y-5.6172
X7.1424Y-3.5022
X7.1535Y-5.6837
X7.1724Y-6.1004
X7.178Y-4.769
X7.186Y-2.805
X7.1912Y-6.0365
X7.1951Y-5.431
X7.1971Y-3.5481
X7.2224Y-4.8107
X7.2276Y-6.1506
X7.2345Y-5.2455
X7.251Y-5.0839
X7.266Y-4.1094
X7.2761Y-6.1006
X7.2862Y-5.8602
X7.2883Y-5.2575
X7.3139Y-3.4313
X7.3201Y-3.6813
X7.3221Y-3.978
X7.336Y-4.0763
X7.3652Y-5.2543
X7.38Y-4.771
X7.386Y-5.051
X7.409Y-3.2271
X7.4296Y-4.1633
X7.478Y-2.608
X7.4866Y-5.6731
X7.4866Y-5.733
X7.4938Y-3.4747
X7.512Y-5.428
X7.532Y-2.5753
X7.5407Y-4.7826
X7.5487Y-3.549
X7.5634Y-4.1633
X7.6299Y-5.0972
X7.642Y-4.8844
X7.6457Y-4.7992
X7.6604Y-6.0568
X7.6676Y-3.974
X7.7051Y-2.6868
X7.7057Y-2.9217
X7.7157Y-4.8517
X7.7163Y-6.1431
X7.7301Y-3.2692
X7.751Y-5.589
X7.7836Y-5.6844
X7.7989Y-4.3002
X7.7997Y-5.5878
X7.835Y-3.3597
X7.8424Y-5.981
X7.8462Y-4.9793
X7.8487Y-5.1112
X7.8487Y-5.2447
X7.8561Y-5.4057
X7.8649Y-5.7376
X7.8698Y-6.1173
X7.8785Y-5.8311
X7.885Y-3.3253
X7.8928Y-6.0254
X7.8974Y-3.4841
X7.937Y-6.1298
X7.94Y-2.805
X7.956Y-5.441
X7.9715Y-5.9776
X7.9947Y-4.7864
X7.9948Y-3.976
X8.003Y-5.779
X8.0111Y-4.3784
X8.014Y-4.1094
X8.0173Y-5.2418
X8.0244Y-4.9601
X8.0357Y-4.7552
X8.0479Y-6.0256
X8.0558Y-3.6752
X8.0617Y-3.4841
X8.0636Y-5.8615
X8.078Y-4.0763
X8.0822Y-4.2158
X8.0894Y-5.6398
X8.0899Y-5.9695
X8.1006Y-5.4477
X8.1041Y-6.0593
X8.132Y-5.051
X8.133Y-4.296
X8.143Y-4.769
X8.1447Y-6.237
X8.166Y-4.1094
X8.196Y-2.608
X8.2011Y-5.9507
X8.2014Y-5.6405
X8.2016Y-3.2082
X8.2192Y-3.4519
X8.255Y-2.5753
X8.2608Y-6.1417
X8.2636Y-5.9507
X8.2645Y-5.7052
X8.2667Y-5.4175
X8.2859Y-4.7878
X8.293Y-3.55
X8.3383Y-5.9397
X8.3823Y-4.4877
X8.387Y-4.8844
X8.3876Y-4.2171
X8.3877Y-5.9397
X8.4362Y-5.0133
X8.455Y-3.8111
X8.4587Y-4.8517
X8.4588Y-5.7508
X8.4588Y-5.8755
X8.4637Y-2.9562
X8.4654Y-2.7126
X8.4658Y-3.2793
X8.498Y-4.296
X8.5036Y-3.9178
X8.5102Y-5.4159
X8.5117Y-4.768
X8.5167Y-5.6109
X8.5168Y-5.9442
X8.5534Y-4.8186
X8.5723Y-5.8746
X8.5829Y-5.646
X8.5859Y-5.7007
X8.586Y-3.3597
X8.6024Y-4.7561
X8.643Y-3.3253
X8.661Y-4.609
X8.683Y-2.805
X8.6964Y-4.0249
X8.701Y-5.432
X8.767Y-4.1094
X8.7798Y-3.4655
X8.7833Y-3.7382
X8.8051Y-4.9541
X8.8162Y-5.5246
X8.8282Y-4.7368
X8.8293Y-4.2503
X8.831Y-4.0763
X8.876Y-5.051
X8.8844Y-3.2265
X8.8995Y-5.7045
X8.95Y-2.608
X8.966Y-3.4181
X8.9758Y-4.7368
X8.9926Y-4.2117
X8.9926Y-4.48
X9.0001Y-6.1319
X9.001Y-2.5753
X9.0186Y-5.8474
X9.044Y-3.55
X9.0961Y-2.6579
X9.1057Y-6.131
X9.129Y-4.8844
X9.1618Y-4.7407
X9.1768Y-4.1982
X9.1826Y-5.7061
X9.1873Y-2.9883
X9.1933Y-4.8517
X9.2104Y-3.8052
X9.2325Y-3.9746
X9.2339Y-3.2428
X9.247Y-4.296
X9.2523Y-2.8874
X9.2845Y-5.8388
X9.2928Y-2.7441
X9.326Y-3.3597
X9.3436Y-4.746
X9.3523Y-4.9526
X9.3523Y-5.1885
X9.357Y-5.539
X9.383Y-3.3253
X9.449Y-2.805
X9.4521Y-3.9939
X9.5Y-4.1094
X9.509Y-4.771
X9.5385Y-3.4739
X9.5417Y-5.8404
X9.5559Y-3.2368
X9.563Y-4.0763
X9.5632Y-3.7224
X9.5878Y-4.2172
X9.6058Y-3.9744
X9.636Y-5.051
X9.644Y-4.787
X9.693Y-2.608
X9.7112Y-3.4756
X9.7148Y-5.7466
X9.7148Y-5.952
X9.74Y-4.2182
X9.74Y-4.4133
X9.7456Y-5.5864
X9.7488Y-3.2121
X9.749Y-2.5753
X9.8Y-3.549
X9.881Y-4.8844
X9.8845Y-2.6985
X9.9046Y-3.1635
X9.9205Y-3.2664
X9.9238Y-3.0139
X9.9255Y-4.2172
X9.9543Y-4.8517
X9.9605Y-3.9629
X9.985Y-5.5864
X9.999Y-4.297
X10.0654Y-5.1866
X10.0673Y-4.9661
X10.072Y-3.3597
X10.127Y-5.57
X10.129Y-3.3253
X10.166Y-2.805
X10.1885Y-4.0276
X10.222Y-4.765
X10.2248Y-5.7338
X10.252Y-4.1094
X10.2785Y-5.8564
X10.2938Y-3.4807
X10.2948Y-3.6776
X10.3006Y-5.736
X10.311Y-4.0763
X10.3293Y-3.9235
X10.375Y-5.051
X10.3914Y-3.2586
X10.393Y-4.765
X10.437Y-2.608
X10.4597Y-3.479
X10.4865Y-4.2222
X10.4868Y-4.4675
X10.4874Y-4.7885
X10.493Y-2.5753
X10.5114Y-5.673
X10.543Y-5.306
X10.556Y-3.55
X10.5687Y-3.9914
X10.607Y-5.5833
X10.623Y-4.8844
X10.6855Y-2.9418
X10.6969Y-3.2757
X10.7023Y-4.8517
X10.7026Y-2.7141
X10.742Y-4.296
X10.8044Y-4.9929
X10.8057Y-4.7813
X10.8057Y-5.2504
X10.8068Y-5.9649
X10.8068Y-6.1801
X10.8084Y-5.6778
X10.817Y-3.3597
X10.88Y-3.3253
X10.9051Y-3.479
X10.9125Y-6.0145
X10.936Y-2.805
X10.9495Y-3.9928
X10.982Y-4.774
X10.983Y-4.1094
X11.018Y-5.4553
X11.037Y-4.0763
X11.0573Y-3.6737
X11.0813Y-3.479
X11.118Y-5.051
X11.1541Y-3.2131
X11.174Y-4.776
X11.2Y-2.608
X11.2125Y-5.4941
X11.215Y-3.479
X11.2406Y-5.734
X11.248Y-2.5753
X11.318Y-3.55
X11.3865Y-3.9928
X11.392Y-4.8844
X11.3978Y-4.204
X11.4496Y-6.1769
X11.4514Y-5.675
X11.4615Y-3.2624
X11.4643Y-4.8517
X11.4672Y-2.919
X11.4786Y-2.6951
X11.516Y-4.296
X11.57Y-5.582
X11.572Y-3.3597
X11.618Y-3.3253
X11.6318Y-5.3953
X11.6506Y-5.4992
X11.6665Y-5.1398
X11.6674Y-4.673
X11.6674Y-4.7797
X11.6674Y-4.9791
X11.6674Y-5.2652
X11.6685Y-4.0242
X11.681Y-2.804
X11.6852Y-5.6804
X11.7039Y-5.9113
X11.765Y-4.1094
X11.794Y-5.5227
X11.7986Y-3.4595
X11.8027Y-3.7115
X11.819Y-4.076
X11.8436Y-6.1828
X11.8537Y-6.0287
X11.8543Y-3.0556
X11.8593Y-5.8377
X11.8636Y-3.933
X11.902Y-4.664
X11.935Y-2.608
X11.9453Y-3.2245
X11.955Y-5.49
X11.975Y-2.5753
X11.9911Y-3.4513
X12.024Y-5.051
X12.038Y-3.55
X12.0561Y-4.7792
X12.0878Y-4.2098
X12.0886Y-4.4587
X12.1006Y-5.7863
X12.1465Y-2.6989
X12.1654Y-4.7234
X12.2018Y-5.1226
X12.2018Y-5.2378
X12.2335Y-3.2055
X12.2641Y-2.9683
X12.316Y-3.3597
X12.3311Y-3.9553
X12.35Y-5.404
X12.358Y-5.466
X12.367Y-3.3253
X12.3831Y-6.1808
X12.419Y-5.616
X12.4233Y-3.4732
X12.4241Y-4.46
X12.4471Y-4.9774
X12.489Y-5.581
X12.4943Y-2.9691
X12.523Y-5.465
X12.5506Y-4.984
X12.573Y-4.798
X12.5838Y-5.706
X12.6297Y-3.2451
X12.6405Y-4.2108
X12.649Y-4.021
X12.6701Y-5.9862
X12.672Y-5.8615
X12.682Y-3.4133
X12.6942Y-3.9142
X12.6963Y-2.683
X12.7088Y-5.3945
X12.754Y-4.296
X12.7552Y-6.18
X12.7614Y-4.924
X12.792Y-4.836
X12.811Y-4.027
X12.8326Y-2.733
X12.8352Y-5.6753
X12.8812Y-5.4968
X12.9265Y-4.6423
X12.9273Y-5.0614
X12.9328Y-5.85
X12.949Y-5.319
X12.9494Y-4.17
X13.001Y-4.076
X13.0206Y-3.481
X13.0364Y-4.2954
X13.041Y-5.32
X13.0434Y-2.673
X13.051Y-3.1997
X13.093Y-2.621
X13.117Y-5.804
X13.1326Y-5.207
X13.1632Y-5.1112
X13.1902Y-5.3222
X13.1927Y-3.872
X13.1927Y-4.2622
X13.23Y-3.327
X13.2314Y-3.422
X13.2746Y-2.7558
X13.2939Y-4.9614
X13.3254Y-5.67
X13.335Y-5.476
X13.375Y-5.599
X13.4248Y-2.8924
X13.5478Y-3.0313
X13.5568Y-4.9844
X13.5568Y-5.2627
X13.5568Y-5.612
X13.5568Y-6.1244
X13.5569Y-4.5272
X13.5614Y-3.3888
X13.5637Y-3.7576
X13.5637Y-4.2494
T3
X3.5238Y-4.62
X3.6025Y-4.62
X3.6812Y-4.62
T4
X5.245Y-4.5025
X5.245Y-4.6025
T5
X6.275Y-4.6063
X6.525Y-4.5063
X4.4Y-5.3563
X4.65Y-5.2563
X2.8062Y-6.1063
X3.0562Y-6.0062
X11.525Y-4.6063
X11.775Y-4.5063
X8.15Y-5.3563
X8.4Y-5.2563
X4.2125Y-3.1063
X4.4625Y-3.0063
X10.775Y-4.6063
X11.025Y-4.5063
X6.65Y-5.3563
X6.9Y-5.2563
X12.7438Y-4.6063
X12.9938Y-4.5062
X6.8375Y-3.8563
X7.0875Y-3.7563
X10.4Y-5.3563
X10.65Y-5.2563
X7.9625Y-3.1063
X8.2125Y-3.0063
X10.5875Y-3.8563
X10.8375Y-3.7563
X7.775Y-4.6063
X8.025Y-4.5063
X13.1188Y-6.1063
X13.3688Y-6.0062
X3.7437Y-6.1063
X3.9937Y-6.0062
X12.8375Y-3.1063
X13.0875Y-3.0063
X7.4Y-5.3563
X7.65Y-5.2563
X5.7125Y-3.1063
X5.9625Y-3.0063
X5.3375Y-3.8563
X5.5875Y-3.7563
X2.9Y-3.8563
X3.15Y-3.7563
X7.4937Y-6.1063
X7.7437Y-6.0062
X3.1812Y-5.3563
X3.4312Y-5.2562
X8.7125Y-3.1063
X8.9625Y-3.0063
X4.775Y-4.6063
X5.025Y-4.5063
X10.2125Y-3.1063
X10.4625Y-3.0063
X2.7125Y-3.1062
X2.9625Y-3.0063
X7.5875Y-3.8563
X7.8375Y-3.7563
X5.9Y-5.3563
X6.15Y-5.2563
X11.15Y-5.3563
X11.4Y-5.2563
X7.025Y-4.6063
X7.275Y-4.5063
X11.2438Y-6.1063
X11.4938Y-6.0062
X2.9938Y-4.6063
X3.2438Y-4.5063
X6.4625Y-3.1063
X6.7125Y-3.0063
X12.5563Y-5.3563
X12.8063Y-5.2563
X8.525Y-4.6063
X8.775Y-4.5063
X10.9625Y-3.1063
X11.2125Y-3.0063
X7.2125Y-3.1063
X7.4625Y-3.0063
X13.025Y-3.8562
X13.275Y-3.7563
X4.025Y-4.6063
X4.275Y-4.5063
X12.1813Y-6.1063
X12.4313Y-6.0062
X4.6812Y-6.1063
X4.9312Y-6.0062
X3.8375Y-3.8563
X4.0875Y-3.7563
X5.525Y-4.6063
X5.775Y-4.5063
X8.9Y-5.3563
X9.15Y-5.2563
X4.5875Y-3.8563
X4.8375Y-3.7563
X9.65Y-5.3563
X9.9Y-5.2563
X9.8375Y-3.8563
X10.0875Y-3.7563
X5.15Y-5.3563
X5.4Y-5.2563
X10.025Y-4.6063
X10.275Y-4.5063
X9.0875Y-3.8563
X9.3375Y-3.7563
X10.3063Y-6.1063
X10.5563Y-6.0062
X9.4625Y-3.1063
X9.7125Y-3.0063
X11.3375Y-3.8563
X11.5875Y-3.7563
X8.3375Y-3.8563
X8.5875Y-3.7563
X12.0875Y-3.8563
X12.3375Y-3.7563
X4.9625Y-3.1063
X5.2125Y-3.0063
X9.275Y-4.6063
X9.525Y-4.5063
X11.7125Y-3.1063
X11.9625Y-3.0063
X3.4625Y-3.1062
X3.7125Y-3.0063
X6.0875Y-3.8563
X6.3375Y-3.7563
T6
X3.4411Y-4.62
X3.7639Y-4.62
T8
X3.4445Y-3.6426
T2
G00X3.0204Y-2.5716
M15
G01X3.0204Y-2.5952
M16
G05
G00X3.0204Y-2.7263
M15
G01X3.0204Y-2.7696
M16
G05
G00X3.3606Y-2.5716
M15
G01X3.3606Y-2.5952
M16
G05
G00X3.3606Y-2.7263
M15
G01X3.3606Y-2.7696
M16
G05
T7
G00X7.4504Y-4.3945
M15
G01X7.5489Y-4.3945
M16
G05
G00X9.9031Y-5.8985
M15
G01X10.0016Y-5.8985
M16
G05
G00X12.6413Y-3.6426
M15
G01X12.7398Y-3.6426
M16
G05
G00X2.4212Y-4.7686
M15
G01X2.5984Y-4.7686
M16
G05
G00X13.5268Y-4.7686
M15
G01X13.704Y-4.7686
M16
G05
T0
M30
