G04 #@! TF.GenerationSoftware,KiCad,Pcbnew,(5.0.2)-1*
G04 #@! TF.CreationDate,2019-02-06T17:14:15+08:00*
G04 #@! TF.ProjectId,keyboard,6b657962-6f61-4726-942e-6b696361645f,B*
G04 #@! TF.SameCoordinates,Original*
G04 #@! TF.FileFunction,Paste,Top*
G04 #@! TF.FilePolarity,Positive*
%FSLAX45Y45*%
G04 Gerber Fmt 4.5, Leading zero omitted, Abs format (unit mm)*
G04 Created by KiCad (PCBNEW (5.0.2)-1) date 2019/2/6 17:14:15*
%MOMM*%
%LPD*%
G01*
G04 APERTURE LIST*
%ADD10R,1.560000X0.810000*%
G04 APERTURE END LIST*
D10*
G04 #@! TO.C,*
X18402560Y-15482700D03*
X18402560Y-15657700D03*
X18752560Y-15482700D03*
X18752560Y-15657700D03*
G04 #@! TD*
G04 #@! TO.C,*
X6977640Y-7857620D03*
X6977640Y-8032620D03*
X7327640Y-7857620D03*
X7327640Y-8032620D03*
G04 #@! TD*
G04 #@! TO.C,*
X8880100Y-7852540D03*
X8880100Y-8027540D03*
X9230100Y-7852540D03*
X9230100Y-8027540D03*
G04 #@! TD*
G04 #@! TO.C,*
X10785100Y-7852540D03*
X10785100Y-8027540D03*
X11135100Y-7852540D03*
X11135100Y-8027540D03*
G04 #@! TD*
G04 #@! TO.C,*
X12690100Y-7857620D03*
X12690100Y-8032620D03*
X13040100Y-7857620D03*
X13040100Y-8032620D03*
G04 #@! TD*
G04 #@! TO.C,*
X14597640Y-7857620D03*
X14597640Y-8032620D03*
X14947640Y-7857620D03*
X14947640Y-8032620D03*
G04 #@! TD*
G04 #@! TO.C,*
X16507720Y-7857620D03*
X16507720Y-8032620D03*
X16857720Y-7857620D03*
X16857720Y-8032620D03*
G04 #@! TD*
G04 #@! TO.C,*
X18417800Y-7857620D03*
X18417800Y-8032620D03*
X18767800Y-7857620D03*
X18767800Y-8032620D03*
G04 #@! TD*
G04 #@! TO.C,*
X20312640Y-7857620D03*
X20312640Y-8032620D03*
X20662640Y-7857620D03*
X20662640Y-8032620D03*
G04 #@! TD*
G04 #@! TO.C,*
X22222720Y-7857620D03*
X22222720Y-8032620D03*
X22572720Y-7857620D03*
X22572720Y-8032620D03*
G04 #@! TD*
G04 #@! TO.C,*
X24122640Y-7857620D03*
X24122640Y-8032620D03*
X24472640Y-7857620D03*
X24472640Y-8032620D03*
G04 #@! TD*
G04 #@! TO.C,*
X26022560Y-7857620D03*
X26022560Y-8032620D03*
X26372560Y-7857620D03*
X26372560Y-8032620D03*
G04 #@! TD*
G04 #@! TO.C,*
X27922480Y-7857620D03*
X27922480Y-8032620D03*
X28272480Y-7857620D03*
X28272480Y-8032620D03*
G04 #@! TD*
G04 #@! TO.C,*
X29832560Y-7857620D03*
X29832560Y-8032620D03*
X30182560Y-7857620D03*
X30182560Y-8032620D03*
G04 #@! TD*
G04 #@! TO.C,*
X32697680Y-7857620D03*
X32697680Y-8032620D03*
X33047680Y-7857620D03*
X33047680Y-8032620D03*
G04 #@! TD*
G04 #@! TO.C,*
X7445000Y-9762620D03*
X7445000Y-9937620D03*
X7795000Y-9762620D03*
X7795000Y-9937620D03*
G04 #@! TD*
G04 #@! TO.C,*
X10305040Y-11662540D03*
X10305040Y-11837540D03*
X10655040Y-11662540D03*
X10655040Y-11837540D03*
G04 #@! TD*
G04 #@! TO.C,*
X8181600Y-13516740D03*
X8181600Y-13691740D03*
X8531600Y-13516740D03*
X8531600Y-13691740D03*
G04 #@! TD*
G04 #@! TO.C,*
X7323080Y-15472540D03*
X7323080Y-15647540D03*
X7673080Y-15472540D03*
X7673080Y-15647540D03*
G04 #@! TD*
G04 #@! TO.C,*
X9847840Y-15472540D03*
X9847840Y-15647540D03*
X10197840Y-15472540D03*
X10197840Y-15647540D03*
G04 #@! TD*
G04 #@! TO.C,*
X12067800Y-15477620D03*
X12067800Y-15652620D03*
X12417800Y-15477620D03*
X12417800Y-15652620D03*
G04 #@! TD*
G04 #@! TO.C,*
X19134080Y-15482700D03*
X19134080Y-15657700D03*
X19484080Y-15482700D03*
X19484080Y-15657700D03*
G04 #@! TD*
G04 #@! TO.C,*
X20332960Y-15477620D03*
X20332960Y-15652620D03*
X20682960Y-15477620D03*
X20682960Y-15652620D03*
G04 #@! TD*
G04 #@! TO.C,*
X26505160Y-15477620D03*
X26505160Y-15652620D03*
X26855160Y-15477620D03*
X26855160Y-15652620D03*
G04 #@! TD*
G04 #@! TO.C,*
X28628600Y-15482700D03*
X28628600Y-15657700D03*
X28978600Y-15482700D03*
X28978600Y-15657700D03*
G04 #@! TD*
G04 #@! TO.C,*
X30904440Y-15477620D03*
X30904440Y-15652620D03*
X31254440Y-15477620D03*
X31254440Y-15652620D03*
G04 #@! TD*
G04 #@! TO.C,*
X33281880Y-15492860D03*
X33281880Y-15667860D03*
X33631880Y-15492860D03*
X33631880Y-15667860D03*
G04 #@! TD*
G04 #@! TO.C,*
X9832600Y-9762620D03*
X9832600Y-9937620D03*
X10182600Y-9762620D03*
X10182600Y-9937620D03*
G04 #@! TD*
G04 #@! TO.C,*
X11732520Y-9767700D03*
X11732520Y-9942700D03*
X12082520Y-9767700D03*
X12082520Y-9942700D03*
G04 #@! TD*
G04 #@! TO.C,*
X13647680Y-9767700D03*
X13647680Y-9942700D03*
X13997680Y-9767700D03*
X13997680Y-9942700D03*
G04 #@! TD*
G04 #@! TO.C,*
X15552680Y-9752460D03*
X15552680Y-9927460D03*
X15902680Y-9752460D03*
X15902680Y-9927460D03*
G04 #@! TD*
G04 #@! TO.C,*
X17457680Y-9762620D03*
X17457680Y-9937620D03*
X17807680Y-9762620D03*
X17807680Y-9937620D03*
G04 #@! TD*
G04 #@! TO.C,*
X19372840Y-9762620D03*
X19372840Y-9937620D03*
X19722840Y-9762620D03*
X19722840Y-9937620D03*
G04 #@! TD*
G04 #@! TO.C,*
X21262600Y-9757540D03*
X21262600Y-9932540D03*
X21612600Y-9757540D03*
X21612600Y-9932540D03*
G04 #@! TD*
G04 #@! TO.C,*
X23172680Y-9767700D03*
X23172680Y-9942700D03*
X23522680Y-9767700D03*
X23522680Y-9942700D03*
G04 #@! TD*
G04 #@! TO.C,*
X25072600Y-9762620D03*
X25072600Y-9937620D03*
X25422600Y-9762620D03*
X25422600Y-9937620D03*
G04 #@! TD*
G04 #@! TO.C,*
X26977600Y-9757540D03*
X26977600Y-9932540D03*
X27327600Y-9757540D03*
X27327600Y-9932540D03*
G04 #@! TD*
G04 #@! TO.C,*
X28892760Y-9767700D03*
X28892760Y-9942700D03*
X29242760Y-9767700D03*
X29242760Y-9942700D03*
G04 #@! TD*
G04 #@! TO.C,*
X30787600Y-9767700D03*
X30787600Y-9942700D03*
X31137600Y-9767700D03*
X31137600Y-9942700D03*
G04 #@! TD*
G04 #@! TO.C,*
X31991560Y-13582780D03*
X31991560Y-13757780D03*
X32341560Y-13582780D03*
X32341560Y-13757780D03*
G04 #@! TD*
G04 #@! TO.C,*
X30284680Y-13577700D03*
X30284680Y-13752700D03*
X30634680Y-13577700D03*
X30634680Y-13752700D03*
G04 #@! TD*
G04 #@! TO.C,*
X33657800Y-13577700D03*
X33657800Y-13752700D03*
X34007800Y-13577700D03*
X34007800Y-13752700D03*
G04 #@! TD*
G04 #@! TO.C,*
X7450080Y-11662540D03*
X7450080Y-11837540D03*
X7800080Y-11662540D03*
X7800080Y-11837540D03*
G04 #@! TD*
G04 #@! TO.C,*
X12215120Y-11667620D03*
X12215120Y-11842620D03*
X12565120Y-11667620D03*
X12565120Y-11842620D03*
G04 #@! TD*
G04 #@! TO.C,*
X14109960Y-11667620D03*
X14109960Y-11842620D03*
X14459960Y-11667620D03*
X14459960Y-11842620D03*
G04 #@! TD*
G04 #@! TO.C,*
X16025120Y-11667620D03*
X16025120Y-11842620D03*
X16375120Y-11667620D03*
X16375120Y-11842620D03*
G04 #@! TD*
G04 #@! TO.C,*
X17940280Y-11667620D03*
X17940280Y-11842620D03*
X18290280Y-11667620D03*
X18290280Y-11842620D03*
G04 #@! TD*
G04 #@! TO.C,*
X19835120Y-11667620D03*
X19835120Y-11842620D03*
X20185120Y-11667620D03*
X20185120Y-11842620D03*
G04 #@! TD*
G04 #@! TO.C,*
X21745200Y-11667620D03*
X21745200Y-11842620D03*
X22095200Y-11667620D03*
X22095200Y-11842620D03*
G04 #@! TD*
G04 #@! TO.C,*
X23645120Y-11662540D03*
X23645120Y-11837540D03*
X23995120Y-11662540D03*
X23995120Y-11837540D03*
G04 #@! TD*
G04 #@! TO.C,*
X25545040Y-11667620D03*
X25545040Y-11842620D03*
X25895040Y-11667620D03*
X25895040Y-11842620D03*
G04 #@! TD*
G04 #@! TO.C,*
X27455120Y-11667620D03*
X27455120Y-11842620D03*
X27805120Y-11667620D03*
X27805120Y-11842620D03*
G04 #@! TD*
G04 #@! TO.C,*
X29365200Y-11662540D03*
X29365200Y-11837540D03*
X29715200Y-11662540D03*
X29715200Y-11837540D03*
G04 #@! TD*
G04 #@! TO.C,*
X32438600Y-11682860D03*
X32438600Y-11857860D03*
X32788600Y-11682860D03*
X32788600Y-11857860D03*
G04 #@! TD*
G04 #@! TO.C,*
X33175200Y-9757540D03*
X33175200Y-9932540D03*
X33525200Y-9757540D03*
X33525200Y-9932540D03*
G04 #@! TD*
G04 #@! TO.C,*
X11255000Y-13567540D03*
X11255000Y-13742540D03*
X11605000Y-13567540D03*
X11605000Y-13742540D03*
G04 #@! TD*
G04 #@! TO.C,*
X13170160Y-13577700D03*
X13170160Y-13752700D03*
X13520160Y-13577700D03*
X13520160Y-13752700D03*
G04 #@! TD*
G04 #@! TO.C,*
X15065000Y-13572620D03*
X15065000Y-13747620D03*
X15415000Y-13572620D03*
X15415000Y-13747620D03*
G04 #@! TD*
G04 #@! TO.C,*
X16975080Y-13572620D03*
X16975080Y-13747620D03*
X17325080Y-13572620D03*
X17325080Y-13747620D03*
G04 #@! TD*
G04 #@! TO.C,*
X18880080Y-13567540D03*
X18880080Y-13742540D03*
X19230080Y-13567540D03*
X19230080Y-13742540D03*
G04 #@! TD*
G04 #@! TO.C,*
X20785080Y-13572620D03*
X20785080Y-13747620D03*
X21135080Y-13572620D03*
X21135080Y-13747620D03*
G04 #@! TD*
G04 #@! TO.C,*
X22685000Y-13572620D03*
X22685000Y-13747620D03*
X23035000Y-13572620D03*
X23035000Y-13747620D03*
G04 #@! TD*
G04 #@! TO.C,*
X24590000Y-13572620D03*
X24590000Y-13747620D03*
X24940000Y-13572620D03*
X24940000Y-13747620D03*
G04 #@! TD*
G04 #@! TO.C,*
X26500080Y-13572620D03*
X26500080Y-13747620D03*
X26850080Y-13572620D03*
X26850080Y-13747620D03*
G04 #@! TD*
G04 #@! TO.C,*
X28405080Y-13572620D03*
X28405080Y-13747620D03*
X28755080Y-13572620D03*
X28755080Y-13747620D03*
G04 #@! TD*
M02*
