G04 #@! TF.GenerationSoftware,KiCad,Pcbnew,(5.1.0)-1*
G04 #@! TF.CreationDate,2019-04-14T03:08:59+08:00*
G04 #@! TF.ProjectId,keyboard,6b657962-6f61-4726-942e-6b696361645f,B*
G04 #@! TF.SameCoordinates,Original*
G04 #@! TF.FileFunction,Legend,Top*
G04 #@! TF.FilePolarity,Positive*
%FSLAX46Y46*%
G04 Gerber Fmt 4.6, Leading zero omitted, Abs format (unit mm)*
G04 Created by KiCad (PCBNEW (5.1.0)-1) date 2019-04-14 03:08:59*
%MOMM*%
%LPD*%
G04 APERTURE LIST*
%ADD10C,0.304800*%
%ADD11C,0.600000*%
%ADD12C,0.381000*%
%ADD13C,0.228600*%
%ADD14C,0.150000*%
G04 APERTURE END LIST*
D10*
X213450714Y-148744698D02*
X212942714Y-147777079D01*
X212579857Y-148744698D02*
X212579857Y-146712698D01*
X213160428Y-146712698D01*
X213305571Y-146809460D01*
X213378142Y-146906221D01*
X213450714Y-147099745D01*
X213450714Y-147390031D01*
X213378142Y-147583555D01*
X213305571Y-147680317D01*
X213160428Y-147777079D01*
X212579857Y-147777079D01*
X214902142Y-146809460D02*
X214757000Y-146712698D01*
X214539285Y-146712698D01*
X214321571Y-146809460D01*
X214176428Y-147002983D01*
X214103857Y-147196507D01*
X214031285Y-147583555D01*
X214031285Y-147873840D01*
X214103857Y-148260888D01*
X214176428Y-148454412D01*
X214321571Y-148647936D01*
X214539285Y-148744698D01*
X214684428Y-148744698D01*
X214902142Y-148647936D01*
X214974714Y-148551174D01*
X214974714Y-147873840D01*
X214684428Y-147873840D01*
X216135857Y-147680317D02*
X216353571Y-147777079D01*
X216426142Y-147873840D01*
X216498714Y-148067364D01*
X216498714Y-148357650D01*
X216426142Y-148551174D01*
X216353571Y-148647936D01*
X216208428Y-148744698D01*
X215627857Y-148744698D01*
X215627857Y-146712698D01*
X216135857Y-146712698D01*
X216281000Y-146809460D01*
X216353571Y-146906221D01*
X216426142Y-147099745D01*
X216426142Y-147293269D01*
X216353571Y-147486793D01*
X216281000Y-147583555D01*
X216135857Y-147680317D01*
X215627857Y-147680317D01*
X216934142Y-146712698D02*
X217805000Y-146712698D01*
X217369571Y-148744698D02*
X217369571Y-146712698D01*
X218966142Y-146712698D02*
X218675857Y-146712698D01*
X218530714Y-146809460D01*
X218458142Y-146906221D01*
X218313000Y-147196507D01*
X218240428Y-147583555D01*
X218240428Y-148357650D01*
X218313000Y-148551174D01*
X218385571Y-148647936D01*
X218530714Y-148744698D01*
X218821000Y-148744698D01*
X218966142Y-148647936D01*
X219038714Y-148551174D01*
X219111285Y-148357650D01*
X219111285Y-147873840D01*
X219038714Y-147680317D01*
X218966142Y-147583555D01*
X218821000Y-147486793D01*
X218530714Y-147486793D01*
X218385571Y-147583555D01*
X218313000Y-147680317D01*
X218240428Y-147873840D01*
X220562714Y-148744698D02*
X219691857Y-148744698D01*
X220127285Y-148744698D02*
X220127285Y-146712698D01*
X219982142Y-147002983D01*
X219837000Y-147196507D01*
X219691857Y-147293269D01*
X207566260Y-145902438D02*
X207566260Y-143870438D01*
X208074260Y-145321866D01*
X208582260Y-143870438D01*
X208582260Y-145902438D01*
X209525688Y-145902438D02*
X209380545Y-145805676D01*
X209307974Y-145708914D01*
X209235402Y-145515390D01*
X209235402Y-144934819D01*
X209307974Y-144741295D01*
X209380545Y-144644533D01*
X209525688Y-144547771D01*
X209743402Y-144547771D01*
X209888545Y-144644533D01*
X209961117Y-144741295D01*
X210033688Y-144934819D01*
X210033688Y-145515390D01*
X209961117Y-145708914D01*
X209888545Y-145805676D01*
X209743402Y-145902438D01*
X209525688Y-145902438D01*
X211339974Y-145902438D02*
X211339974Y-143870438D01*
X211339974Y-145805676D02*
X211194831Y-145902438D01*
X210904545Y-145902438D01*
X210759402Y-145805676D01*
X210686831Y-145708914D01*
X210614260Y-145515390D01*
X210614260Y-144934819D01*
X210686831Y-144741295D01*
X210759402Y-144644533D01*
X210904545Y-144547771D01*
X211194831Y-144547771D01*
X211339974Y-144644533D01*
X212646260Y-145805676D02*
X212501117Y-145902438D01*
X212210831Y-145902438D01*
X212065688Y-145805676D01*
X211993117Y-145612152D01*
X211993117Y-144838057D01*
X212065688Y-144644533D01*
X212210831Y-144547771D01*
X212501117Y-144547771D01*
X212646260Y-144644533D01*
X212718831Y-144838057D01*
X212718831Y-145031580D01*
X211993117Y-145225104D01*
X213589688Y-145902438D02*
X213444545Y-145805676D01*
X213371974Y-145612152D01*
X213371974Y-143870438D01*
X214170260Y-145708914D02*
X214242831Y-145805676D01*
X214170260Y-145902438D01*
X214097688Y-145805676D01*
X214170260Y-145708914D01*
X214170260Y-145902438D01*
X214170260Y-144644533D02*
X214242831Y-144741295D01*
X214170260Y-144838057D01*
X214097688Y-144741295D01*
X214170260Y-144644533D01*
X214170260Y-144838057D01*
D11*
X161452227Y-149554505D02*
X160118894Y-149554505D01*
X160118894Y-151649743D02*
X160118894Y-147649743D01*
X162023656Y-147649743D01*
X165261751Y-151649743D02*
X165261751Y-149554505D01*
X165071275Y-149173553D01*
X164690322Y-148983077D01*
X163928418Y-148983077D01*
X163547465Y-149173553D01*
X165261751Y-151459267D02*
X164880799Y-151649743D01*
X163928418Y-151649743D01*
X163547465Y-151459267D01*
X163356989Y-151078315D01*
X163356989Y-150697362D01*
X163547465Y-150316410D01*
X163928418Y-150125934D01*
X164880799Y-150125934D01*
X165261751Y-149935458D01*
X167166513Y-148983077D02*
X167166513Y-151649743D01*
X167166513Y-149364029D02*
X167356989Y-149173553D01*
X167737941Y-148983077D01*
X168309370Y-148983077D01*
X168690322Y-149173553D01*
X168880799Y-149554505D01*
X168880799Y-151649743D01*
D10*
X151196402Y-145672628D02*
X151196402Y-144148628D01*
X151559260Y-144148628D01*
X151776974Y-144221200D01*
X151922117Y-144366342D01*
X151994688Y-144511485D01*
X152067260Y-144801771D01*
X152067260Y-145019485D01*
X151994688Y-145309771D01*
X151922117Y-145454914D01*
X151776974Y-145600057D01*
X151559260Y-145672628D01*
X151196402Y-145672628D01*
X153300974Y-145600057D02*
X153155831Y-145672628D01*
X152865545Y-145672628D01*
X152720402Y-145600057D01*
X152647831Y-145454914D01*
X152647831Y-144874342D01*
X152720402Y-144729200D01*
X152865545Y-144656628D01*
X153155831Y-144656628D01*
X153300974Y-144729200D01*
X153373545Y-144874342D01*
X153373545Y-145019485D01*
X152647831Y-145164628D01*
X153954117Y-145600057D02*
X154099260Y-145672628D01*
X154389545Y-145672628D01*
X154534688Y-145600057D01*
X154607260Y-145454914D01*
X154607260Y-145382342D01*
X154534688Y-145237200D01*
X154389545Y-145164628D01*
X154171831Y-145164628D01*
X154026688Y-145092057D01*
X153954117Y-144946914D01*
X153954117Y-144874342D01*
X154026688Y-144729200D01*
X154171831Y-144656628D01*
X154389545Y-144656628D01*
X154534688Y-144729200D01*
X155260402Y-145672628D02*
X155260402Y-144656628D01*
X155260402Y-144148628D02*
X155187831Y-144221200D01*
X155260402Y-144293771D01*
X155332974Y-144221200D01*
X155260402Y-144148628D01*
X155260402Y-144293771D01*
X156639260Y-144656628D02*
X156639260Y-145890342D01*
X156566688Y-146035485D01*
X156494117Y-146108057D01*
X156348974Y-146180628D01*
X156131260Y-146180628D01*
X155986117Y-146108057D01*
X156639260Y-145600057D02*
X156494117Y-145672628D01*
X156203831Y-145672628D01*
X156058688Y-145600057D01*
X155986117Y-145527485D01*
X155913545Y-145382342D01*
X155913545Y-144946914D01*
X155986117Y-144801771D01*
X156058688Y-144729200D01*
X156203831Y-144656628D01*
X156494117Y-144656628D01*
X156639260Y-144729200D01*
X157364974Y-144656628D02*
X157364974Y-145672628D01*
X157364974Y-144801771D02*
X157437545Y-144729200D01*
X157582688Y-144656628D01*
X157800402Y-144656628D01*
X157945545Y-144729200D01*
X158018117Y-144874342D01*
X158018117Y-145672628D01*
X159324402Y-145600057D02*
X159179260Y-145672628D01*
X158888974Y-145672628D01*
X158743831Y-145600057D01*
X158671260Y-145454914D01*
X158671260Y-144874342D01*
X158743831Y-144729200D01*
X158888974Y-144656628D01*
X159179260Y-144656628D01*
X159324402Y-144729200D01*
X159396974Y-144874342D01*
X159396974Y-145019485D01*
X158671260Y-145164628D01*
X160703260Y-145672628D02*
X160703260Y-144148628D01*
X160703260Y-145600057D02*
X160558117Y-145672628D01*
X160267831Y-145672628D01*
X160122688Y-145600057D01*
X160050117Y-145527485D01*
X159977545Y-145382342D01*
X159977545Y-144946914D01*
X160050117Y-144801771D01*
X160122688Y-144729200D01*
X160267831Y-144656628D01*
X160558117Y-144656628D01*
X160703260Y-144729200D01*
X162590117Y-145672628D02*
X162590117Y-144148628D01*
X162590117Y-144729200D02*
X162735260Y-144656628D01*
X163025545Y-144656628D01*
X163170688Y-144729200D01*
X163243260Y-144801771D01*
X163315831Y-144946914D01*
X163315831Y-145382342D01*
X163243260Y-145527485D01*
X163170688Y-145600057D01*
X163025545Y-145672628D01*
X162735260Y-145672628D01*
X162590117Y-145600057D01*
X163823831Y-144656628D02*
X164186688Y-145672628D01*
X164549545Y-144656628D02*
X164186688Y-145672628D01*
X164041545Y-146035485D01*
X163968974Y-146108057D01*
X163823831Y-146180628D01*
X165130117Y-145527485D02*
X165202688Y-145600057D01*
X165130117Y-145672628D01*
X165057545Y-145600057D01*
X165130117Y-145527485D01*
X165130117Y-145672628D01*
X165130117Y-144729200D02*
X165202688Y-144801771D01*
X165130117Y-144874342D01*
X165057545Y-144801771D01*
X165130117Y-144729200D01*
X165130117Y-144874342D01*
D12*
X139446000Y-139352020D02*
X139446000Y-158021020D01*
X139446000Y-158021020D02*
X146304000Y-158021020D01*
X146304000Y-158021020D02*
X146304000Y-139352020D01*
X146304000Y-139352020D02*
X139446000Y-139352020D01*
X239458500Y-139352020D02*
X239458500Y-158021020D01*
X239458500Y-158021020D02*
X246316500Y-158021020D01*
X246316500Y-158021020D02*
X246316500Y-139352020D01*
X246316500Y-139352020D02*
X239458500Y-139352020D01*
X185216800Y-142392400D02*
X185216800Y-157632400D01*
X200456800Y-142392400D02*
X185216800Y-142392400D01*
X200456800Y-157632400D02*
X200456800Y-142392400D01*
X185216800Y-157632400D02*
X200456800Y-157632400D01*
X313842400Y-123393200D02*
X313842400Y-138633200D01*
X329082400Y-123393200D02*
X313842400Y-123393200D01*
X329082400Y-138633200D02*
X329082400Y-123393200D01*
X313842400Y-138633200D02*
X329082400Y-138633200D01*
X187655200Y-100533200D02*
X202895200Y-100533200D01*
X202895200Y-100533200D02*
X202895200Y-85293200D01*
X202895200Y-85293200D02*
X187655200Y-85293200D01*
X187655200Y-85293200D02*
X187655200Y-100533200D01*
X301904400Y-100482400D02*
X317144400Y-100482400D01*
X317144400Y-100482400D02*
X317144400Y-85242400D01*
X317144400Y-85242400D02*
X301904400Y-85242400D01*
X301904400Y-85242400D02*
X301904400Y-100482400D01*
X343949020Y-84488020D02*
X343949020Y-65819020D01*
X343949020Y-65819020D02*
X337091020Y-65819020D01*
X337091020Y-65819020D02*
X337091020Y-84488020D01*
X337091020Y-84488020D02*
X343949020Y-84488020D01*
X74866500Y-141638020D02*
X74866500Y-122969020D01*
X74866500Y-122969020D02*
X68008500Y-122969020D01*
X68008500Y-122969020D02*
X68008500Y-141638020D01*
X68008500Y-141638020D02*
X74866500Y-141638020D01*
X98679000Y-141638020D02*
X98679000Y-122969020D01*
X98679000Y-122969020D02*
X91821000Y-122969020D01*
X91821000Y-122969020D02*
X91821000Y-141638020D01*
X91821000Y-141638020D02*
X98679000Y-141638020D01*
X312991500Y-141638020D02*
X312991500Y-122969020D01*
X312991500Y-122969020D02*
X306133500Y-122969020D01*
X306133500Y-122969020D02*
X306133500Y-141638020D01*
X306133500Y-141638020D02*
X312991500Y-141638020D01*
X341566500Y-122586750D02*
X341566500Y-103917750D01*
X341566500Y-103917750D02*
X334708500Y-103917750D01*
X334708500Y-103917750D02*
X334708500Y-122586750D01*
X334708500Y-122586750D02*
X341566500Y-122586750D01*
X317754000Y-122588020D02*
X317754000Y-103919020D01*
X317754000Y-103919020D02*
X310896000Y-103919020D01*
X310896000Y-103919020D02*
X310896000Y-122588020D01*
X310896000Y-122588020D02*
X317754000Y-122588020D01*
X320136520Y-84488020D02*
X320136520Y-65819020D01*
X320136520Y-65819020D02*
X313278520Y-65819020D01*
X313278520Y-65819020D02*
X313278520Y-84488020D01*
X313278520Y-84488020D02*
X320136520Y-84488020D01*
X336804000Y-141636750D02*
X336804000Y-122967750D01*
X336804000Y-122967750D02*
X329946000Y-122967750D01*
X329946000Y-122967750D02*
X329946000Y-141636750D01*
X329946000Y-141636750D02*
X336804000Y-141636750D01*
X63804800Y-81432400D02*
X79044800Y-81432400D01*
X79044800Y-81432400D02*
X79044800Y-66192400D01*
X79044800Y-66192400D02*
X63804800Y-66192400D01*
X63804800Y-66192400D02*
X63804800Y-81432400D01*
X82854800Y-66192400D02*
X82854800Y-81432400D01*
X98094800Y-66192400D02*
X82854800Y-66192400D01*
X98094800Y-81432400D02*
X98094800Y-66192400D01*
X82854800Y-81432400D02*
X98094800Y-81432400D01*
X101854000Y-66141600D02*
X101854000Y-81381600D01*
X117094000Y-66141600D02*
X101854000Y-66141600D01*
X117094000Y-81381600D02*
X117094000Y-66141600D01*
X101854000Y-81381600D02*
X117094000Y-81381600D01*
X121005600Y-81483200D02*
X136245600Y-81483200D01*
X136245600Y-81483200D02*
X136245600Y-66243200D01*
X136245600Y-66243200D02*
X121005600Y-66243200D01*
X121005600Y-66243200D02*
X121005600Y-81483200D01*
X140055600Y-66243200D02*
X140055600Y-81483200D01*
X155295600Y-66243200D02*
X140055600Y-66243200D01*
X155295600Y-81483200D02*
X155295600Y-66243200D01*
X140055600Y-81483200D02*
X155295600Y-81483200D01*
X159054800Y-81432400D02*
X174294800Y-81432400D01*
X174294800Y-81432400D02*
X174294800Y-66192400D01*
X174294800Y-66192400D02*
X159054800Y-66192400D01*
X159054800Y-66192400D02*
X159054800Y-81432400D01*
X178155600Y-66243200D02*
X178155600Y-81483200D01*
X193395600Y-66243200D02*
X178155600Y-66243200D01*
X193395600Y-81483200D02*
X193395600Y-66243200D01*
X178155600Y-81483200D02*
X193395600Y-81483200D01*
X197154800Y-81432400D02*
X212394800Y-81432400D01*
X212394800Y-81432400D02*
X212394800Y-66192400D01*
X212394800Y-66192400D02*
X197154800Y-66192400D01*
X197154800Y-66192400D02*
X197154800Y-81432400D01*
X216204800Y-66192400D02*
X216204800Y-81432400D01*
X231444800Y-66192400D02*
X216204800Y-66192400D01*
X231444800Y-81432400D02*
X231444800Y-66192400D01*
X216204800Y-81432400D02*
X231444800Y-81432400D01*
X235305600Y-81432400D02*
X250545600Y-81432400D01*
X250545600Y-81432400D02*
X250545600Y-66192400D01*
X250545600Y-66192400D02*
X235305600Y-66192400D01*
X235305600Y-66192400D02*
X235305600Y-81432400D01*
X254304800Y-66192400D02*
X254304800Y-81432400D01*
X269544800Y-66192400D02*
X254304800Y-66192400D01*
X269544800Y-81432400D02*
X269544800Y-66192400D01*
X254304800Y-81432400D02*
X269544800Y-81432400D01*
X273354800Y-81432400D02*
X288594800Y-81432400D01*
X288594800Y-81432400D02*
X288594800Y-66192400D01*
X288594800Y-66192400D02*
X273354800Y-66192400D01*
X273354800Y-66192400D02*
X273354800Y-81432400D01*
X292404800Y-66192400D02*
X292404800Y-81432400D01*
X307644800Y-66192400D02*
X292404800Y-66192400D01*
X307644800Y-81432400D02*
X307644800Y-66192400D01*
X292404800Y-81432400D02*
X307644800Y-81432400D01*
X321005200Y-81432400D02*
X336245200Y-81432400D01*
X336245200Y-81432400D02*
X336245200Y-66192400D01*
X336245200Y-66192400D02*
X321005200Y-66192400D01*
X321005200Y-66192400D02*
X321005200Y-81432400D01*
X325780400Y-85242400D02*
X325780400Y-100482400D01*
X341020400Y-85242400D02*
X325780400Y-85242400D01*
X341020400Y-100482400D02*
X341020400Y-85242400D01*
X325780400Y-100482400D02*
X341020400Y-100482400D01*
X282905200Y-100533200D02*
X298145200Y-100533200D01*
X298145200Y-100533200D02*
X298145200Y-85293200D01*
X298145200Y-85293200D02*
X282905200Y-85293200D01*
X282905200Y-85293200D02*
X282905200Y-100533200D01*
X263855200Y-85191600D02*
X263855200Y-100431600D01*
X279095200Y-85191600D02*
X263855200Y-85191600D01*
X279095200Y-100431600D02*
X279095200Y-85191600D01*
X263855200Y-100431600D02*
X279095200Y-100431600D01*
X244805200Y-100431600D02*
X260045200Y-100431600D01*
X260045200Y-100431600D02*
X260045200Y-85191600D01*
X260045200Y-85191600D02*
X244805200Y-85191600D01*
X244805200Y-85191600D02*
X244805200Y-100431600D01*
X225704400Y-85242400D02*
X225704400Y-100482400D01*
X240944400Y-85242400D02*
X225704400Y-85242400D01*
X240944400Y-100482400D02*
X240944400Y-85242400D01*
X225704400Y-100482400D02*
X240944400Y-100482400D01*
X206705200Y-85242400D02*
X206705200Y-100482400D01*
X221945200Y-85242400D02*
X206705200Y-85242400D01*
X221945200Y-100482400D02*
X221945200Y-85242400D01*
X206705200Y-100482400D02*
X221945200Y-100482400D01*
X168605200Y-85242400D02*
X168605200Y-100482400D01*
X183845200Y-85242400D02*
X168605200Y-85242400D01*
X183845200Y-100482400D02*
X183845200Y-85242400D01*
X168605200Y-100482400D02*
X183845200Y-100482400D01*
X149555200Y-100482400D02*
X164795200Y-100482400D01*
X164795200Y-100482400D02*
X164795200Y-85242400D01*
X164795200Y-85242400D02*
X149555200Y-85242400D01*
X149555200Y-85242400D02*
X149555200Y-100482400D01*
X130505200Y-85242400D02*
X130505200Y-100482400D01*
X145745200Y-85242400D02*
X130505200Y-85242400D01*
X145745200Y-100482400D02*
X145745200Y-85242400D01*
X130505200Y-100482400D02*
X145745200Y-100482400D01*
X111556800Y-100482400D02*
X126796800Y-100482400D01*
X126796800Y-100482400D02*
X126796800Y-85242400D01*
X126796800Y-85242400D02*
X111556800Y-85242400D01*
X111556800Y-85242400D02*
X111556800Y-100482400D01*
X92405200Y-85242400D02*
X92405200Y-100482400D01*
X107645200Y-85242400D02*
X92405200Y-85242400D01*
X107645200Y-100482400D02*
X107645200Y-85242400D01*
X92405200Y-100482400D02*
X107645200Y-100482400D01*
X68580000Y-100482400D02*
X83820000Y-100482400D01*
X83820000Y-100482400D02*
X83820000Y-85242400D01*
X83820000Y-85242400D02*
X68580000Y-85242400D01*
X68580000Y-85242400D02*
X68580000Y-100482400D01*
X70967600Y-104292400D02*
X70967600Y-119532400D01*
X86207600Y-104292400D02*
X70967600Y-104292400D01*
X86207600Y-119532400D02*
X86207600Y-104292400D01*
X70967600Y-119532400D02*
X86207600Y-119532400D01*
X97129600Y-119532400D02*
X112369600Y-119532400D01*
X112369600Y-119532400D02*
X112369600Y-104292400D01*
X112369600Y-104292400D02*
X97129600Y-104292400D01*
X97129600Y-104292400D02*
X97129600Y-119532400D01*
X116230400Y-104292400D02*
X116230400Y-119532400D01*
X131470400Y-104292400D02*
X116230400Y-104292400D01*
X131470400Y-119532400D02*
X131470400Y-104292400D01*
X116230400Y-119532400D02*
X131470400Y-119532400D01*
X135280400Y-119532400D02*
X150520400Y-119532400D01*
X150520400Y-119532400D02*
X150520400Y-104292400D01*
X150520400Y-104292400D02*
X135280400Y-104292400D01*
X135280400Y-104292400D02*
X135280400Y-119532400D01*
X154330400Y-104292400D02*
X154330400Y-119532400D01*
X169570400Y-104292400D02*
X154330400Y-104292400D01*
X169570400Y-119532400D02*
X169570400Y-104292400D01*
X154330400Y-119532400D02*
X169570400Y-119532400D01*
X173380400Y-119532400D02*
X188620400Y-119532400D01*
X188620400Y-119532400D02*
X188620400Y-104292400D01*
X188620400Y-104292400D02*
X173380400Y-104292400D01*
X173380400Y-104292400D02*
X173380400Y-119532400D01*
X192379600Y-104292400D02*
X192379600Y-119532400D01*
X207619600Y-104292400D02*
X192379600Y-104292400D01*
X207619600Y-119532400D02*
X207619600Y-104292400D01*
X192379600Y-119532400D02*
X207619600Y-119532400D01*
X211429600Y-119532400D02*
X226669600Y-119532400D01*
X226669600Y-119532400D02*
X226669600Y-104292400D01*
X226669600Y-104292400D02*
X211429600Y-104292400D01*
X211429600Y-104292400D02*
X211429600Y-119532400D01*
X230479600Y-104292400D02*
X230479600Y-119532400D01*
X245719600Y-104292400D02*
X230479600Y-104292400D01*
X245719600Y-119532400D02*
X245719600Y-104292400D01*
X230479600Y-119532400D02*
X245719600Y-119532400D01*
X249529600Y-119532400D02*
X264769600Y-119532400D01*
X264769600Y-119532400D02*
X264769600Y-104292400D01*
X264769600Y-104292400D02*
X249529600Y-104292400D01*
X249529600Y-104292400D02*
X249529600Y-119532400D01*
X268579600Y-104292400D02*
X268579600Y-119532400D01*
X283819600Y-104292400D02*
X268579600Y-104292400D01*
X283819600Y-119532400D02*
X283819600Y-104292400D01*
X268579600Y-119532400D02*
X283819600Y-119532400D01*
X287680400Y-119583200D02*
X302920400Y-119583200D01*
X302920400Y-119583200D02*
X302920400Y-104343200D01*
X302920400Y-104343200D02*
X287680400Y-104343200D01*
X287680400Y-104343200D02*
X287680400Y-119583200D01*
X318617600Y-119481600D02*
X333857600Y-119481600D01*
X333857600Y-119481600D02*
X333857600Y-104241600D01*
X333857600Y-104241600D02*
X318617600Y-104241600D01*
X318617600Y-104241600D02*
X318617600Y-119481600D01*
X278130000Y-138633200D02*
X293370000Y-138633200D01*
X293370000Y-138633200D02*
X293370000Y-123393200D01*
X293370000Y-123393200D02*
X278130000Y-123393200D01*
X278130000Y-123393200D02*
X278130000Y-138633200D01*
X259080000Y-138633200D02*
X274320000Y-138633200D01*
X274320000Y-138633200D02*
X274320000Y-123393200D01*
X274320000Y-123393200D02*
X259080000Y-123393200D01*
X259080000Y-123393200D02*
X259080000Y-138633200D01*
X240030000Y-123342400D02*
X240030000Y-138582400D01*
X255270000Y-123342400D02*
X240030000Y-123342400D01*
X255270000Y-138582400D02*
X255270000Y-123342400D01*
X240030000Y-138582400D02*
X255270000Y-138582400D01*
X220980000Y-138582400D02*
X236220000Y-138582400D01*
X236220000Y-138582400D02*
X236220000Y-123342400D01*
X236220000Y-123342400D02*
X220980000Y-123342400D01*
X220980000Y-123342400D02*
X220980000Y-138582400D01*
X201930000Y-123342400D02*
X201930000Y-138582400D01*
X217170000Y-123342400D02*
X201930000Y-123342400D01*
X217170000Y-138582400D02*
X217170000Y-123342400D01*
X201930000Y-138582400D02*
X217170000Y-138582400D01*
X182880000Y-138582400D02*
X198120000Y-138582400D01*
X198120000Y-138582400D02*
X198120000Y-123342400D01*
X198120000Y-123342400D02*
X182880000Y-123342400D01*
X182880000Y-123342400D02*
X182880000Y-138582400D01*
X163830000Y-123342400D02*
X163830000Y-138582400D01*
X179070000Y-123342400D02*
X163830000Y-123342400D01*
X179070000Y-138582400D02*
X179070000Y-123342400D01*
X163830000Y-138582400D02*
X179070000Y-138582400D01*
X144780000Y-138582400D02*
X160020000Y-138582400D01*
X160020000Y-138582400D02*
X160020000Y-123342400D01*
X160020000Y-123342400D02*
X144780000Y-123342400D01*
X144780000Y-123342400D02*
X144780000Y-138582400D01*
X125679200Y-138582400D02*
X140919200Y-138582400D01*
X140919200Y-138582400D02*
X140919200Y-123342400D01*
X140919200Y-123342400D02*
X125679200Y-123342400D01*
X125679200Y-123342400D02*
X125679200Y-138582400D01*
X106680000Y-123342400D02*
X106680000Y-138582400D01*
X121920000Y-123342400D02*
X106680000Y-123342400D01*
X121920000Y-138582400D02*
X121920000Y-123342400D01*
X106680000Y-138582400D02*
X121920000Y-138582400D01*
X75742800Y-123291600D02*
X75742800Y-138531600D01*
X90982800Y-123291600D02*
X75742800Y-123291600D01*
X90982800Y-138531600D02*
X90982800Y-123291600D01*
X75742800Y-138531600D02*
X90982800Y-138531600D01*
X66192400Y-157632400D02*
X81432400Y-157632400D01*
X81432400Y-157632400D02*
X81432400Y-142392400D01*
X81432400Y-142392400D02*
X66192400Y-142392400D01*
X66192400Y-142392400D02*
X66192400Y-157632400D01*
X90017600Y-142392400D02*
X90017600Y-157632400D01*
X105257600Y-142392400D02*
X90017600Y-142392400D01*
X105257600Y-157632400D02*
X105257600Y-142392400D01*
X90017600Y-157632400D02*
X105257600Y-157632400D01*
X113842800Y-157683200D02*
X129082800Y-157683200D01*
X129082800Y-157683200D02*
X129082800Y-142443200D01*
X129082800Y-142443200D02*
X113842800Y-142443200D01*
X113842800Y-142443200D02*
X113842800Y-157683200D01*
X256692400Y-157632400D02*
X271932400Y-157632400D01*
X271932400Y-157632400D02*
X271932400Y-142392400D01*
X271932400Y-142392400D02*
X256692400Y-142392400D01*
X256692400Y-142392400D02*
X256692400Y-157632400D01*
X280568400Y-142392400D02*
X280568400Y-157632400D01*
X295808400Y-142392400D02*
X280568400Y-142392400D01*
X295808400Y-157632400D02*
X295808400Y-142392400D01*
X280568400Y-157632400D02*
X295808400Y-157632400D01*
X304342800Y-157632400D02*
X319582800Y-157632400D01*
X319582800Y-157632400D02*
X319582800Y-142392400D01*
X319582800Y-142392400D02*
X304342800Y-142392400D01*
X304342800Y-142392400D02*
X304342800Y-157632400D01*
X328136250Y-142398750D02*
X328136250Y-157638750D01*
X343376250Y-142398750D02*
X328136250Y-142398750D01*
X343376250Y-157638750D02*
X343376250Y-142398750D01*
X328136250Y-157638750D02*
X343376250Y-157638750D01*
D13*
X212232058Y-158032631D02*
X212404415Y-158090083D01*
X212461868Y-158147536D01*
X212519320Y-158262440D01*
X212519320Y-158434798D01*
X212461868Y-158549702D01*
X212404415Y-158607155D01*
X212289510Y-158664607D01*
X211829891Y-158664607D01*
X211829891Y-157458107D01*
X212232058Y-157458107D01*
X212346963Y-157515560D01*
X212404415Y-157573012D01*
X212461868Y-157687917D01*
X212461868Y-157802821D01*
X212404415Y-157917726D01*
X212346963Y-157975179D01*
X212232058Y-158032631D01*
X211829891Y-158032631D01*
X213610915Y-158664607D02*
X213036391Y-158664607D01*
X213036391Y-157458107D01*
X214013082Y-157458107D02*
X214013082Y-158434798D01*
X214070534Y-158549702D01*
X214127987Y-158607155D01*
X214242891Y-158664607D01*
X214472701Y-158664607D01*
X214587606Y-158607155D01*
X214645058Y-158549702D01*
X214702510Y-158434798D01*
X214702510Y-157458107D01*
X215277034Y-158032631D02*
X215679201Y-158032631D01*
X215851558Y-158664607D02*
X215277034Y-158664607D01*
X215277034Y-157458107D01*
X215851558Y-157458107D01*
X216196272Y-157458107D02*
X216885701Y-157458107D01*
X216540987Y-158664607D02*
X216540987Y-157458107D01*
X217517677Y-157458107D02*
X217747487Y-157458107D01*
X217862391Y-157515560D01*
X217977296Y-157630464D01*
X218034749Y-157860274D01*
X218034749Y-158262440D01*
X217977296Y-158492250D01*
X217862391Y-158607155D01*
X217747487Y-158664607D01*
X217517677Y-158664607D01*
X217402772Y-158607155D01*
X217287868Y-158492250D01*
X217230415Y-158262440D01*
X217230415Y-157860274D01*
X217287868Y-157630464D01*
X217402772Y-157515560D01*
X217517677Y-157458107D01*
X218781630Y-157458107D02*
X219011439Y-157458107D01*
X219126344Y-157515560D01*
X219241249Y-157630464D01*
X219298701Y-157860274D01*
X219298701Y-158262440D01*
X219241249Y-158492250D01*
X219126344Y-158607155D01*
X219011439Y-158664607D01*
X218781630Y-158664607D01*
X218666725Y-158607155D01*
X218551820Y-158492250D01*
X218494368Y-158262440D01*
X218494368Y-157860274D01*
X218551820Y-157630464D01*
X218666725Y-157515560D01*
X218781630Y-157458107D01*
X219643415Y-157458107D02*
X220332844Y-157458107D01*
X219988130Y-158664607D02*
X219988130Y-157458107D01*
X220735010Y-158664607D02*
X220735010Y-157458107D01*
X220735010Y-158032631D02*
X221424439Y-158032631D01*
X221424439Y-158664607D02*
X221424439Y-157458107D01*
D14*
X82880935Y-67869820D02*
X82880935Y-68679344D01*
X82833316Y-68774582D01*
X82785697Y-68822201D01*
X82690459Y-68869820D01*
X82499982Y-68869820D01*
X82404744Y-68822201D01*
X82357125Y-68774582D01*
X82309506Y-68679344D01*
X82309506Y-67869820D01*
X81880935Y-68822201D02*
X81738078Y-68869820D01*
X81499982Y-68869820D01*
X81404744Y-68822201D01*
X81357125Y-68774582D01*
X81309506Y-68679344D01*
X81309506Y-68584106D01*
X81357125Y-68488868D01*
X81404744Y-68441249D01*
X81499982Y-68393630D01*
X81690459Y-68346011D01*
X81785697Y-68298392D01*
X81833316Y-68250773D01*
X81880935Y-68155535D01*
X81880935Y-68060297D01*
X81833316Y-67965059D01*
X81785697Y-67917440D01*
X81690459Y-67869820D01*
X81452363Y-67869820D01*
X81309506Y-67917440D01*
X80547601Y-68346011D02*
X80404744Y-68393630D01*
X80357125Y-68441249D01*
X80309506Y-68536487D01*
X80309506Y-68679344D01*
X80357125Y-68774582D01*
X80404744Y-68822201D01*
X80499982Y-68869820D01*
X80880935Y-68869820D01*
X80880935Y-67869820D01*
X80547601Y-67869820D01*
X80452363Y-67917440D01*
X80404744Y-67965059D01*
X80357125Y-68060297D01*
X80357125Y-68155535D01*
X80404744Y-68250773D01*
X80452363Y-68298392D01*
X80547601Y-68346011D01*
X80880935Y-68346011D01*
X79357125Y-68869820D02*
X79928554Y-68869820D01*
X79642840Y-68869820D02*
X79642840Y-67869820D01*
X79738078Y-68012678D01*
X79833316Y-68107916D01*
X79928554Y-68155535D01*
M02*
